CrimsonText_New_Draft_39_CAPS_Bold_80%.ufo
<glyph name="percent" format="1">
  <advance width="722"/>
  <unicode hex="0025"/>
  <outline>
    <contour>
      <point x="192" y="-12" type="line"/>
      <point x="590" y="487" type="line"/>
      <point x="528" y="540" type="line"/>
      <point x="130" y="41" type="line"/>
    </contour>
    <contour>
      <point x="182" y="255" type="curve" smooth="yes"/>
      <point x="263" y="255"/>
      <point x="330" y="316"/>
      <point x="330" y="396" type="curve" smooth="yes"/>
      <point x="330" y="479"/>
      <point x="268" y="537"/>
      <point x="182" y="537" type="curve" smooth="yes"/>
      <point x="101" y="537"/>
      <point x="33" y="475"/>
      <point x="33" y="396" type="curve" smooth="yes"/>
      <point x="33" y="313"/>
      <point x="94" y="255"/>
    </contour>
    <contour>
      <point x="182" y="342" type="curve" smooth="yes"/>
      <point x="151" y="342"/>
      <point x="128" y="362"/>
      <point x="128" y="397" type="curve" smooth="yes"/>
      <point x="128" y="431"/>
      <point x="151" y="451"/>
      <point x="182" y="451" type="curve" smooth="yes"/>
      <point x="213" y="451"/>
      <point x="237" y="432"/>
      <point x="237" y="397" type="curve" smooth="yes"/>
      <point x="237" y="362"/>
      <point x="213" y="342"/>
    </contour>
    <contour>
      <point x="541" y="-9" type="curve" smooth="yes"/>
      <point x="622" y="-9"/>
      <point x="689" y="52"/>
      <point x="689" y="132" type="curve" smooth="yes"/>
      <point x="689" y="215"/>
      <point x="627" y="273"/>
      <point x="541" y="273" type="curve" smooth="yes"/>
      <point x="460" y="273"/>
      <point x="392" y="211"/>
      <point x="392" y="132" type="curve" smooth="yes"/>
      <point x="392" y="49"/>
      <point x="453" y="-9"/>
    </contour>
    <contour>
      <point x="541" y="78" type="curve" smooth="yes"/>
      <point x="510" y="78"/>
      <point x="487" y="98"/>
      <point x="487" y="133" type="curve" smooth="yes"/>
      <point x="487" y="167"/>
      <point x="510" y="187"/>
      <point x="541" y="187" type="curve" smooth="yes"/>
      <point x="572" y="187"/>
      <point x="596" y="168"/>
      <point x="596" y="133" type="curve" smooth="yes"/>
      <point x="596" y="98"/>
      <point x="572" y="78"/>
    </contour>
  </outline>
</glyph>
<glyph name="ampersand" format="1">
  <advance width="642"/>
  <unicode hex="0026"/>
  <outline>
    <contour>
      <point x="214" y="-9" type="curve" smooth="yes"/>
      <point x="367" y="-9"/>
      <point x="492" y="67"/>
      <point x="563" y="226" type="curve"/>
      <point x="573" y="229"/>
      <point x="593" y="231"/>
      <point x="617" y="234" type="curve"/>
      <point x="615" y="280" type="line"/>
      <point x="591" y="279"/>
      <point x="544" y="279"/>
      <point x="519" y="279" type="curve" smooth="yes"/>
      <point x="496" y="279"/>
      <point x="446" y="279"/>
      <point x="419" y="279" type="curve"/>
      <point x="417" y="232" type="line"/>
      <point x="429" y="232"/>
      <point x="457" y="230"/>
      <point x="471" y="226" type="curve"/>
      <point x="440" y="141"/>
      <point x="368" y="78"/>
      <point x="261" y="78" type="curve" smooth="yes"/>
      <point x="184" y="78"/>
      <point x="161" y="114"/>
      <point x="161" y="148" type="curve" smooth="yes"/>
      <point x="161" y="186"/>
      <point x="190" y="226"/>
      <point x="268" y="254" type="curve"/>
      <point x="358" y="278"/>
      <point x="419" y="340"/>
      <point x="419" y="411" type="curve" smooth="yes"/>
      <point x="419" y="487"/>
      <point x="371" y="534"/>
      <point x="281" y="534" type="curve" smooth="yes"/>
      <point x="185" y="534"/>
      <point x="109" y="470"/>
      <point x="109" y="367" type="curve" smooth="yes"/>
      <point x="109" y="353"/>
      <point x="108" y="311"/>
      <point x="205" y="176" type="curve" smooth="yes"/>
      <point x="292" y="59"/>
      <point x="367" y="-9"/>
      <point x="501" y="-9" type="curve" smooth="yes"/>
      <point x="571" y="-9"/>
      <point x="634" y="24"/>
      <point x="668" y="82" type="curve"/>
      <point x="636" y="119" type="line"/>
      <point x="612" y="97"/>
      <point x="577" y="85"/>
      <point x="552" y="85" type="curve" smooth="yes"/>
      <point x="465" y="85"/>
      <point x="422" y="137"/>
      <point x="358" y="206" type="curve" smooth="yes"/>
      <point x="244" y="353"/>
      <point x="232" y="396"/>
      <point x="232" y="428" type="curve" smooth="yes"/>
      <point x="232" y="457"/>
      <point x="249" y="475"/>
      <point x="272" y="475" type="curve" smooth="yes"/>
      <point x="294" y="475"/>
      <point x="309" y="461"/>
      <point x="309" y="430" type="curve" smooth="yes"/>
      <point x="309" y="364"/>
      <point x="296" y="340"/>
      <point x="206" y="282" type="curve"/>
      <point x="106" y="273"/>
      <point x="18" y="220"/>
      <point x="18" y="131" type="curve" smooth="yes"/>
      <point x="18" y="49"/>
      <point x="89" y="-9"/>
    </contour>
  </outline>
</glyph>
<glyph name="parenleft" format="1">
  <advance width="329"/>
  <unicode hex="0028"/>
  <outline>
    <contour>
      <point x="290" y="583" type="line"/>
      <point x="146" y="489"/>
      <point x="70" y="359"/>
      <point x="70" y="200" type="curve" smooth="yes"/>
      <point x="70" y="44"/>
      <point x="146" y="-86"/>
      <point x="290" y="-183" type="curve"/>
      <point x="329" y="-152" type="line"/>
      <point x="256" y="-81"/>
      <point x="213" y="47"/>
      <point x="213" y="200" type="curve" smooth="yes"/>
      <point x="213" y="353"/>
      <point x="256" y="481"/>
      <point x="329" y="552" type="curve"/>
    </contour>
  </outline>
</glyph>
<glyph name="asterisk" format="1">
  <advance width="436"/>
  <unicode hex="002A"/>
  <outline>
    <contour>
      <point x="403" y="414" type="curve" smooth="yes"/>
      <point x="391" y="450"/>
      <point x="368" y="470"/>
      <point x="329" y="457" type="curve" smooth="yes"/>
      <point x="307" y="449"/>
      <point x="277" y="421"/>
      <point x="249" y="399" type="curve"/>
      <point x="260" y="435"/>
      <point x="278" y="474"/>
      <point x="278" y="496" type="curve" smooth="yes"/>
      <point x="278" y="541"/>
      <point x="252" y="558"/>
      <point x="218" y="558" type="curve" smooth="yes"/>
      <point x="184" y="558"/>
      <point x="158" y="541"/>
      <point x="158" y="496" type="curve" smooth="yes"/>
      <point x="158" y="474"/>
      <point x="176" y="435"/>
      <point x="187" y="399" type="curve"/>
      <point x="159" y="422"/>
      <point x="129" y="451"/>
      <point x="107" y="457" type="curve" smooth="yes"/>
      <point x="68" y="468"/>
      <point x="43" y="450"/>
      <point x="33" y="414" type="curve" smooth="yes"/>
      <point x="24" y="379"/>
      <point x="30" y="346"/>
      <point x="69" y="333" type="curve" smooth="yes"/>
      <point x="92" y="327"/>
      <point x="129" y="332"/>
      <point x="165" y="332" type="curve"/>
      <point x="136" y="311"/>
      <point x="101" y="292"/>
      <point x="86" y="273" type="curve" smooth="yes"/>
      <point x="62" y="237"/>
      <point x="73" y="207"/>
      <point x="100" y="185" type="curve" smooth="yes"/>
      <point x="128" y="163"/>
      <point x="159" y="161"/>
      <point x="183" y="198" type="curve" smooth="yes"/>
      <point x="196" y="216"/>
      <point x="205" y="261"/>
      <point x="218" y="298" type="curve"/>
      <point x="231" y="261"/>
      <point x="239" y="216"/>
      <point x="253" y="198" type="curve" smooth="yes"/>
      <point x="278" y="161"/>
      <point x="308" y="164"/>
      <point x="336" y="185" type="curve" smooth="yes"/>
      <point x="363" y="206"/>
      <point x="374" y="237"/>
      <point x="350" y="273" type="curve" smooth="yes"/>
      <point x="335" y="292"/>
      <point x="300" y="311"/>
      <point x="271" y="332" type="curve"/>
      <point x="307" y="332"/>
      <point x="344" y="326"/>
      <point x="366" y="333" type="curve" smooth="yes"/>
      <point x="406" y="347"/>
      <point x="414" y="379"/>
    </contour>
  </outline>
</glyph>
<glyph name="period" format="1">
  <advance width="258"/>
  <unicode hex="002E"/>
  <outline>
    <contour>
      <point x="129" y="-8" type="curve" smooth="yes"/>
      <point x="180" y="-8"/>
      <point x="221" y="34"/>
      <point x="221" y="88" type="curve" smooth="yes"/>
      <point x="221" y="144"/>
      <point x="180" y="189"/>
      <point x="129" y="189" type="curve" smooth="yes"/>
      <point x="79" y="189"/>
      <point x="37" y="144"/>
      <point x="37" y="88" type="curve" smooth="yes"/>
      <point x="37" y="34"/>
      <point x="79" y="-8"/>
    </contour>
  </outline>
</glyph>
<glyph name="slash" format="1">
  <advance width="361"/>
  <unicode hex="002F"/>
  <outline>
    <contour>
      <point x="29" y="-144" type="line"/>
      <point x="123" y="-144" type="line"/>
      <point x="364" y="582" type="line"/>
      <point x="270" y="582" type="line"/>
    </contour>
  </outline>
</glyph>
<glyph name="one" format="1">
  <advance width="316"/>
  <unicode hex="0031"/>
  <outline>
    <contour>
      <point x="236" y="207" type="curve" smooth="yes"/>
      <point x="236" y="300" type="line" smooth="yes"/>
      <point x="236" y="362"/>
      <point x="236" y="463"/>
      <point x="244" y="541" type="curve"/>
      <point x="2" y="447" type="line"/>
      <point x="5" y="386" type="line"/>
      <point x="33" y="395"/>
      <point x="80" y="403"/>
      <point x="93" y="404" type="curve"/>
      <point x="96" y="381"/>
      <point x="98" y="313"/>
      <point x="98" y="276" type="curve" smooth="yes"/>
      <point x="98" y="207" type="line" smooth="yes"/>
      <point x="98" y="140"/>
      <point x="95" y="73"/>
      <point x="92" y="66" type="curve"/>
      <point x="77" y="57"/>
      <point x="46" y="52"/>
      <point x="15" y="50" type="curve"/>
      <point x="19" y="-5" type="line"/>
      <point x="55" y="-2"/>
      <point x="113" y="2"/>
      <point x="167" y="2" type="curve" smooth="yes"/>
      <point x="221" y="2"/>
      <point x="280" y="-2"/>
      <point x="316" y="-5" type="curve"/>
      <point x="319" y="50" type="line"/>
      <point x="288" y="52"/>
      <point x="257" y="57"/>
      <point x="242" y="66" type="curve"/>
      <point x="239" y="73"/>
      <point x="236" y="140"/>
    </contour>
  </outline>
</glyph>
<glyph name="three" format="1">
  <advance width="408"/>
  <unicode hex="0033"/>
  <outline>
    <contour>
      <point x="179" y="269" type="line"/>
      <point x="276" y="291"/>
      <point x="347" y="337"/>
      <point x="347" y="415" type="curve" smooth="yes"/>
      <point x="347" y="481"/>
      <point x="289" y="536"/>
      <point x="191" y="536" type="curve" smooth="yes"/>
      <point x="109" y="536"/>
      <point x="38" y="489"/>
      <point x="3" y="418" type="curve"/>
      <point x="47" y="386" type="line"/>
      <point x="66" y="416"/>
      <point x="103" y="436"/>
      <point x="142" y="436" type="curve" smooth="yes"/>
      <point x="183" y="436"/>
      <point x="209" y="414"/>
      <point x="209" y="378" type="curve" smooth="yes"/>
      <point x="209" y="333"/>
      <point x="162" y="295"/>
      <point x="91" y="288" type="curve"/>
      <point x="98" y="228" type="line"/>
      <point x="109" y="230"/>
      <point x="122" y="231"/>
      <point x="138" y="231" type="curve" smooth="yes"/>
      <point x="201" y="231"/>
      <point x="241" y="198"/>
      <point x="241" y="143" type="curve" smooth="yes"/>
      <point x="241" y="82"/>
      <point x="199" y="44"/>
      <point x="150" y="59" type="curve"/>
      <point x="173" y="44" type="line"/>
      <point x="108" y="102" type="line" smooth="yes"/>
      <point x="87" y="122"/>
      <point x="72" y="130"/>
      <point x="49" y="130" type="curve" smooth="yes"/>
      <point x="19" y="130"/>
      <point x="-1" y="107"/>
      <point x="-1" y="78" type="curve" smooth="yes"/>
      <point x="-1" y="29"/>
      <point x="61" y="-8"/>
      <point x="145" y="-8" type="curve" smooth="yes"/>
      <point x="294" y="-8"/>
      <point x="380" y="78"/>
      <point x="380" y="158" type="curve" smooth="yes"/>
      <point x="380" y="238"/>
      <point x="315" y="289"/>
      <point x="203" y="290" type="curve"/>
    </contour>
  </outline>
</glyph>
<glyph name="five" format="1">
  <advance width="408"/>
  <unicode hex="0035"/>
  <outline>
    <contour>
      <point x="145" y="-8" type="curve" smooth="yes"/>
      <point x="294" y="-8"/>
      <point x="380" y="72"/>
      <point x="380" y="171" type="curve" smooth="yes"/>
      <point x="380" y="247"/>
      <point x="317" y="305"/>
      <point x="213" y="325" type="curve" smooth="yes"/>
      <point x="175" y="333"/>
      <point x="138" y="336"/>
      <point x="102" y="340" type="curve"/>
      <point x="128" y="309" type="line"/>
      <point x="149" y="416" type="line"/>
      <point x="347" y="416" type="line"/>
      <point x="347" y="528" type="line"/>
      <point x="103" y="528" type="line"/>
      <point x="53" y="226" type="line"/>
      <point x="87" y="223"/>
      <point x="114" y="222"/>
      <point x="136" y="217" type="curve" smooth="yes"/>
      <point x="209" y="202"/>
      <point x="241" y="179"/>
      <point x="241" y="138" type="curve" smooth="yes"/>
      <point x="241" y="82"/>
      <point x="199" y="44"/>
      <point x="150" y="59" type="curve"/>
      <point x="173" y="44" type="line"/>
      <point x="108" y="102" type="line" smooth="yes"/>
      <point x="83" y="124"/>
      <point x="69" y="130"/>
      <point x="49" y="130" type="curve" smooth="yes"/>
      <point x="19" y="130"/>
      <point x="-1" y="107"/>
      <point x="-1" y="78" type="curve" smooth="yes"/>
      <point x="-1" y="29"/>
      <point x="61" y="-8"/>
    </contour>
  </outline>
</glyph>
<glyph name="six" format="1">
  <advance width="480"/>
  <unicode hex="0036"/>
  <outline>
    <contour>
      <point x="155" y="230" type="curve"/>
      <point x="153" y="179" type="line"/>
      <point x="167" y="211"/>
      <point x="205" y="239"/>
      <point x="244" y="239" type="curve" smooth="yes"/>
      <point x="290" y="239"/>
      <point x="318" y="202"/>
      <point x="318" y="136" type="curve" smooth="yes"/>
      <point x="318" y="91"/>
      <point x="290" y="53"/>
      <point x="256" y="53" type="curve" smooth="yes"/>
      <point x="213" y="53"/>
      <point x="177" y="118"/>
      <point x="177" y="193" type="curve" smooth="yes"/>
      <point x="177" y="353"/>
      <point x="248" y="436"/>
      <point x="417" y="482" type="curve"/>
      <point x="400" y="544" type="line"/>
      <point x="170" y="519"/>
      <point x="37" y="362"/>
      <point x="37" y="212" type="curve" smooth="yes"/>
      <point x="37" y="81"/>
      <point x="123" y="-8"/>
      <point x="246" y="-8" type="curve" smooth="yes"/>
      <point x="363" y="-8"/>
      <point x="450" y="73"/>
      <point x="450" y="179" type="curve" smooth="yes"/>
      <point x="450" y="269"/>
      <point x="382" y="336"/>
      <point x="288" y="336" type="curve" smooth="yes"/>
      <point x="238" y="336"/>
      <point x="186" y="295"/>
    </contour>
  </outline>
</glyph>
<glyph name="colon" format="1">
  <advance width="258"/>
  <unicode hex="003A"/>
  <outline>
    <contour>
      <point x="129" y="-8" type="curve" smooth="yes"/>
      <point x="180" y="-8"/>
      <point x="221" y="34"/>
      <point x="221" y="88" type="curve" smooth="yes"/>
      <point x="221" y="144"/>
      <point x="180" y="189"/>
      <point x="129" y="189" type="curve" smooth="yes"/>
      <point x="79" y="189"/>
      <point x="37" y="144"/>
      <point x="37" y="88" type="curve" smooth="yes"/>
      <point x="37" y="34"/>
      <point x="79" y="-8"/>
    </contour>
    <contour>
      <point x="129" y="170" type="curve" smooth="yes"/>
      <point x="180" y="170"/>
      <point x="221" y="212"/>
      <point x="221" y="266" type="curve" smooth="yes"/>
      <point x="221" y="322"/>
      <point x="180" y="367"/>
      <point x="129" y="367" type="curve" smooth="yes"/>
      <point x="79" y="367"/>
      <point x="37" y="322"/>
      <point x="37" y="266" type="curve" smooth="yes"/>
      <point x="37" y="212"/>
      <point x="79" y="170"/>
    </contour>
  </outline>
</glyph>
<glyph name="less" format="1">
  <advance width="480"/>
  <unicode hex="003C"/>
  <outline>
    <contour>
      <point x="45" y="182" type="line"/>
      <point x="435" y="26" type="line"/>
      <point x="435" y="121" type="line"/>
      <point x="76" y="260" type="line"/>
      <point x="76" y="197" type="line"/>
      <point x="435" y="339" type="line"/>
      <point x="435" y="434" type="line"/>
      <point x="45" y="279" type="line"/>
    </contour>
  </outline>
</glyph>
<glyph name="equal" format="1">
  <advance width="480"/>
  <unicode hex="003D"/>
  <outline>
    <contour>
      <point x="435" y="354" type="line"/>
      <point x="45" y="354" type="line"/>
      <point x="45" y="266" type="line"/>
      <point x="435" y="266" type="line"/>
    </contour>
    <contour>
      <point x="435" y="194" type="line"/>
      <point x="45" y="194" type="line"/>
      <point x="45" y="106" type="line"/>
      <point x="435" y="106" type="line"/>
    </contour>
  </outline>
</glyph>
<glyph name="greater" format="1">
  <advance width="480"/>
  <unicode hex="003E"/>
  <outline>
    <contour>
      <point x="435" y="182" type="line"/>
      <point x="435" y="279" type="line"/>
      <point x="45" y="434" type="line"/>
      <point x="45" y="339" type="line"/>
      <point x="404" y="197" type="line"/>
      <point x="404" y="260" type="line"/>
      <point x="45" y="121" type="line"/>
      <point x="45" y="26" type="line"/>
    </contour>
  </outline>
</glyph>
<glyph name="A" format="1">
  <advance width="549"/>
  <unicode hex="0041"/>
  <outline>
    <contour>
      <point x="-6" y="-2" type="line"/>
      <point x="22" y="0"/>
      <point x="60" y="-1"/>
      <point x="86" y="-1" type="curve" smooth="yes"/>
      <point x="112" y="-1"/>
      <point x="150" y="0"/>
      <point x="175" y="-2" type="curve"/>
      <point x="178" y="51" type="line"/>
      <point x="155" y="55"/>
      <point x="130" y="58"/>
      <point x="118" y="61" type="curve"/>
      <point x="160" y="182" type="line"/>
      <point x="170" y="209" type="line"/>
      <point x="238" y="386" type="line"/>
      <point x="209" y="402" type="line"/>
      <point x="296" y="205" type="line"/>
      <point x="306" y="172" type="line"/>
      <point x="354" y="59" type="line"/>
      <point x="333" y="55"/>
      <point x="318" y="55"/>
      <point x="295" y="51" type="curve"/>
      <point x="298" y="-2" type="line"/>
      <point x="324" y="0"/>
      <point x="394" y="2"/>
      <point x="429" y="2" type="curve" smooth="yes"/>
      <point x="463" y="2"/>
      <point x="532" y="0"/>
      <point x="560" y="-2" type="curve"/>
      <point x="563" y="51" type="line"/>
      <point x="545" y="56"/>
      <point x="526" y="56"/>
      <point x="516" y="59" type="curve"/>
      <point x="303" y="544" type="line"/>
      <point x="221" y="496" type="line"/>
      <point x="37" y="61" type="line"/>
      <point x="29" y="57"/>
      <point x="18" y="55"/>
      <point x="-9" y="51" type="curve"/>
    </contour>
    <contour>
      <point x="143" y="146" type="line"/>
      <point x="164" y="147"/>
      <point x="189" y="150"/>
      <point x="233" y="150" type="curve" smooth="yes"/>
      <point x="276" y="150"/>
      <point x="303" y="147"/>
      <point x="323" y="147" type="curve"/>
      <point x="323" y="214" type="line"/>
      <point x="301" y="213"/>
      <point x="276" y="210"/>
      <point x="233" y="210" type="curve" smooth="yes"/>
      <point x="189" y="210"/>
      <point x="166" y="213"/>
      <point x="143" y="214" type="curve"/>
    </contour>
    <contour>
      <point x="237" y="0" type="move" name="bottom"/>
    </contour>
    <contour>
      <point x="515" y="0" type="move" name="ogonek"/>
    </contour>
    <contour>
      <point x="262" y="528" type="move" name="top"/>
    </contour>
  </outline>
</glyph>
<glyph name="B" format="1">
  <advance width="547"/>
  <unicode hex="0042"/>
  <outline>
    <contour>
      <point x="75" y="66" type="curve"/>
      <point x="65" y="57"/>
      <point x="41" y="54"/>
      <point x="17" y="50" type="curve"/>
      <point x="20" y="-5" type="line"/>
      <point x="54" y="-1"/>
      <point x="139" y="2"/>
      <point x="183" y="2" type="curve" smooth="yes"/>
      <point x="209" y="2"/>
      <point x="242" y="-2"/>
      <point x="270" y="-2" type="curve" smooth="yes"/>
      <point x="423" y="-2"/>
      <point x="511" y="61"/>
      <point x="511" y="159" type="curve" smooth="yes"/>
      <point x="511" y="227"/>
      <point x="472" y="280"/>
      <point x="334" y="289" type="curve"/>
      <point x="323" y="281" type="line"/>
      <point x="429" y="287"/>
      <point x="483" y="342"/>
      <point x="483" y="402" type="curve" smooth="yes"/>
      <point x="483" y="485"/>
      <point x="428" y="531"/>
      <point x="293" y="531" type="curve" smooth="yes"/>
      <point x="238" y="531"/>
      <point x="187" y="529"/>
      <point x="158" y="529" type="curve" smooth="yes"/>
      <point x="117" y="529"/>
      <point x="72" y="527"/>
      <point x="20" y="530" type="curve"/>
      <point x="17" y="474" type="line"/>
      <point x="41" y="474"/>
      <point x="65" y="470"/>
      <point x="75" y="460" type="curve"/>
      <point x="79" y="453"/>
      <point x="82" y="388"/>
      <point x="82" y="321" type="curve" smooth="yes"/>
      <point x="82" y="207" type="line" smooth="yes"/>
      <point x="82" y="140"/>
      <point x="79" y="74"/>
    </contour>
    <contour>
      <point x="220" y="159" type="curve" smooth="yes"/>
      <point x="220" y="366" type="line" smooth="yes"/>
      <point x="220" y="431"/>
      <point x="222" y="466"/>
      <point x="223" y="473" type="curve"/>
      <point x="229" y="474"/>
      <point x="243" y="477"/>
      <point x="257" y="477" type="curve" smooth="yes"/>
      <point x="299" y="477"/>
      <point x="337" y="448"/>
      <point x="337" y="389" type="curve" smooth="yes"/>
      <point x="337" y="332"/>
      <point x="308" y="300"/>
      <point x="257" y="300" type="curve" smooth="yes"/>
      <point x="241" y="300"/>
      <point x="230" y="300"/>
      <point x="213" y="300" type="curve"/>
      <point x="213" y="235" type="line"/>
      <point x="230" y="237"/>
      <point x="241" y="237"/>
      <point x="251" y="237" type="curve" smooth="yes"/>
      <point x="333" y="237"/>
      <point x="364" y="205"/>
      <point x="364" y="151" type="curve" smooth="yes"/>
      <point x="364" y="88"/>
      <point x="329" y="58"/>
      <point x="274" y="58" type="curve" smooth="yes"/>
      <point x="250" y="58"/>
      <point x="231" y="63"/>
      <point x="223" y="66" type="curve"/>
      <point x="222" y="74"/>
      <point x="220" y="98"/>
    </contour>
    <contour>
      <point x="273" y="0" type="move" name="bottom"/>
    </contour>
    <contour>
      <point x="273" y="528" type="move" name="top"/>
    </contour>
  </outline>
</glyph>
<glyph name="D" format="1">
  <advance width="628"/>
  <unicode hex="0044"/>
  <outline>
    <contour>
      <point x="19" y="530" type="curve"/>
      <point x="16" y="474" type="line"/>
      <point x="40" y="472"/>
      <point x="64" y="470"/>
      <point x="75" y="460" type="curve"/>
      <point x="78" y="453"/>
      <point x="81" y="388"/>
      <point x="81" y="321" type="curve" smooth="yes"/>
      <point x="81" y="207" type="line" smooth="yes"/>
      <point x="81" y="140"/>
      <point x="78" y="74"/>
      <point x="75" y="66" type="curve"/>
      <point x="64" y="57"/>
      <point x="40" y="54"/>
      <point x="16" y="50" type="curve"/>
      <point x="19" y="-5" type="line"/>
      <point x="54" y="-1"/>
      <point x="107" y="2"/>
      <point x="187" y="2" type="curve" smooth="yes"/>
      <point x="226" y="2"/>
      <point x="257" y="-1"/>
      <point x="298" y="-1" type="curve" smooth="yes"/>
      <point x="443" y="-1"/>
      <point x="588" y="96"/>
      <point x="588" y="276" type="curve" smooth="yes"/>
      <point x="588" y="434"/>
      <point x="469" y="529"/>
      <point x="290" y="529" type="curve" smooth="yes"/>
      <point x="248" y="529"/>
      <point x="188" y="528"/>
      <point x="146" y="528" type="curve" smooth="yes"/>
      <point x="104" y="528"/>
      <point x="46" y="527"/>
    </contour>
    <contour>
      <point x="223" y="462" type="curve"/>
      <point x="235" y="464"/>
      <point x="249" y="467"/>
      <point x="276" y="467" type="curve" smooth="yes"/>
      <point x="347" y="467"/>
      <point x="437" y="404"/>
      <point x="437" y="230" type="curve" smooth="yes"/>
      <point x="437" y="109"/>
      <point x="388" y="67"/>
      <point x="302" y="67" type="curve" smooth="yes"/>
      <point x="284" y="67"/>
      <point x="245" y="72"/>
      <point x="224" y="75" type="curve"/>
      <point x="223" y="82"/>
      <point x="218" y="140"/>
      <point x="218" y="207" type="curve" smooth="yes"/>
      <point x="218" y="321" type="line" smooth="yes"/>
      <point x="218" y="398"/>
      <point x="222" y="453"/>
    </contour>
    <contour>
      <point x="314" y="0" type="move" name="bottom"/>
    </contour>
    <contour>
      <point x="314" y="264" type="move" name="center"/>
    </contour>
    <contour>
      <point x="185" y="264" type="move" name="stroke"/>
    </contour>
    <contour>
      <point x="314" y="528" type="move" name="top"/>
    </contour>
  </outline>
</glyph>
<glyph name="F" format="1">
  <advance width="454"/>
  <unicode hex="0046"/>
  <outline>
    <contour>
      <point x="24" y="-5" type="line"/>
      <point x="48" y="-2"/>
      <point x="114" y="-1"/>
      <point x="157" y="-1" type="curve" smooth="yes"/>
      <point x="199" y="-1"/>
      <point x="267" y="-2"/>
      <point x="294" y="-5" type="curve"/>
      <point x="296" y="51" type="line"/>
      <point x="274" y="54"/>
      <point x="254" y="56"/>
      <point x="223" y="66" type="curve"/>
      <point x="220" y="73"/>
      <point x="217" y="140"/>
      <point x="217" y="146" type="curve" smooth="yes"/>
      <point x="217" y="353" type="line" smooth="yes"/>
      <point x="217" y="422"/>
      <point x="216" y="452"/>
      <point x="217" y="468" type="curve"/>
      <point x="229" y="473"/>
      <point x="250" y="474"/>
      <point x="272" y="474" type="curve" smooth="yes"/>
      <point x="314" y="474" type="line" smooth="yes"/>
      <point x="329" y="474"/>
      <point x="339" y="473"/>
      <point x="357" y="470" type="curve"/>
      <point x="370" y="444"/>
      <point x="376" y="422"/>
      <point x="392" y="385" type="curve"/>
      <point x="448" y="392" type="line"/>
      <point x="421" y="533" type="line"/>
      <point x="390" y="532"/>
      <point x="309" y="528"/>
      <point x="269" y="528" type="curve" smooth="yes"/>
      <point x="150" y="528" type="line" smooth="yes"/>
      <point x="108" y="528"/>
      <point x="47" y="530"/>
      <point x="20" y="532" type="curve"/>
      <point x="17" y="477" type="line"/>
      <point x="41" y="476"/>
      <point x="65" y="472"/>
      <point x="75" y="462" type="curve"/>
      <point x="79" y="455"/>
      <point x="82" y="388"/>
      <point x="82" y="321" type="curve" smooth="yes"/>
      <point x="82" y="207" type="line" smooth="yes"/>
      <point x="82" y="140"/>
      <point x="79" y="73"/>
      <point x="75" y="66" type="curve"/>
      <point x="65" y="57"/>
      <point x="42" y="54"/>
      <point x="21" y="50" type="curve"/>
    </contour>
    <contour>
      <point x="331" y="168" type="curve"/>
      <point x="384" y="168" type="line"/>
      <point x="384" y="200"/>
      <point x="382" y="235"/>
      <point x="382" y="266" type="curve" smooth="yes"/>
      <point x="382" y="296"/>
      <point x="384" y="326"/>
      <point x="384" y="356" type="curve"/>
      <point x="331" y="356" type="line"/>
      <point x="328" y="337"/>
      <point x="323" y="303"/>
      <point x="321" y="298" type="curve"/>
      <point x="313" y="299"/>
      <point x="293" y="296"/>
      <point x="267" y="296" type="curve" smooth="yes"/>
      <point x="234" y="296" type="line" smooth="yes"/>
      <point x="211" y="296"/>
      <point x="192" y="299"/>
      <point x="179" y="300" type="curve"/>
      <point x="179" y="231" type="line"/>
      <point x="192" y="232"/>
      <point x="211" y="234"/>
      <point x="234" y="234" type="curve" smooth="yes"/>
      <point x="267" y="234" type="line" smooth="yes"/>
      <point x="293" y="234"/>
      <point x="313" y="232"/>
      <point x="321" y="232" type="curve"/>
      <point x="323" y="228"/>
      <point x="328" y="188"/>
    </contour>
    <contour>
      <point x="149" y="0" type="move" name="bottom"/>
    </contour>
    <contour>
      <point x="227" y="528" type="move" name="top"/>
    </contour>
  </outline>
</glyph>
<glyph name="J" format="1">
  <advance width="299"/>
  <unicode hex="004A"/>
  <outline>
    <contour>
      <point x="226" y="458" type="curve"/>
      <point x="236" y="467"/>
      <point x="262" y="471"/>
      <point x="286" y="472" type="curve"/>
      <point x="283" y="531" type="line"/>
      <point x="255" y="530"/>
      <point x="206" y="529"/>
      <point x="151" y="529" type="curve" smooth="yes"/>
      <point x="97" y="529"/>
      <point x="48" y="530"/>
      <point x="22" y="531" type="curve"/>
      <point x="19" y="472" type="line"/>
      <point x="42" y="471"/>
      <point x="65" y="467"/>
      <point x="76" y="458" type="curve"/>
      <point x="79" y="451"/>
      <point x="82" y="388"/>
      <point x="82" y="323" type="curve" smooth="yes"/>
      <point x="84" y="-16" type="line"/>
      <point x="84" y="-124"/>
      <point x="76" y="-133"/>
      <point x="38" y="-127" type="curve"/>
      <point x="94" y="-148" type="line"/>
      <point x="24" y="-82" type="line" smooth="yes"/>
      <point x="-5" y="-55"/>
      <point x="-22" y="-48"/>
      <point x="-43" y="-48" type="curve" smooth="yes"/>
      <point x="-69" y="-48"/>
      <point x="-91" y="-66"/>
      <point x="-91" y="-99" type="curve" smooth="yes"/>
      <point x="-91" y="-151"/>
      <point x="-32" y="-182"/>
      <point x="56" y="-182" type="curve" smooth="yes"/>
      <point x="141" y="-182"/>
      <point x="221" y="-120"/>
      <point x="221" y="-2" type="curve"/>
      <point x="219" y="321" type="line"/>
      <point x="219" y="388"/>
      <point x="222" y="451"/>
    </contour>
    <contour>
      <point x="151" y="528" type="move" name="top"/>
    </contour>
  </outline>
</glyph>
<glyph name="N" format="1">
  <advance width="608"/>
  <unicode hex="004E"/>
  <outline>
    <contour>
      <point x="458" y="183" type="line"/>
      <point x="501" y="183" type="line"/>
      <point x="170" y="529" type="line"/>
      <point x="155" y="528"/>
      <point x="119" y="528"/>
      <point x="99" y="528" type="curve" smooth="yes"/>
      <point x="79" y="528"/>
      <point x="48" y="529"/>
      <point x="20" y="532" type="curve"/>
      <point x="17" y="478" type="line"/>
      <point x="40" y="476"/>
      <point x="64" y="472"/>
      <point x="75" y="462" type="curve"/>
      <point x="78" y="463"/>
      <point x="82" y="388"/>
      <point x="82" y="354" type="curve" smooth="yes"/>
      <point x="82" y="251" type="line" smooth="yes"/>
      <point x="82" y="126"/>
      <point x="78" y="73"/>
      <point x="75" y="66" type="curve"/>
      <point x="64" y="57"/>
      <point x="39" y="54"/>
      <point x="13" y="50" type="curve"/>
      <point x="16" y="-5" type="line"/>
      <point x="45" y="-2"/>
      <point x="90" y="2"/>
      <point x="116" y="2" type="curve" smooth="yes"/>
      <point x="142" y="2"/>
      <point x="194" y="-2"/>
      <point x="223" y="-5" type="curve"/>
      <point x="226" y="50" type="line"/>
      <point x="200" y="54"/>
      <point x="174" y="57"/>
      <point x="164" y="66" type="curve"/>
      <point x="160" y="73"/>
      <point x="154" y="126"/>
      <point x="156" y="251" type="curve" smooth="yes"/>
      <point x="157" y="402" type="line"/>
      <point x="99" y="402" type="line"/>
      <point x="469" y="-5" type="line"/>
      <point x="528" y="-5" type="line"/>
      <point x="528" y="37"/>
      <point x="528" y="77"/>
      <point x="528" y="140" type="curve" smooth="yes"/>
      <point x="528" y="292" type="line" smooth="yes"/>
      <point x="528" y="402"/>
      <point x="531" y="455"/>
      <point x="534" y="462" type="curve"/>
      <point x="545" y="471"/>
      <point x="571" y="474"/>
      <point x="596" y="477" type="curve"/>
      <point x="593" y="532" type="line"/>
      <point x="564" y="529"/>
      <point x="527" y="528"/>
      <point x="498" y="528" type="curve" smooth="yes"/>
      <point x="470" y="528"/>
      <point x="421" y="529"/>
      <point x="392" y="532" type="curve"/>
      <point x="389" y="477" type="line"/>
      <point x="415" y="474"/>
      <point x="440" y="471"/>
      <point x="451" y="462" type="curve"/>
      <point x="454" y="455"/>
      <point x="458" y="402"/>
      <point x="458" y="292" type="curve" smooth="yes"/>
    </contour>
    <contour>
      <point x="304" y="0" type="move" name="bottom"/>
    </contour>
    <contour>
      <point x="304" y="528" type="move" name="top"/>
    </contour>
  </outline>
</glyph>
<glyph name="Q" format="1">
  <advance width="646"/>
  <unicode hex="0051"/>
  <outline>
    <contour>
      <point x="330" y="-6" type="curve"/>
      <point x="333" y="-3" type="line"/>
      <point x="454" y="-3"/>
      <point x="607" y="76"/>
      <point x="607" y="273" type="curve" smooth="yes"/>
      <point x="607" y="429"/>
      <point x="492" y="536"/>
      <point x="329" y="536" type="curve" smooth="yes"/>
      <point x="162" y="536"/>
      <point x="39" y="418"/>
      <point x="39" y="255" type="curve" smooth="yes"/>
      <point x="39" y="101"/>
      <point x="162" y="-6"/>
    </contour>
    <contour>
      <point x="553" y="-138" type="curve" smooth="yes"/>
      <point x="608" y="-138"/>
      <point x="655" y="-121"/>
      <point x="687" y="-99" type="curve"/>
      <point x="673" y="-45" type="line"/>
      <point x="649" y="-52"/>
      <point x="628" y="-53"/>
      <point x="613" y="-53" type="curve" smooth="yes"/>
      <point x="578" y="-53"/>
      <point x="559" y="-46"/>
      <point x="514" y="-17" type="curve" smooth="yes"/>
      <point x="480" y="4"/>
      <point x="434" y="15"/>
      <point x="390" y="15" type="curve"/>
      <point x="227" y="15" type="line"/>
      <point x="256" y="-1"/>
      <point x="276" y="-12"/>
      <point x="290" y="-21" type="curve" smooth="yes"/>
      <point x="298" y="-28"/>
      <point x="312" y="-40"/>
      <point x="324" y="-51" type="curve" smooth="yes"/>
      <point x="378" y="-95"/>
      <point x="440" y="-138"/>
    </contour>
    <contour>
      <point x="335" y="67" type="curve" smooth="yes"/>
      <point x="255" y="67"/>
      <point x="198" y="156"/>
      <point x="198" y="286" type="curve" smooth="yes"/>
      <point x="198" y="397"/>
      <point x="241" y="470"/>
      <point x="318" y="470" type="curve" smooth="yes"/>
      <point x="399" y="470"/>
      <point x="449" y="382"/>
      <point x="449" y="249" type="curve" smooth="yes"/>
      <point x="449" y="128"/>
      <point x="412" y="67"/>
    </contour>
    <contour>
      <point x="323" y="0" type="move" name="bottom"/>
    </contour>
    <contour>
      <point x="323" y="528" type="move" name="top"/>
    </contour>
  </outline>
</glyph>
<glyph name="T" format="1">
  <advance width="549"/>
  <unicode hex="0054"/>
  <outline>
    <contour>
      <point x="521" y="533" type="curve"/>
      <point x="496" y="532"/>
      <point x="416" y="528"/>
      <point x="382" y="528" type="curve" smooth="yes"/>
      <point x="164" y="528" type="line" smooth="yes"/>
      <point x="130" y="528"/>
      <point x="50" y="532"/>
      <point x="25" y="533" type="curve"/>
      <point x="19" y="478"/>
      <point x="13" y="421"/>
      <point x="7" y="365" type="curve"/>
      <point x="67" y="360" type="line"/>
      <point x="76" y="397"/>
      <point x="87" y="434"/>
      <point x="100" y="466" type="curve"/>
      <point x="118" y="469"/>
      <point x="126" y="470"/>
      <point x="143" y="470" type="curve" smooth="yes"/>
      <point x="175" y="470" type="line" smooth="yes"/>
      <point x="183" y="470"/>
      <point x="198" y="469"/>
      <point x="204" y="466" type="curve"/>
      <point x="205" y="457"/>
      <point x="207" y="367"/>
      <point x="207" y="282" type="curve" smooth="yes"/>
      <point x="207" y="216" type="line" smooth="yes"/>
      <point x="207" y="153"/>
      <point x="203" y="97"/>
      <point x="199" y="66" type="curve"/>
      <point x="175" y="58"/>
      <point x="140" y="54"/>
      <point x="112" y="51" type="curve"/>
      <point x="115" y="-5" type="line"/>
      <point x="155" y="-2"/>
      <point x="233" y="-1"/>
      <point x="275" y="-1" type="curve" smooth="yes"/>
      <point x="316" y="-1"/>
      <point x="394" y="-2"/>
      <point x="434" y="-5" type="curve"/>
      <point x="437" y="51" type="line"/>
      <point x="409" y="54"/>
      <point x="374" y="58"/>
      <point x="350" y="66" type="curve"/>
      <point x="345" y="97"/>
      <point x="342" y="153"/>
      <point x="342" y="216" type="curve" smooth="yes"/>
      <point x="342" y="282" type="line" smooth="yes"/>
      <point x="342" y="367"/>
      <point x="344" y="457"/>
      <point x="345" y="466" type="curve"/>
      <point x="351" y="469"/>
      <point x="365" y="470"/>
      <point x="373" y="470" type="curve" smooth="yes"/>
      <point x="403" y="470" type="line" smooth="yes"/>
      <point x="420" y="470"/>
      <point x="428" y="469"/>
      <point x="446" y="466" type="curve"/>
      <point x="459" y="434"/>
      <point x="470" y="397"/>
      <point x="481" y="362" type="curve"/>
      <point x="542" y="367" type="line"/>
      <point x="533" y="421"/>
      <point x="527" y="478"/>
    </contour>
    <contour>
      <point x="274" y="0" type="move" name="bottom"/>
    </contour>
    <contour>
      <point x="274" y="272" type="move" name="stroke"/>
    </contour>
    <contour>
      <point x="274" y="528" type="move" name="top"/>
    </contour>
  </outline>
</glyph>
<glyph name="U" format="1">
  <advance width="619"/>
  <unicode hex="0055"/>
  <outline>
    <contour>
      <point x="16" y="530" type="curve"/>
      <point x="13" y="475" type="line"/>
      <point x="37" y="475"/>
      <point x="61" y="472"/>
      <point x="72" y="462" type="curve"/>
      <point x="75" y="455"/>
      <point x="78" y="388"/>
      <point x="78" y="321" type="curve" smooth="yes"/>
      <point x="78" y="232" type="line" smooth="yes"/>
      <point x="78" y="75"/>
      <point x="167" y="-8"/>
      <point x="321" y="-8" type="curve" smooth="yes"/>
      <point x="445" y="-8"/>
      <point x="541" y="70"/>
      <point x="541" y="228" type="curve" smooth="yes"/>
      <point x="541" y="305" type="line" smooth="yes"/>
      <point x="541" y="358"/>
      <point x="544" y="455"/>
      <point x="548" y="462" type="curve"/>
      <point x="559" y="472"/>
      <point x="576" y="475"/>
      <point x="610" y="475" type="curve"/>
      <point x="607" y="530" type="line"/>
      <point x="576" y="530"/>
      <point x="527" y="529"/>
      <point x="503" y="529" type="curve" smooth="yes"/>
      <point x="481" y="529"/>
      <point x="426" y="530"/>
      <point x="395" y="530" type="curve"/>
      <point x="393" y="475" type="line"/>
      <point x="420" y="475"/>
      <point x="444" y="472"/>
      <point x="455" y="462" type="curve"/>
      <point x="458" y="455"/>
      <point x="461" y="358"/>
      <point x="461" y="305" type="curve" smooth="yes"/>
      <point x="461" y="247" type="line" smooth="yes"/>
      <point x="461" y="130"/>
      <point x="415" y="87"/>
      <point x="346" y="87" type="curve" smooth="yes"/>
      <point x="262" y="87"/>
      <point x="214" y="134"/>
      <point x="215" y="249" type="curve" smooth="yes"/>
      <point x="217" y="321" type="line" smooth="yes"/>
      <point x="219" y="388"/>
      <point x="219" y="440"/>
      <point x="224" y="462" type="curve"/>
      <point x="235" y="472"/>
      <point x="259" y="475"/>
      <point x="286" y="475" type="curve"/>
      <point x="283" y="530" type="line"/>
      <point x="252" y="530"/>
      <point x="203" y="528"/>
      <point x="148" y="528" type="curve" smooth="yes"/>
      <point x="93" y="528"/>
      <point x="43" y="530"/>
    </contour>
    <contour>
      <point x="338" y="0" type="move" name="bottom"/>
    </contour>
    <contour>
      <point x="387" y="0" type="move" name="ogonek"/>
    </contour>
    <contour>
      <point x="340" y="528" type="move" name="top"/>
    </contour>
    <contour>
      <point x="603" y="528" type="move" name="topright"/>
    </contour>
  </outline>
</glyph>
<glyph name="bracketleft" format="1">
  <advance width="290"/>
  <unicode hex="005B"/>
  <outline>
    <contour>
      <point x="274" y="-176" type="line"/>
      <point x="274" y="-118" type="line"/>
      <point x="191" y="-118" type="line"/>
      <point x="191" y="520" type="line"/>
      <point x="274" y="520" type="line"/>
      <point x="274" y="578" type="line"/>
      <point x="64" y="578" type="line"/>
      <point x="64" y="-176" type="line"/>
    </contour>
  </outline>
</glyph>
<glyph name="backslash" format="1">
  <advance width="361"/>
  <unicode hex="005C"/>
  <outline>
    <contour>
      <point x="332" y="-176" type="line"/>
      <point x="91" y="582" type="line"/>
      <point x="-3" y="582" type="line"/>
      <point x="238" y="-176" type="line"/>
    </contour>
  </outline>
</glyph>
<glyph name="asciicircum" format="1">
  <advance width="480"/>
  <unicode hex="005E"/>
  <outline>
    <contour>
      <point x="285" y="505" type="line"/>
      <point x="195" y="505" type="line"/>
      <point x="36" y="114" type="line"/>
      <point x="126" y="114" type="line"/>
      <point x="270" y="471" type="line"/>
      <point x="210" y="471" type="line"/>
      <point x="354" y="114" type="line"/>
      <point x="444" y="114" type="line"/>
    </contour>
  </outline>
</glyph>
<glyph name="a" format="1">
  <advance width="418"/>
  <unicode hex="0061"/>
  <outline>
    <contour>
      <point x="151" y="-6" type="curve" smooth="yes"/>
      <point x="180" y="-6"/>
      <point x="219" y="19"/>
      <point x="252" y="62" type="curve"/>
      <point x="232" y="73" type="line"/>
      <point x="250" y="31" type="line" smooth="yes"/>
      <point x="260" y="8"/>
      <point x="274" y="-6"/>
      <point x="302" y="-6" type="curve" smooth="yes"/>
      <point x="337" y="-6"/>
      <point x="363" y="12"/>
      <point x="421" y="36" type="curve"/>
      <point x="421" y="77" type="line"/>
      <point x="402" y="80"/>
      <point x="388" y="82"/>
      <point x="369" y="90" type="curve"/>
      <point x="362" y="110"/>
      <point x="362" y="124"/>
      <point x="362" y="148" type="curve"/>
      <point x="364" y="239" type="line"/>
      <point x="365" y="317"/>
      <point x="300" y="366"/>
      <point x="194" y="366" type="curve"/>
      <point x="154" y="362"/>
      <point x="34" y="308"/>
      <point x="34" y="257" type="curve" smooth="yes"/>
      <point x="34" y="220"/>
      <point x="73" y="197"/>
      <point x="140" y="211" type="curve"/>
      <point x="145" y="276" type="line" smooth="yes"/>
      <point x="147" y="292"/>
      <point x="154" y="294"/>
      <point x="163" y="294" type="curve" smooth="yes"/>
      <point x="190" y="294"/>
      <point x="228" y="264"/>
      <point x="228" y="232" type="curve" smooth="yes"/>
      <point x="228" y="217" type="line"/>
      <point x="100" y="184" type="line" smooth="yes"/>
      <point x="46" y="170"/>
      <point x="27" y="140"/>
      <point x="27" y="101" type="curve" smooth="yes"/>
      <point x="27" y="59"/>
      <point x="72" y="-6"/>
    </contour>
    <contour>
      <point x="206" y="90" type="curve" smooth="yes"/>
      <point x="185" y="90"/>
      <point x="163" y="111"/>
      <point x="163" y="135" type="curve" smooth="yes"/>
      <point x="163" y="154"/>
      <point x="173" y="165"/>
      <point x="200" y="167" type="curve" smooth="yes"/>
      <point x="229" y="164" type="line"/>
      <point x="229" y="92" type="line"/>
      <point x="222" y="91"/>
      <point x="212" y="90"/>
    </contour>
    <contour>
      <point x="210" y="0" type="move" name="bottom"/>
    </contour>
    <contour>
      <point x="382" y="0" type="move" name="ogonek"/>
    </contour>
    <contour>
      <point x="211" y="359" type="move" name="top"/>
    </contour>
  </outline>
</glyph>
<glyph name="b" format="1">
  <advance width="471"/>
  <unicode hex="0062"/>
  <outline>
    <contour>
      <point x="54" y="25" type="curve"/>
      <point x="113" y="2"/>
      <point x="160" y="-6"/>
      <point x="214" y="-6" type="curve" smooth="yes"/>
      <point x="366" y="-6"/>
      <point x="446" y="97"/>
      <point x="446" y="202" type="curve" smooth="yes"/>
      <point x="446" y="304"/>
      <point x="373" y="366"/>
      <point x="294" y="366" type="curve" smooth="yes"/>
      <point x="253" y="366"/>
      <point x="209" y="336"/>
      <point x="190" y="309" type="curve"/>
      <point x="187" y="310" type="line"/>
      <point x="190" y="431"/>
      <point x="192" y="478"/>
      <point x="198" y="544" type="curve"/>
      <point x="170" y="561" type="line"/>
      <point x="116" y="536"/>
      <point x="53" y="519"/>
      <point x="-7" y="507" type="curve"/>
      <point x="-6" y="456" type="line"/>
      <point x="9" y="457"/>
      <point x="30" y="455"/>
      <point x="53" y="452" type="curve"/>
      <point x="55" y="424"/>
      <point x="58" y="411"/>
      <point x="58" y="287" type="curve"/>
      <point x="58" y="231" type="line"/>
      <point x="58" y="161"/>
      <point x="57" y="75"/>
    </contour>
    <contour>
      <point x="236" y="76" type="curve" smooth="yes"/>
      <point x="222" y="76"/>
      <point x="202" y="82"/>
      <point x="190" y="91" type="curve"/>
      <point x="190" y="255" type="line"/>
      <point x="200" y="259"/>
      <point x="216" y="266"/>
      <point x="235" y="266" type="curve" smooth="yes"/>
      <point x="269" y="266"/>
      <point x="304" y="242"/>
      <point x="305" y="170" type="curve" smooth="yes"/>
      <point x="305" y="93"/>
      <point x="275" y="76"/>
    </contour>
    <contour>
      <point x="236" y="0" type="move" name="bottom"/>
    </contour>
    <contour>
      <point x="236" y="528" type="move" name="top"/>
    </contour>
  </outline>
</glyph>
<glyph name="c" format="1">
  <advance width="386"/>
  <unicode hex="0063"/>
  <outline>
    <contour>
      <point x="217" y="-6" type="curve" smooth="yes"/>
      <point x="280" y="-6"/>
      <point x="345" y="33"/>
      <point x="375" y="110" type="curve"/>
      <point x="348" y="137" type="line"/>
      <point x="318" y="104"/>
      <point x="288" y="95"/>
      <point x="266" y="95" type="curve" smooth="yes"/>
      <point x="210" y="95"/>
      <point x="168" y="133"/>
      <point x="168" y="209" type="curve" smooth="yes"/>
      <point x="168" y="276"/>
      <point x="207" y="312"/>
      <point x="244" y="306" type="curve"/>
      <point x="194" y="316" type="line"/>
      <point x="265" y="255" type="line" smooth="yes"/>
      <point x="286" y="238"/>
      <point x="302" y="231"/>
      <point x="325" y="231" type="curve" smooth="yes"/>
      <point x="350" y="231"/>
      <point x="375" y="247"/>
      <point x="375" y="281" type="curve" smooth="yes"/>
      <point x="375" y="333"/>
      <point x="309" y="366"/>
      <point x="238" y="366" type="curve" smooth="yes"/>
      <point x="112" y="366"/>
      <point x="26" y="269"/>
      <point x="26" y="169" type="curve" smooth="yes"/>
      <point x="26" y="73"/>
      <point x="109" y="-6"/>
    </contour>
    <contour>
      <point x="208" y="0" type="move" name="bottom"/>
    </contour>
    <contour>
      <point x="208" y="359" type="move" name="top"/>
    </contour>
  </outline>
</glyph>
<glyph name="d" format="1">
  <advance width="466"/>
  <unicode hex="0064"/>
  <outline>
    <contour>
      <point x="305" y="-12" type="line"/>
      <point x="341" y="4"/>
      <point x="403" y="23"/>
      <point x="465" y="35" type="curve"/>
      <point x="465" y="79" type="line"/>
      <point x="444" y="82"/>
      <point x="430" y="81"/>
      <point x="408" y="89" type="curve"/>
      <point x="406" y="129"/>
      <point x="403" y="143"/>
      <point x="403" y="190" type="curve"/>
      <point x="404" y="378" type="line" smooth="yes"/>
      <point x="404" y="432"/>
      <point x="406" y="478"/>
      <point x="410" y="544" type="curve"/>
      <point x="383" y="561" type="line"/>
      <point x="329" y="536"/>
      <point x="266" y="519"/>
      <point x="205" y="507" type="curve"/>
      <point x="206" y="456" type="line"/>
      <point x="221" y="457"/>
      <point x="242" y="455"/>
      <point x="264" y="452" type="curve"/>
      <point x="268" y="424"/>
      <point x="271" y="410"/>
      <point x="271" y="366" type="curve"/>
      <point x="264" y="362"/>
      <point x="248" y="364"/>
      <point x="235" y="364" type="curve" smooth="yes"/>
      <point x="130" y="364"/>
      <point x="26" y="289"/>
      <point x="26" y="168" type="curve" smooth="yes"/>
      <point x="26" y="59"/>
      <point x="102" y="-9"/>
      <point x="183" y="-9" type="curve" smooth="yes"/>
      <point x="217" y="-9"/>
      <point x="252" y="7"/>
      <point x="274" y="53" type="curve"/>
      <point x="277" y="51" type="line"/>
      <point x="276" y="2" type="line"/>
    </contour>
    <contour>
      <point x="235" y="92" type="curve" smooth="yes"/>
      <point x="198" y="92"/>
      <point x="166" y="130"/>
      <point x="166" y="204" type="curve" smooth="yes"/>
      <point x="166" y="267"/>
      <point x="197" y="304"/>
      <point x="236" y="304" type="curve" smooth="yes"/>
      <point x="250" y="304"/>
      <point x="262" y="304"/>
      <point x="273" y="302" type="curve"/>
      <point x="273" y="114" type="line"/>
      <point x="266" y="100"/>
      <point x="242" y="92"/>
    </contour>
    <contour>
      <point x="249" y="0" type="move" name="bottom"/>
    </contour>
    <contour>
      <point x="233" y="180" type="move" name="center"/>
    </contour>
    <contour>
      <point x="296" y="414" type="move" name="stroke"/>
    </contour>
    <contour>
      <point x="233" y="550" type="move" name="top"/>
    </contour>
    <contour>
      <point x="434" y="550" type="move" name="topright"/>
    </contour>
  </outline>
</glyph>
<glyph name="f" format="1">
  <advance width="274"/>
  <unicode hex="0066"/>
  <outline>
    <contour>
      <point x="261" y="-6" type="curve"/>
      <point x="263" y="40" type="line"/>
      <point x="245" y="43"/>
      <point x="217" y="49"/>
      <point x="195" y="57" type="curve"/>
      <point x="194" y="65"/>
      <point x="194" y="90"/>
      <point x="192" y="209" type="curve" smooth="yes"/>
      <point x="190" y="296" type="line"/>
      <point x="188" y="358" type="line"/>
      <point x="188" y="410" type="line" smooth="yes"/>
      <point x="188" y="495"/>
      <point x="208" y="511"/>
      <point x="227" y="511" type="curve"/>
      <point x="181" y="517" type="line"/>
      <point x="233" y="468" type="line" smooth="yes"/>
      <point x="249" y="451"/>
      <point x="265" y="444"/>
      <point x="286" y="444" type="curve" smooth="yes"/>
      <point x="313" y="444"/>
      <point x="331" y="458"/>
      <point x="331" y="489" type="curve" smooth="yes"/>
      <point x="331" y="531"/>
      <point x="287" y="558"/>
      <point x="228" y="558" type="curve" smooth="yes"/>
      <point x="134" y="558"/>
      <point x="56" y="475"/>
      <point x="56" y="361" type="curve" smooth="yes"/>
      <point x="56" y="296" type="line"/>
      <point x="58" y="167" type="line" smooth="yes"/>
      <point x="59" y="98"/>
      <point x="53" y="64"/>
      <point x="53" y="60" type="curve"/>
      <point x="40" y="51"/>
      <point x="26" y="46"/>
      <point x="4" y="42" type="curve"/>
      <point x="7" y="-4" type="line"/>
      <point x="33" y="-1"/>
      <point x="82" y="1"/>
      <point x="134" y="1" type="curve" smooth="yes"/>
      <point x="181" y="1"/>
      <point x="223" y="-2"/>
    </contour>
    <contour>
      <point x="-4" y="296" type="line"/>
      <point x="271" y="296" type="line"/>
      <point x="271" y="358" type="line"/>
      <point x="95" y="358" type="line"/>
      <point x="56" y="363" type="line"/>
      <point x="36" y="354"/>
      <point x="16" y="347"/>
      <point x="-4" y="344" type="curve"/>
    </contour>
  </outline>
</glyph>
<glyph name="k" format="1">
  <advance width="481"/>
  <unicode hex="006B"/>
  <outline>
    <contour>
      <point x="12" y="-2" type="line"/>
      <point x="43" y="0"/>
      <point x="90" y="2"/>
      <point x="126" y="2" type="curve" smooth="yes"/>
      <point x="161" y="2"/>
      <point x="202" y="0"/>
      <point x="233" y="-2" type="curve"/>
      <point x="237" y="44" type="line"/>
      <point x="221" y="46"/>
      <point x="207" y="51"/>
      <point x="195" y="59" type="curve"/>
      <point x="194" y="69"/>
      <point x="192" y="111"/>
      <point x="192" y="142" type="curve"/>
      <point x="193" y="307" type="line"/>
      <point x="193" y="438"/>
      <point x="193" y="478"/>
      <point x="198" y="544" type="curve"/>
      <point x="171" y="561" type="line"/>
      <point x="118" y="536"/>
      <point x="54" y="519"/>
      <point x="-6" y="507" type="curve"/>
      <point x="-5" y="456" type="line"/>
      <point x="10" y="457"/>
      <point x="31" y="455"/>
      <point x="54" y="452" type="curve"/>
      <point x="56" y="424"/>
      <point x="59" y="411"/>
      <point x="59" y="287" type="curve" smooth="yes"/>
      <point x="59" y="199" type="line" smooth="yes"/>
      <point x="59" y="107"/>
      <point x="54" y="66"/>
      <point x="53" y="59" type="curve"/>
      <point x="41" y="51"/>
      <point x="23" y="46"/>
      <point x="9" y="43" type="curve"/>
    </contour>
    <contour>
      <point x="482" y="-2" type="curve"/>
      <point x="483" y="45" type="line"/>
      <point x="476" y="45"/>
      <point x="463" y="48"/>
      <point x="458" y="48" type="curve"/>
      <point x="450" y="53"/>
      <point x="439" y="69"/>
      <point x="418" y="97" type="curve" smooth="yes"/>
      <point x="298" y="256" type="line"/>
      <point x="286" y="213" type="line"/>
      <point x="409" y="305" type="line"/>
      <point x="422" y="309"/>
      <point x="442" y="311"/>
      <point x="466" y="314" type="curve"/>
      <point x="463" y="360" type="line"/>
      <point x="439" y="359"/>
      <point x="394" y="359"/>
      <point x="368" y="359" type="curve" smooth="yes"/>
      <point x="341" y="359"/>
      <point x="294" y="359"/>
      <point x="270" y="359" type="curve"/>
      <point x="269" y="312" type="line"/>
      <point x="277" y="312"/>
      <point x="306" y="310"/>
      <point x="319" y="306" type="curve"/>
      <point x="202" y="193" type="line"/>
      <point x="182" y="190" type="line"/>
      <point x="183" y="150" type="line"/>
      <point x="200" y="150" type="line"/>
      <point x="273" y="59" type="line" smooth="yes"/>
      <point x="287" y="40"/>
      <point x="301" y="19"/>
      <point x="314" y="0" type="curve"/>
      <point x="362" y="0"/>
      <point x="444" y="0"/>
    </contour>
    <contour>
      <point x="243" y="0" type="move" name="bottom"/>
    </contour>
    <contour>
      <point x="126" y="528" type="move" name="top"/>
    </contour>
  </outline>
</glyph>
<glyph name="l" format="1">
  <advance width="254"/>
  <unicode hex="006C"/>
  <outline>
    <contour>
      <point x="5" y="-2" type="line"/>
      <point x="34" y="0"/>
      <point x="91" y="2"/>
      <point x="126" y="2" type="curve" smooth="yes"/>
      <point x="161" y="2"/>
      <point x="218" y="0"/>
      <point x="247" y="-2" type="curve"/>
      <point x="251" y="44" type="line"/>
      <point x="228" y="48"/>
      <point x="208" y="51"/>
      <point x="197" y="61" type="curve"/>
      <point x="196" y="70"/>
      <point x="194" y="99"/>
      <point x="194" y="209" type="curve"/>
      <point x="195" y="315" type="line" smooth="yes"/>
      <point x="196" y="431"/>
      <point x="195" y="478"/>
      <point x="200" y="544" type="curve"/>
      <point x="173" y="561" type="line"/>
      <point x="120" y="536"/>
      <point x="54" y="519"/>
      <point x="-6" y="507" type="curve"/>
      <point x="-5" y="456" type="line"/>
      <point x="10" y="457"/>
      <point x="31" y="455"/>
      <point x="54" y="452" type="curve"/>
      <point x="56" y="424"/>
      <point x="59" y="411"/>
      <point x="59" y="287" type="curve" smooth="yes"/>
      <point x="59" y="184" type="line" smooth="yes"/>
      <point x="59" y="107"/>
      <point x="54" y="66"/>
      <point x="54" y="61" type="curve"/>
      <point x="42" y="51"/>
      <point x="25" y="47"/>
      <point x="1" y="43" type="curve"/>
    </contour>
    <contour>
      <point x="127" y="0" type="move" name="bottom"/>
    </contour>
    <contour>
      <point x="127" y="265" type="move" name="center"/>
    </contour>
    <contour>
      <point x="287" y="265" type="move" name="dotacc"/>
    </contour>
    <contour>
      <point x="127" y="528" type="move" name="top"/>
    </contour>
    <contour>
      <point x="227" y="550" type="move" name="topright"/>
    </contour>
  </outline>
</glyph>
<glyph name="m" format="1">
  <advance width="717"/>
  <unicode hex="006D"/>
  <outline>
    <contour>
      <point x="9" y="-2" type="line"/>
      <point x="35" y="2"/>
      <point x="91" y="2"/>
      <point x="126" y="2" type="curve" smooth="yes"/>
      <point x="162" y="2"/>
      <point x="217" y="0"/>
      <point x="236" y="-2" type="curve"/>
      <point x="239" y="44" type="line"/>
      <point x="223" y="49"/>
      <point x="207" y="51"/>
      <point x="196" y="61" type="curve"/>
      <point x="194" y="70"/>
      <point x="192" y="114"/>
      <point x="192" y="130" type="curve" smooth="yes"/>
      <point x="192" y="245" type="line"/>
      <point x="203" y="256"/>
      <point x="226" y="266"/>
      <point x="243" y="266" type="curve" smooth="yes"/>
      <point x="275" y="266"/>
      <point x="296" y="251"/>
      <point x="296" y="206" type="curve"/>
      <point x="297" y="143" type="line"/>
      <point x="296" y="114"/>
      <point x="294" y="66"/>
      <point x="296" y="61" type="curve"/>
      <point x="283" y="51"/>
      <point x="268" y="48"/>
      <point x="256" y="43" type="curve"/>
      <point x="260" y="-2" type="line"/>
      <point x="283" y="0"/>
      <point x="328" y="2"/>
      <point x="364" y="2" type="curve" smooth="yes"/>
      <point x="399" y="2"/>
      <point x="447" y="0"/>
      <point x="471" y="-2" type="curve"/>
      <point x="474" y="44" type="line"/>
      <point x="455" y="48"/>
      <point x="443" y="51"/>
      <point x="432" y="61" type="curve"/>
      <point x="430" y="70"/>
      <point x="429" y="116"/>
      <point x="429" y="138" type="curve"/>
      <point x="427" y="220" type="line"/>
      <point x="427" y="319"/>
      <point x="373" y="366"/>
      <point x="306" y="366" type="curve" smooth="yes"/>
      <point x="263" y="366"/>
      <point x="225" y="344"/>
      <point x="191" y="303" type="curve"/>
      <point x="188" y="304" type="line"/>
      <point x="194" y="349" type="line"/>
      <point x="165" y="364" type="line"/>
      <point x="127" y="348"/>
      <point x="63" y="329"/>
      <point x="-2" y="318" type="curve"/>
      <point x="-2" y="273" type="line"/>
      <point x="16" y="271"/>
      <point x="36" y="270"/>
      <point x="54" y="264" type="curve"/>
      <point x="59" y="227"/>
      <point x="59" y="215"/>
      <point x="60" y="193" type="curve"/>
      <point x="59" y="136" type="line" smooth="yes"/>
      <point x="58" y="114"/>
      <point x="54" y="66"/>
      <point x="55" y="61" type="curve"/>
      <point x="43" y="51"/>
      <point x="27" y="47"/>
      <point x="5" y="43" type="curve"/>
    </contour>
    <contour>
      <point x="494" y="-2" type="line"/>
      <point x="517" y="0"/>
      <point x="562" y="2"/>
      <point x="598" y="2" type="curve" smooth="yes"/>
      <point x="634" y="2"/>
      <point x="686" y="0"/>
      <point x="712" y="-2" type="curve"/>
      <point x="716" y="44" type="line"/>
      <point x="697" y="48"/>
      <point x="677" y="51"/>
      <point x="666" y="61" type="curve"/>
      <point x="664" y="70"/>
      <point x="663" y="116"/>
      <point x="663" y="138" type="curve"/>
      <point x="660" y="215" type="line"/>
      <point x="660" y="318"/>
      <point x="604" y="366"/>
      <point x="526" y="366" type="curve" smooth="yes"/>
      <point x="474" y="366"/>
      <point x="429" y="336"/>
      <point x="390" y="284" type="curve"/>
      <point x="420" y="253" type="line"/>
      <point x="430" y="260"/>
      <point x="453" y="266"/>
      <point x="471" y="266" type="curve" smooth="yes"/>
      <point x="508" y="266"/>
      <point x="529" y="247"/>
      <point x="529" y="190" type="curve"/>
      <point x="531" y="143" type="line"/>
      <point x="531" y="114"/>
      <point x="527" y="68"/>
      <point x="527" y="61" type="curve"/>
      <point x="513" y="51"/>
      <point x="502" y="48"/>
      <point x="490" y="43" type="curve"/>
    </contour>
    <contour>
      <point x="362" y="0" type="move" name="bottom"/>
    </contour>
    <contour>
      <point x="362" y="359" type="move" name="top"/>
    </contour>
  </outline>
</glyph>
<glyph name="n" format="1">
  <advance width="489"/>
  <unicode hex="006E"/>
  <outline>
    <contour>
      <point x="8" y="-2" type="line"/>
      <point x="34" y="0"/>
      <point x="90" y="2"/>
      <point x="125" y="2" type="curve" smooth="yes"/>
      <point x="161" y="2"/>
      <point x="215" y="0"/>
      <point x="241" y="-2" type="curve"/>
      <point x="245" y="44" type="line"/>
      <point x="226" y="48"/>
      <point x="206" y="51"/>
      <point x="195" y="61" type="curve"/>
      <point x="194" y="70"/>
      <point x="192" y="114"/>
      <point x="192" y="130" type="curve" smooth="yes"/>
      <point x="192" y="245" type="line"/>
      <point x="205" y="257"/>
      <point x="224" y="266"/>
      <point x="246" y="266" type="curve" smooth="yes"/>
      <point x="280" y="266"/>
      <point x="303" y="244"/>
      <point x="303" y="191" type="curve" smooth="yes"/>
      <point x="303" y="143" type="line" smooth="yes"/>
      <point x="303" y="114"/>
      <point x="299" y="68"/>
      <point x="299" y="61" type="curve"/>
      <point x="284" y="51"/>
      <point x="271" y="47"/>
      <point x="255" y="43" type="curve"/>
      <point x="259" y="-2" type="line"/>
      <point x="286" y="0"/>
      <point x="335" y="2"/>
      <point x="370" y="2" type="curve" smooth="yes"/>
      <point x="406" y="2"/>
      <point x="457" y="0"/>
      <point x="484" y="-2" type="curve"/>
      <point x="487" y="44" type="line"/>
      <point x="468" y="48"/>
      <point x="449" y="51"/>
      <point x="437" y="61" type="curve"/>
      <point x="436" y="70"/>
      <point x="434" y="116"/>
      <point x="434" y="138" type="curve" smooth="yes"/>
      <point x="434" y="217" type="line" smooth="yes"/>
      <point x="434" y="306"/>
      <point x="385" y="366"/>
      <point x="311" y="366" type="curve" smooth="yes"/>
      <point x="268" y="366"/>
      <point x="223" y="344"/>
      <point x="190" y="300" type="curve"/>
      <point x="187" y="301" type="line"/>
      <point x="193" y="349" type="line"/>
      <point x="164" y="364" type="line"/>
      <point x="126" y="348"/>
      <point x="62" y="329"/>
      <point x="-3" y="318" type="curve"/>
      <point x="-3" y="273" type="line"/>
      <point x="15" y="271"/>
      <point x="36" y="270"/>
      <point x="53" y="264" type="curve"/>
      <point x="58" y="227"/>
      <point x="59" y="215"/>
      <point x="59" y="193" type="curve"/>
      <point x="58" y="136" type="line" smooth="yes"/>
      <point x="57" y="114"/>
      <point x="54" y="66"/>
      <point x="54" y="61" type="curve"/>
      <point x="42" y="51"/>
      <point x="26" y="47"/>
      <point x="4" y="43" type="curve"/>
    </contour>
    <contour>
      <point x="248" y="0" type="move" name="bottom"/>
    </contour>
    <contour>
      <point x="248" y="359" type="move" name="top"/>
    </contour>
  </outline>
</glyph>
<glyph name="o" format="1">
  <advance width="446"/>
  <unicode hex="006F"/>
  <outline>
    <contour>
      <point x="226" y="-6" type="curve" smooth="yes"/>
      <point x="333" y="-6"/>
      <point x="420" y="77"/>
      <point x="420" y="185" type="curve" smooth="yes"/>
      <point x="420" y="290"/>
      <point x="341" y="366"/>
      <point x="230" y="366" type="curve" smooth="yes"/>
      <point x="127" y="366"/>
      <point x="26" y="301"/>
      <point x="26" y="173" type="curve" smooth="yes"/>
      <point x="26" y="68"/>
      <point x="110" y="-6"/>
    </contour>
    <contour>
      <point x="235" y="59" type="curve" smooth="yes"/>
      <point x="198" y="59"/>
      <point x="169" y="125"/>
      <point x="169" y="208" type="curve" smooth="yes"/>
      <point x="169" y="269"/>
      <point x="186" y="305"/>
      <point x="214" y="305" type="curve" smooth="yes"/>
      <point x="252" y="305"/>
      <point x="278" y="242"/>
      <point x="278" y="149" type="curve" smooth="yes"/>
      <point x="278" y="87"/>
      <point x="265" y="59"/>
    </contour>
    <contour>
      <point x="223" y="0" type="move" name="bottom"/>
    </contour>
    <contour>
      <point x="223" y="180" type="move" name="center"/>
    </contour>
    <contour>
      <point x="281" y="0" type="move" name="ogonek"/>
    </contour>
    <contour>
      <point x="223" y="359" type="move" name="top"/>
    </contour>
    <contour>
      <point x="430" y="359" type="move" name="topright"/>
    </contour>
  </outline>
</glyph>
<glyph name="p" format="1">
  <advance width="468"/>
  <unicode hex="0070"/>
  <outline>
    <contour>
      <point x="6" y="-183" type="line"/>
      <point x="30" y="-179"/>
      <point x="74" y="-176"/>
      <point x="122" y="-176" type="curve" smooth="yes"/>
      <point x="171" y="-176"/>
      <point x="212" y="-179"/>
      <point x="244" y="-183" type="curve"/>
      <point x="248" y="-134" type="line"/>
      <point x="224" y="-131"/>
      <point x="204" y="-126"/>
      <point x="193" y="-117" type="curve"/>
      <point x="191" y="-107"/>
      <point x="190" y="-64"/>
      <point x="190" y="-41" type="curve" smooth="yes"/>
      <point x="190" y="-1" type="line"/>
      <point x="207" y="-5"/>
      <point x="221" y="-6"/>
      <point x="232" y="-6" type="curve" smooth="yes"/>
      <point x="365" y="-6"/>
      <point x="441" y="97"/>
      <point x="441" y="199" type="curve" smooth="yes"/>
      <point x="441" y="315"/>
      <point x="366" y="366"/>
      <point x="296" y="366" type="curve" smooth="yes"/>
      <point x="253" y="366"/>
      <point x="209" y="335"/>
      <point x="188" y="297" type="curve"/>
      <point x="185" y="299" type="line"/>
      <point x="191" y="349" type="line"/>
      <point x="162" y="364" type="line"/>
      <point x="125" y="348"/>
      <point x="61" y="329"/>
      <point x="-4" y="318" type="curve"/>
      <point x="-4" y="273" type="line"/>
      <point x="14" y="271"/>
      <point x="34" y="270"/>
      <point x="52" y="264" type="curve"/>
      <point x="57" y="227"/>
      <point x="58" y="215"/>
      <point x="58" y="190" type="curve" smooth="yes"/>
      <point x="56" y="69" type="line" smooth="yes"/>
      <point x="54" y="-64"/>
      <point x="51" y="-111"/>
      <point x="51" y="-117" type="curve"/>
      <point x="39" y="-126"/>
      <point x="23" y="-130"/>
      <point x="3" y="-134" type="curve"/>
    </contour>
    <contour>
      <point x="233" y="69" type="curve" smooth="yes"/>
      <point x="218" y="69"/>
      <point x="202" y="73"/>
      <point x="190" y="77" type="curve"/>
      <point x="190" y="249" type="line"/>
      <point x="200" y="258"/>
      <point x="218" y="266"/>
      <point x="233" y="266" type="curve" smooth="yes"/>
      <point x="262" y="266"/>
      <point x="299" y="255"/>
      <point x="300" y="166" type="curve" smooth="yes"/>
      <point x="300" y="85"/>
      <point x="269" y="69"/>
    </contour>
    <contour>
      <point x="235" y="359" type="move" name="top"/>
    </contour>
  </outline>
</glyph>
<glyph name="q" format="1">
  <advance width="466"/>
  <unicode hex="0071"/>
  <outline>
    <contour>
      <point x="219" y="-183" type="line"/>
      <point x="250" y="-179"/>
      <point x="294" y="-176"/>
      <point x="342" y="-176" type="curve" smooth="yes"/>
      <point x="386" y="-176"/>
      <point x="424" y="-179"/>
      <point x="448" y="-183" type="curve"/>
      <point x="451" y="-134" type="line"/>
      <point x="431" y="-129"/>
      <point x="418" y="-126"/>
      <point x="407" y="-117" type="curve"/>
      <point x="406" y="-107"/>
      <point x="403" y="-78"/>
      <point x="402" y="-9" type="curve" smooth="yes"/>
      <point x="401" y="227" type="line" smooth="yes"/>
      <point x="401" y="269"/>
      <point x="403" y="354"/>
      <point x="404" y="386" type="curve"/>
      <point x="369" y="386" type="line"/>
      <point x="325" y="349" type="line"/>
      <point x="299" y="359"/>
      <point x="273" y="364"/>
      <point x="236" y="364" type="curve" smooth="yes"/>
      <point x="125" y="364"/>
      <point x="26" y="288"/>
      <point x="26" y="168" type="curve" smooth="yes"/>
      <point x="26" y="59"/>
      <point x="105" y="-9"/>
      <point x="183" y="-9" type="curve" smooth="yes"/>
      <point x="214" y="-9"/>
      <point x="248" y="4"/>
      <point x="272" y="54" type="curve"/>
      <point x="274" y="52" type="line"/>
      <point x="273" y="-46" type="line" smooth="yes"/>
      <point x="273" y="-64"/>
      <point x="270" y="-109"/>
      <point x="272" y="-117" type="curve"/>
      <point x="259" y="-126"/>
      <point x="238" y="-130"/>
      <point x="216" y="-133" type="curve"/>
    </contour>
    <contour>
      <point x="233" y="92" type="curve" smooth="yes"/>
      <point x="201" y="92"/>
      <point x="166" y="130"/>
      <point x="166" y="204" type="curve" smooth="yes"/>
      <point x="166" y="264"/>
      <point x="192" y="304"/>
      <point x="235" y="304" type="curve" smooth="yes"/>
      <point x="247" y="304"/>
      <point x="262" y="302"/>
      <point x="271" y="297" type="curve"/>
      <point x="270" y="114" type="line"/>
      <point x="265" y="100"/>
      <point x="239" y="92"/>
    </contour>
    <contour>
      <point x="233" y="359" type="move" name="top"/>
    </contour>
  </outline>
</glyph>
<glyph name="r" format="1">
  <advance width="358"/>
  <unicode hex="0072"/>
  <outline>
    <contour>
      <point x="9" y="-5" type="line"/>
      <point x="36" y="-2"/>
      <point x="90" y="2"/>
      <point x="137" y="2" type="curve" smooth="yes"/>
      <point x="182" y="2"/>
      <point x="235" y="-2"/>
      <point x="280" y="-5" type="curve"/>
      <point x="282" y="46" type="line"/>
      <point x="256" y="48"/>
      <point x="215" y="55"/>
      <point x="199" y="60" type="curve"/>
      <point x="197" y="62"/>
      <point x="197" y="85"/>
      <point x="196" y="177" type="curve" smooth="yes"/>
      <point x="195" y="240" type="line"/>
      <point x="204" y="245"/>
      <point x="216" y="258"/>
      <point x="231" y="268" type="curve"/>
      <point x="202" y="268" type="line"/>
      <point x="231" y="239"/>
      <point x="250" y="232"/>
      <point x="281" y="232" type="curve" smooth="yes"/>
      <point x="318" y="232"/>
      <point x="347" y="260"/>
      <point x="347" y="301" type="curve" smooth="yes"/>
      <point x="347" y="344"/>
      <point x="321" y="363"/>
      <point x="287" y="363" type="curve" smooth="yes"/>
      <point x="250" y="363"/>
      <point x="219" y="342"/>
      <point x="190" y="304" type="curve"/>
      <point x="188" y="305" type="line"/>
      <point x="191" y="349" type="line"/>
      <point x="162" y="364" type="line"/>
      <point x="128" y="348"/>
      <point x="63" y="329"/>
      <point x="-1" y="318" type="curve"/>
      <point x="-1" y="273" type="line"/>
      <point x="17" y="271"/>
      <point x="37" y="270"/>
      <point x="54" y="264" type="curve"/>
      <point x="59" y="227"/>
      <point x="60" y="215"/>
      <point x="60" y="193" type="curve"/>
      <point x="60" y="136" type="line" smooth="yes"/>
      <point x="59" y="114"/>
      <point x="55" y="66"/>
      <point x="54" y="61" type="curve"/>
      <point x="43" y="51"/>
      <point x="27" y="47"/>
      <point x="6" y="43" type="curve"/>
    </contour>
    <contour>
      <point x="129" y="0" type="move" name="bottom"/>
    </contour>
    <contour>
      <point x="153" y="359" type="move" name="top"/>
    </contour>
  </outline>
</glyph>
<glyph name="v" format="1">
  <advance width="424"/>
  <unicode hex="0076"/>
  <outline>
    <contour>
      <point x="188" y="-3" type="line"/>
      <point x="231" y="-3" type="line"/>
      <point x="390" y="302" type="line"/>
      <point x="397" y="306"/>
      <point x="409" y="310"/>
      <point x="425" y="314" type="curve"/>
      <point x="424" y="359" type="line"/>
      <point x="401" y="358"/>
      <point x="375" y="359"/>
      <point x="356" y="359" type="curve" smooth="yes"/>
      <point x="336" y="359"/>
      <point x="295" y="359"/>
      <point x="273" y="359" type="curve"/>
      <point x="271" y="312" type="line"/>
      <point x="298" y="309"/>
      <point x="307" y="306"/>
      <point x="318" y="302" type="curve"/>
      <point x="247" y="153" type="line"/>
      <point x="271" y="152" type="line"/>
      <point x="193" y="302" type="line"/>
      <point x="204" y="306"/>
      <point x="215" y="309"/>
      <point x="238" y="312" type="curve"/>
      <point x="236" y="359" type="line"/>
      <point x="213" y="359"/>
      <point x="141" y="359"/>
      <point x="117" y="359" type="curve" smooth="yes"/>
      <point x="93" y="359"/>
      <point x="18" y="359"/>
      <point x="-6" y="359" type="curve"/>
      <point x="-9" y="314" type="line"/>
      <point x="11" y="310"/>
      <point x="26" y="306"/>
      <point x="35" y="302" type="curve"/>
    </contour>
    <contour>
      <point x="212" y="0" type="move" name="bottom"/>
    </contour>
    <contour>
      <point x="212" y="359" type="move" name="top"/>
    </contour>
  </outline>
</glyph>
<glyph name="z" format="1">
  <advance width="376"/>
  <unicode hex="007A"/>
  <outline>
    <contour>
      <point x="166" y="15" type="line"/>
      <point x="351" y="311" type="line"/>
      <point x="351" y="361" type="line"/>
      <point x="327" y="360"/>
      <point x="303" y="359"/>
      <point x="279" y="359" type="curve" smooth="yes"/>
      <point x="109" y="359" type="line" smooth="yes"/>
      <point x="86" y="359"/>
      <point x="45" y="359"/>
      <point x="16" y="362" type="curve"/>
      <point x="16" y="327"/>
      <point x="18" y="267"/>
      <point x="18" y="226" type="curve"/>
      <point x="78" y="226" type="line"/>
      <point x="81" y="249"/>
      <point x="85" y="273"/>
      <point x="89" y="297" type="curve"/>
      <point x="106" y="300"/>
      <point x="126" y="302"/>
      <point x="163" y="302" type="curve" smooth="yes"/>
      <point x="221" y="302" type="line"/>
      <point x="220" y="344" type="line"/>
      <point x="29" y="47" type="line"/>
      <point x="29" y="-3" type="line"/>
      <point x="53" y="-1"/>
      <point x="77" y="0"/>
      <point x="101" y="0" type="curve" smooth="yes"/>
      <point x="270" y="0" type="line" smooth="yes"/>
      <point x="293" y="0"/>
      <point x="335" y="0"/>
      <point x="362" y="-2" type="curve"/>
      <point x="367" y="36"/>
      <point x="372" y="93"/>
      <point x="380" y="137" type="curve"/>
      <point x="317" y="137" type="line"/>
      <point x="311" y="111"/>
      <point x="302" y="81"/>
      <point x="295" y="65" type="curve"/>
      <point x="278" y="62"/>
      <point x="260" y="60"/>
      <point x="236" y="60" type="curve" smooth="yes"/>
      <point x="159" y="60" type="line"/>
    </contour>
    <contour>
      <point x="188" y="0" type="move" name="bottom"/>
    </contour>
    <contour>
      <point x="188" y="359" type="move" name="top"/>
    </contour>
  </outline>
</glyph>
<glyph name="bar" format="1">
  <advance width="211"/>
  <unicode hex="007C"/>
  <outline>
    <contour>
      <point x="64" y="-176" type="line"/>
      <point x="147" y="-176" type="line"/>
      <point x="147" y="578" type="line"/>
      <point x="64" y="578" type="line"/>
    </contour>
  </outline>
</glyph>
<glyph name="braceright" format="1">
  <advance width="311"/>
  <unicode hex="007D"/>
  <outline>
    <contour>
      <point x="93" y="-58" type="curve" smooth="yes"/>
      <point x="93" y="-112"/>
      <point x="56" y="-131"/>
      <point x="18" y="-130" type="curve"/>
      <point x="32" y="-182" type="line"/>
      <point x="159" y="-170"/>
      <point x="248" y="-133"/>
      <point x="248" y="-41" type="curve" smooth="yes"/>
      <point x="248" y="19"/>
      <point x="201" y="69"/>
      <point x="201" y="115" type="curve" smooth="yes"/>
      <point x="201" y="148"/>
      <point x="209" y="165"/>
      <point x="281" y="168" type="curve"/>
      <point x="281" y="234" type="line"/>
      <point x="209" y="236"/>
      <point x="201" y="254"/>
      <point x="201" y="287" type="curve" smooth="yes"/>
      <point x="201" y="333"/>
      <point x="248" y="383"/>
      <point x="248" y="442" type="curve" smooth="yes"/>
      <point x="248" y="535"/>
      <point x="159" y="571"/>
      <point x="32" y="584" type="curve"/>
      <point x="18" y="532" type="line"/>
      <point x="56" y="532"/>
      <point x="93" y="514"/>
      <point x="93" y="460" type="curve" smooth="yes"/>
      <point x="93" y="409"/>
      <point x="62" y="376"/>
      <point x="62" y="312" type="curve" smooth="yes"/>
      <point x="62" y="245"/>
      <point x="116" y="208"/>
      <point x="184" y="202" type="curve"/>
      <point x="184" y="213" type="line"/>
      <point x="115" y="206"/>
      <point x="62" y="155"/>
      <point x="62" y="89" type="curve" smooth="yes"/>
      <point x="62" y="25"/>
      <point x="93" y="-7"/>
    </contour>
  </outline>
</glyph>
<glyph name="asciitilde" format="1">
  <advance width="480"/>
  <unicode hex="007E"/>
  <outline>
    <contour>
      <point x="394" y="283" type="line"/>
      <point x="380" y="258"/>
      <point x="362" y="244"/>
      <point x="338" y="244" type="curve" smooth="yes"/>
      <point x="298" y="244"/>
      <point x="218" y="299"/>
      <point x="154" y="299" type="curve" smooth="yes"/>
      <point x="105" y="299"/>
      <point x="62" y="264"/>
      <point x="45" y="205" type="curve"/>
      <point x="86" y="177" type="line"/>
      <point x="101" y="204"/>
      <point x="120" y="218"/>
      <point x="142" y="218" type="curve" smooth="yes"/>
      <point x="182" y="218"/>
      <point x="262" y="160"/>
      <point x="326" y="160" type="curve" smooth="yes"/>
      <point x="375" y="160"/>
      <point x="418" y="198"/>
      <point x="435" y="255" type="curve"/>
    </contour>
  </outline>
</glyph>
<glyph name="currency" format="1">
  <advance width="480"/>
  <unicode hex="00A4"/>
  <outline>
    <contour>
      <point x="236" y="64" type="curve" smooth="yes"/>
      <point x="345" y="64"/>
      <point x="431" y="153"/>
      <point x="431" y="262" type="curve" smooth="yes"/>
      <point x="431" y="372"/>
      <point x="345" y="461"/>
      <point x="236" y="461" type="curve" smooth="yes"/>
      <point x="127" y="461"/>
      <point x="41" y="372"/>
      <point x="41" y="262" type="curve" smooth="yes"/>
      <point x="41" y="153"/>
      <point x="127" y="64"/>
    </contour>
    <contour>
      <point x="63" y="26" type="line"/>
      <point x="181" y="151" type="line"/>
      <point x="123" y="208" type="line"/>
      <point x="9" y="84" type="line"/>
    </contour>
    <contour>
      <point x="413" y="28" type="line"/>
      <point x="467" y="84" type="line"/>
      <point x="335" y="230" type="line"/>
      <point x="287" y="165" type="line"/>
    </contour>
    <contour>
      <point x="237" y="125" type="curve" smooth="yes"/>
      <point x="205" y="125"/>
      <point x="181" y="188"/>
      <point x="181" y="264" type="curve" smooth="yes"/>
      <point x="181" y="340"/>
      <point x="206" y="404"/>
      <point x="237" y="402" type="curve" smooth="yes"/>
      <point x="267" y="401"/>
      <point x="291" y="340"/>
      <point x="291" y="264" type="curve" smooth="yes"/>
      <point x="291" y="188"/>
      <point x="267" y="125"/>
    </contour>
    <contour>
      <point x="105" y="340" type="line"/>
      <point x="165" y="394" type="line"/>
      <point x="65" y="500" type="line"/>
      <point x="9" y="441" type="line"/>
    </contour>
    <contour>
      <point x="360" y="321" type="line"/>
      <point x="470" y="438" type="line"/>
      <point x="409" y="503" type="line"/>
      <point x="299" y="383" type="line"/>
    </contour>
  </outline>
</glyph>
<glyph name="yen" format="1">
  <advance width="530"/>
  <unicode hex="00A5"/>
  <outline>
    <contour>
      <point x="485" y="466" type="line"/>
      <point x="495" y="471"/>
      <point x="512" y="474"/>
      <point x="529" y="475" type="curve"/>
      <point x="526" y="530" type="line"/>
      <point x="491" y="530"/>
      <point x="463" y="529"/>
      <point x="438" y="529" type="curve" smooth="yes"/>
      <point x="410" y="529"/>
      <point x="376" y="530"/>
      <point x="336" y="530" type="curve"/>
      <point x="333" y="474" type="line"/>
      <point x="364" y="471"/>
      <point x="389" y="470"/>
      <point x="404" y="467" type="curve"/>
      <point x="292" y="274" type="line"/>
      <point x="316" y="274" type="line"/>
      <point x="203" y="467" type="line"/>
      <point x="216" y="470"/>
      <point x="240" y="471"/>
      <point x="273" y="474" type="curve"/>
      <point x="271" y="530" type="line"/>
      <point x="237" y="530"/>
      <point x="159" y="528"/>
      <point x="123" y="528" type="curve" smooth="yes"/>
      <point x="85" y="528"/>
      <point x="42" y="530"/>
      <point x="4" y="530" type="curve"/>
      <point x="1" y="475" type="line"/>
      <point x="21" y="473"/>
      <point x="36" y="470"/>
      <point x="45" y="466" type="curve"/>
      <point x="230" y="149" type="line"/>
      <point x="197" y="253" type="line"/>
      <point x="197" y="161" type="line" smooth="yes"/>
      <point x="197" y="140"/>
      <point x="195" y="73"/>
      <point x="192" y="66" type="curve"/>
      <point x="181" y="57"/>
      <point x="157" y="54"/>
      <point x="125" y="50" type="curve"/>
      <point x="128" y="-5" type="line"/>
      <point x="163" y="-2"/>
      <point x="212" y="2"/>
      <point x="265" y="2" type="curve" smooth="yes"/>
      <point x="319" y="2"/>
      <point x="367" y="-2"/>
      <point x="402" y="-5" type="curve"/>
      <point x="405" y="50" type="line"/>
      <point x="374" y="54"/>
      <point x="350" y="57"/>
      <point x="339" y="66" type="curve"/>
      <point x="336" y="73"/>
      <point x="334" y="140"/>
      <point x="334" y="161" type="curve" smooth="yes"/>
      <point x="334" y="253" type="line"/>
      <point x="287" y="149" type="line"/>
    </contour>
    <contour>
      <point x="66" y="218" type="line"/>
      <point x="464" y="218" type="line"/>
      <point x="464" y="280" type="line"/>
      <point x="66" y="280" type="line"/>
    </contour>
    <contour>
      <point x="66" y="116" type="line"/>
      <point x="464" y="116" type="line"/>
      <point x="464" y="177" type="line"/>
      <point x="66" y="177" type="line"/>
    </contour>
  </outline>
</glyph>
<glyph name="logicalnot" format="1">
  <advance width="480"/>
  <unicode hex="00AC"/>
  <outline>
    <contour>
      <point x="435" y="352" type="line"/>
      <point x="45" y="352" type="line"/>
      <point x="45" y="266" type="line"/>
      <point x="351" y="266" type="line"/>
      <point x="351" y="105" type="line"/>
      <point x="435" y="105" type="line"/>
    </contour>
  </outline>
</glyph>
<glyph name="degree" format="1">
  <advance width="341"/>
  <unicode hex="00B0"/>
  <outline>
    <contour>
      <point x="170" y="299" type="curve" smooth="yes"/>
      <point x="239" y="299"/>
      <point x="294" y="349"/>
      <point x="294" y="417" type="curve" smooth="yes"/>
      <point x="294" y="487"/>
      <point x="239" y="537"/>
      <point x="170" y="537" type="curve" smooth="yes"/>
      <point x="102" y="537"/>
      <point x="48" y="487"/>
      <point x="48" y="417" type="curve" smooth="yes"/>
      <point x="48" y="349"/>
      <point x="102" y="299"/>
    </contour>
    <contour>
      <point x="170" y="362" type="curve" smooth="yes"/>
      <point x="138" y="362"/>
      <point x="114" y="384"/>
      <point x="114" y="417" type="curve" smooth="yes"/>
      <point x="114" y="452"/>
      <point x="138" y="474"/>
      <point x="170" y="474" type="curve" smooth="yes"/>
      <point x="203" y="474"/>
      <point x="228" y="452"/>
      <point x="228" y="417" type="curve" smooth="yes"/>
      <point x="228" y="384"/>
      <point x="203" y="362"/>
    </contour>
  </outline>
</glyph>
<glyph name="periodcentered" format="1">
  <advance width="268"/>
  <unicode hex="00B7"/>
  <outline>
    <contour>
      <point x="134" y="83" type="curve" smooth="yes"/>
      <point x="185" y="83"/>
      <point x="226" y="125"/>
      <point x="226" y="179" type="curve" smooth="yes"/>
      <point x="226" y="235"/>
      <point x="185" y="280"/>
      <point x="134" y="280" type="curve" smooth="yes"/>
      <point x="84" y="280"/>
      <point x="41" y="235"/>
      <point x="41" y="179" type="curve" smooth="yes"/>
      <point x="41" y="125"/>
      <point x="84" y="83"/>
    </contour>
  </outline>
</glyph>
<glyph name="multiply" format="1">
  <advance width="480"/>
  <unicode hex="00D7"/>
  <outline>
    <contour>
      <point x="369" y="417" type="line"/>
      <point x="53" y="104" type="line"/>
      <point x="111" y="42" type="line"/>
      <point x="427" y="355" type="line"/>
    </contour>
    <contour>
      <point x="111" y="417" type="line"/>
      <point x="53" y="355" type="line"/>
      <point x="369" y="42" type="line"/>
      <point x="427" y="104" type="line"/>
    </contour>
  </outline>
</glyph>
<glyph name="Thorn" format="1">
  <advance width="513"/>
  <unicode hex="00DE"/>
  <outline>
    <contour>
      <point x="19" y="-5" type="line"/>
      <point x="46" y="-2"/>
      <point x="95" y="2"/>
      <point x="149" y="2" type="curve" smooth="yes"/>
      <point x="203" y="2"/>
      <point x="252" y="-2"/>
      <point x="289" y="-5" type="curve"/>
      <point x="292" y="50" type="line"/>
      <point x="258" y="54"/>
      <point x="234" y="57"/>
      <point x="219" y="66" type="curve"/>
      <point x="220" y="73"/>
      <point x="218" y="94"/>
      <point x="218" y="120" type="curve" smooth="yes"/>
      <point x="218" y="383" type="line"/>
      <point x="230" y="387"/>
      <point x="239" y="387"/>
      <point x="247" y="387" type="curve" smooth="yes"/>
      <point x="310" y="387"/>
      <point x="344" y="341"/>
      <point x="344" y="266" type="curve" smooth="yes"/>
      <point x="344" y="210"/>
      <point x="316" y="173"/>
      <point x="263" y="173" type="curve" smooth="yes"/>
      <point x="238" y="173"/>
      <point x="215" y="176"/>
      <point x="203" y="182" type="curve"/>
      <point x="203" y="122" type="line"/>
      <point x="221" y="115"/>
      <point x="237" y="111"/>
      <point x="260" y="111" type="curve" smooth="yes"/>
      <point x="404" y="111"/>
      <point x="489" y="188"/>
      <point x="489" y="281" type="curve" smooth="yes"/>
      <point x="489" y="387"/>
      <point x="408" y="443"/>
      <point x="267" y="443" type="curve" smooth="yes"/>
      <point x="226" y="443"/>
      <point x="198" y="440"/>
      <point x="182" y="434" type="curve"/>
      <point x="218" y="384" type="line"/>
      <point x="218" y="443" type="line" smooth="yes"/>
      <point x="218" y="452"/>
      <point x="220" y="457"/>
      <point x="221" y="462" type="curve"/>
      <point x="234" y="472"/>
      <point x="256" y="475"/>
      <point x="280" y="477" type="curve"/>
      <point x="277" y="532" type="line"/>
      <point x="250" y="530"/>
      <point x="203" y="527"/>
      <point x="149" y="527" type="curve" smooth="yes"/>
      <point x="95" y="527"/>
      <point x="46" y="530"/>
      <point x="18" y="532" type="curve"/>
      <point x="15" y="477" type="line"/>
      <point x="40" y="475"/>
      <point x="64" y="472"/>
      <point x="75" y="462" type="curve"/>
      <point x="78" y="455"/>
      <point x="81" y="388"/>
      <point x="81" y="321" type="curve" smooth="yes"/>
      <point x="81" y="207" type="line" smooth="yes"/>
      <point x="81" y="140"/>
      <point x="78" y="73"/>
      <point x="75" y="66" type="curve"/>
      <point x="64" y="57"/>
      <point x="40" y="54"/>
      <point x="16" y="50" type="curve"/>
    </contour>
  </outline>
</glyph>
<glyph name="germandbls" format="1">
  <advance width="532"/>
  <unicode hex="00DF"/>
  <outline>
    <contour>
      <point x="366" y="-6" type="curve" smooth="yes"/>
      <point x="463" y="-6"/>
      <point x="525" y="42"/>
      <point x="525" y="124" type="curve" smooth="yes"/>
      <point x="525" y="255"/>
      <point x="363" y="240"/>
      <point x="363" y="299" type="curve" smooth="yes"/>
      <point x="363" y="334"/>
      <point x="429" y="374"/>
      <point x="431" y="434" type="curve" smooth="yes"/>
      <point x="432" y="512"/>
      <point x="364" y="558"/>
      <point x="266" y="558" type="curve" smooth="yes"/>
      <point x="136" y="558"/>
      <point x="56" y="478"/>
      <point x="56" y="369" type="curve" smooth="yes"/>
      <point x="56" y="296" type="line"/>
      <point x="58" y="174" type="line" smooth="yes"/>
      <point x="59" y="98"/>
      <point x="53" y="64"/>
      <point x="53" y="60" type="curve"/>
      <point x="40" y="51"/>
      <point x="31" y="47"/>
      <point x="8" y="42" type="curve"/>
      <point x="11" y="-4" type="line"/>
      <point x="38" y="-1"/>
      <point x="81" y="1"/>
      <point x="133" y="1" type="curve" smooth="yes"/>
      <point x="180" y="1"/>
      <point x="216" y="-1"/>
      <point x="232" y="-4" type="curve"/>
      <point x="233" y="42" type="line"/>
      <point x="221" y="47"/>
      <point x="210" y="51"/>
      <point x="195" y="57" type="curve"/>
      <point x="193" y="66"/>
      <point x="194" y="90"/>
      <point x="193" y="217" type="curve" smooth="yes"/>
      <point x="192" y="415" type="line"/>
      <point x="192" y="470"/>
      <point x="216" y="502"/>
      <point x="258" y="502" type="curve" smooth="yes"/>
      <point x="287" y="502"/>
      <point x="319" y="488"/>
      <point x="319" y="420" type="curve" smooth="yes"/>
      <point x="319" y="349"/>
      <point x="245" y="318"/>
      <point x="245" y="254" type="curve" smooth="yes"/>
      <point x="245" y="135"/>
      <point x="405" y="161"/>
      <point x="405" y="81" type="curve" smooth="yes"/>
      <point x="405" y="66"/>
      <point x="392" y="52"/>
      <point x="369" y="52" type="curve" smooth="yes"/>
      <point x="356" y="52"/>
      <point x="334" y="52"/>
      <point x="315" y="66" type="curve"/>
      <point x="311" y="79"/>
      <point x="307" y="97"/>
      <point x="303" y="124" type="curve"/>
      <point x="247" y="124" type="line"/>
      <point x="248" y="78"/>
      <point x="250" y="58"/>
      <point x="252" y="23" type="curve"/>
      <point x="283" y="7"/>
      <point x="323" y="-6"/>
    </contour>
    <contour>
      <point x="-4" y="296" type="line"/>
      <point x="113" y="296" type="line"/>
      <point x="113" y="358" type="line"/>
      <point x="56" y="363" type="line"/>
      <point x="36" y="354"/>
      <point x="16" y="347"/>
      <point x="-4" y="344" type="curve"/>
    </contour>
  </outline>
</glyph>
<glyph name="eth" format="1">
  <advance width="441"/>
  <unicode hex="00F0"/>
  <outline>
    <contour>
      <point x="321" y="294" type="curve"/>
      <point x="344" y="351" type="line"/>
      <point x="319" y="356"/>
      <point x="283" y="364"/>
      <point x="257" y="364" type="curve" smooth="yes"/>
      <point x="116" y="364"/>
      <point x="29" y="296"/>
      <point x="29" y="179" type="curve" smooth="yes"/>
      <point x="29" y="81"/>
      <point x="113" y="-6"/>
      <point x="228" y="-6" type="curve" smooth="yes"/>
      <point x="338" y="-6"/>
      <point x="414" y="74"/>
      <point x="414" y="221" type="curve" smooth="yes"/>
      <point x="414" y="374"/>
      <point x="308" y="524"/>
      <point x="169" y="550" type="curve"/>
      <point x="23" y="550" type="line"/>
      <point x="21" y="500" type="line"/>
      <point x="203" y="457"/>
      <point x="280" y="366"/>
      <point x="280" y="177" type="curve" smooth="yes"/>
      <point x="280" y="93"/>
      <point x="267" y="60"/>
      <point x="244" y="60" type="curve" smooth="yes"/>
      <point x="213" y="60"/>
      <point x="171" y="91"/>
      <point x="171" y="196" type="curve" smooth="yes"/>
      <point x="171" y="260"/>
      <point x="203" y="302"/>
      <point x="256" y="302" type="curve" smooth="yes"/>
      <point x="275" y="302"/>
      <point x="301" y="297"/>
    </contour>
    <contour>
      <point x="66" y="363" type="line"/>
      <point x="375" y="502" type="line"/>
      <point x="351" y="558" type="line"/>
      <point x="42" y="420" type="line"/>
    </contour>
  </outline>
</glyph>
<glyph name="oslash" format="1">
  <advance width="446"/>
  <unicode hex="00F8"/>
  <outline>
    <component base="slashlongcomb" xOffset="-17.056"/>
    <component base="o"/>
    <contour>
      <point x="223" y="359" type="move" name="top"/>
    </contour>
  </outline>
</glyph>
<glyph name="thorn" format="1">
  <advance width="468"/>
  <unicode hex="00FE"/>
  <outline>
    <contour>
      <point x="7" y="-183" type="line"/>
      <point x="31" y="-179"/>
      <point x="75" y="-176"/>
      <point x="123" y="-176" type="curve" smooth="yes"/>
      <point x="171" y="-176"/>
      <point x="213" y="-179"/>
      <point x="245" y="-183" type="curve"/>
      <point x="249" y="-134" type="line"/>
      <point x="225" y="-131"/>
      <point x="205" y="-126"/>
      <point x="194" y="-117" type="curve"/>
      <point x="192" y="-107"/>
      <point x="190" y="-64"/>
      <point x="190" y="-49" type="curve" smooth="yes"/>
      <point x="190" y="-1" type="line"/>
      <point x="207" y="-5"/>
      <point x="214" y="-6"/>
      <point x="232" y="-6" type="curve" smooth="yes"/>
      <point x="365" y="-6"/>
      <point x="441" y="97"/>
      <point x="441" y="199" type="curve" smooth="yes"/>
      <point x="441" y="315"/>
      <point x="366" y="366"/>
      <point x="296" y="366" type="curve" smooth="yes"/>
      <point x="253" y="366"/>
      <point x="209" y="335"/>
      <point x="189" y="297" type="curve"/>
      <point x="187" y="298" type="line"/>
      <point x="191" y="431"/>
      <point x="193" y="478"/>
      <point x="198" y="544" type="curve"/>
      <point x="171" y="561" type="line"/>
      <point x="118" y="536"/>
      <point x="54" y="519"/>
      <point x="-6" y="507" type="curve"/>
      <point x="-5" y="456" type="line"/>
      <point x="10" y="457"/>
      <point x="30" y="455"/>
      <point x="54" y="452" type="curve"/>
      <point x="56" y="424"/>
      <point x="59" y="411"/>
      <point x="59" y="273" type="curve"/>
      <point x="57" y="54" type="line" smooth="yes"/>
      <point x="56" y="-64"/>
      <point x="52" y="-111"/>
      <point x="52" y="-117" type="curve"/>
      <point x="40" y="-126"/>
      <point x="24" y="-130"/>
      <point x="4" y="-134" type="curve"/>
    </contour>
    <contour>
      <point x="233" y="69" type="curve" smooth="yes"/>
      <point x="218" y="69"/>
      <point x="202" y="73"/>
      <point x="190" y="77" type="curve"/>
      <point x="190" y="249" type="line"/>
      <point x="200" y="258"/>
      <point x="218" y="266"/>
      <point x="233" y="266" type="curve" smooth="yes"/>
      <point x="262" y="266"/>
      <point x="299" y="255"/>
      <point x="300" y="166" type="curve" smooth="yes"/>
      <point x="300" y="85"/>
      <point x="269" y="69"/>
    </contour>
  </outline>
</glyph>
<glyph name="aogonek" format="1">
  <advance width="418"/>
  <unicode hex="0105"/>
  <outline>
    <contour>
      <point x="409" y="-98" type="line"/>
      <point x="388" y="-118"/>
      <point x="370" y="-125"/>
      <point x="355" y="-125" type="curve" smooth="yes"/>
      <point x="333" y="-125"/>
      <point x="316" y="-111"/>
      <point x="316" y="-84" type="curve" smooth="yes"/>
      <point x="316" y="-56"/>
      <point x="334" y="-30"/>
      <point x="421" y="36" type="curve"/>
      <point x="421" y="77" type="line"/>
      <point x="402" y="80"/>
      <point x="388" y="82"/>
      <point x="369" y="90" type="curve"/>
      <point x="362" y="110"/>
      <point x="362" y="124"/>
      <point x="362" y="148" type="curve" smooth="yes"/>
      <point x="364" y="239" type="line" smooth="yes"/>
      <point x="365" y="317"/>
      <point x="300" y="366"/>
      <point x="194" y="366" type="curve"/>
      <point x="154" y="362"/>
      <point x="34" y="308"/>
      <point x="34" y="257" type="curve" smooth="yes"/>
      <point x="34" y="220"/>
      <point x="73" y="197"/>
      <point x="140" y="211" type="curve"/>
      <point x="145" y="276" type="line" smooth="yes"/>
      <point x="147" y="292"/>
      <point x="154" y="294"/>
      <point x="163" y="294" type="curve" smooth="yes"/>
      <point x="190" y="294"/>
      <point x="228" y="264"/>
      <point x="228" y="232" type="curve" smooth="yes"/>
      <point x="228" y="217" type="line"/>
      <point x="100" y="184" type="line" smooth="yes"/>
      <point x="46" y="170"/>
      <point x="27" y="140"/>
      <point x="27" y="101" type="curve" smooth="yes"/>
      <point x="27" y="59"/>
      <point x="72" y="-6"/>
      <point x="151" y="-6" type="curve" smooth="yes"/>
      <point x="180" y="-6"/>
      <point x="219" y="19"/>
      <point x="252" y="62" type="curve"/>
      <point x="232" y="73" type="line"/>
      <point x="250" y="31" type="line" smooth="yes"/>
      <point x="262" y="3"/>
      <point x="282" y="-13"/>
      <point x="334" y="-4" type="curve"/>
      <point x="319" y="1" type="line"/>
      <point x="255" y="-27"/>
      <point x="225" y="-58"/>
      <point x="225" y="-90" type="curve" smooth="yes"/>
      <point x="225" y="-143"/>
      <point x="278" y="-178"/>
      <point x="337" y="-178" type="curve" smooth="yes"/>
      <point x="377" y="-178"/>
      <point x="410" y="-165"/>
      <point x="434" y="-138" type="curve"/>
    </contour>
    <contour>
      <point x="229" y="92" type="line"/>
      <point x="222" y="91"/>
      <point x="212" y="90"/>
      <point x="206" y="90" type="curve" smooth="yes"/>
      <point x="185" y="90"/>
      <point x="163" y="111"/>
      <point x="163" y="135" type="curve" smooth="yes"/>
      <point x="163" y="154"/>
      <point x="173" y="165"/>
      <point x="200" y="167" type="curve" smooth="yes"/>
      <point x="229" y="164" type="line"/>
    </contour>
    <contour>
      <point x="211" y="359" type="move" name="top"/>
    </contour>
  </outline>
</glyph>
<glyph name="Eogonek" format="1">
  <advance width="513"/>
  <unicode hex="0118"/>
  <outline>
    <contour>
      <point x="348" y="176" type="curve"/>
      <point x="402" y="176" type="line"/>
      <point x="402" y="207"/>
      <point x="400" y="240"/>
      <point x="400" y="270" type="curve" smooth="yes"/>
      <point x="400" y="301"/>
      <point x="402" y="330"/>
      <point x="402" y="361" type="curve"/>
      <point x="348" y="361" type="line"/>
      <point x="346" y="342"/>
      <point x="341" y="307"/>
      <point x="339" y="303" type="curve"/>
      <point x="331" y="304"/>
      <point x="310" y="301"/>
      <point x="285" y="301" type="curve" smooth="yes"/>
      <point x="245" y="301" type="line" smooth="yes"/>
      <point x="222" y="301"/>
      <point x="202" y="304"/>
      <point x="195" y="304" type="curve"/>
      <point x="195" y="236" type="line"/>
      <point x="202" y="237"/>
      <point x="222" y="239"/>
      <point x="245" y="239" type="curve" smooth="yes"/>
      <point x="285" y="239" type="line" smooth="yes"/>
      <point x="310" y="239"/>
      <point x="331" y="237"/>
      <point x="339" y="237" type="curve"/>
      <point x="341" y="233"/>
      <point x="346" y="195"/>
    </contour>
    <contour>
      <point x="496" y="-98" type="line"/>
      <point x="475" y="-118"/>
      <point x="457" y="-125"/>
      <point x="442" y="-125" type="curve" smooth="yes"/>
      <point x="420" y="-125"/>
      <point x="403" y="-111"/>
      <point x="403" y="-84" type="curve" smooth="yes"/>
      <point x="403" y="-57"/>
      <point x="425" y="-29"/>
      <point x="469" y="0" type="curve"/>
      <point x="509" y="147" type="line"/>
      <point x="455" y="158" type="line"/>
      <point x="438" y="126"/>
      <point x="423" y="94"/>
      <point x="404" y="62" type="curve"/>
      <point x="385" y="58"/>
      <point x="378" y="58"/>
      <point x="341" y="58" type="curve" smooth="yes"/>
      <point x="304" y="58" type="line" smooth="yes"/>
      <point x="265" y="58"/>
      <point x="243" y="60"/>
      <point x="219" y="63" type="curve"/>
      <point x="217" y="81"/>
      <point x="217" y="120"/>
      <point x="217" y="189" type="curve" smooth="yes"/>
      <point x="217" y="353" type="line" smooth="yes"/>
      <point x="217" y="422"/>
      <point x="217" y="455"/>
      <point x="219" y="471" type="curve"/>
      <point x="235" y="474"/>
      <point x="262" y="474"/>
      <point x="279" y="474" type="curve" smooth="yes"/>
      <point x="335" y="474" type="line" smooth="yes"/>
      <point x="351" y="474"/>
      <point x="361" y="473"/>
      <point x="379" y="470" type="curve"/>
      <point x="392" y="444"/>
      <point x="398" y="422"/>
      <point x="414" y="385" type="curve"/>
      <point x="470" y="392" type="line"/>
      <point x="443" y="533" type="line"/>
      <point x="412" y="532"/>
      <point x="331" y="528"/>
      <point x="291" y="528" type="curve" smooth="yes"/>
      <point x="149" y="528" type="line" smooth="yes"/>
      <point x="107" y="528"/>
      <point x="46" y="530"/>
      <point x="19" y="532" type="curve"/>
      <point x="16" y="477" type="line"/>
      <point x="40" y="477"/>
      <point x="64" y="472"/>
      <point x="75" y="462" type="curve"/>
      <point x="78" y="455"/>
      <point x="81" y="388"/>
      <point x="81" y="321" type="curve" smooth="yes"/>
      <point x="81" y="207" type="line" smooth="yes"/>
      <point x="81" y="140"/>
      <point x="78" y="73"/>
      <point x="75" y="66" type="curve"/>
      <point x="64" y="57"/>
      <point x="40" y="54"/>
      <point x="16" y="50" type="curve"/>
      <point x="19" y="-5" type="line"/>
      <point x="46" y="-2"/>
      <point x="107" y="0"/>
      <point x="149" y="0" type="curve" smooth="yes"/>
      <point x="397" y="0" type="line"/>
      <point x="340" y="-26"/>
      <point x="312" y="-59"/>
      <point x="312" y="-90" type="curve" smooth="yes"/>
      <point x="312" y="-143"/>
      <point x="365" y="-178"/>
      <point x="424" y="-178" type="curve" smooth="yes"/>
      <point x="464" y="-178"/>
      <point x="496" y="-165"/>
      <point x="521" y="-138" type="curve"/>
    </contour>
    <contour>
      <point x="257" y="0" type="move" name="bottom"/>
    </contour>
    <contour>
      <point x="257" y="528" type="move" name="top"/>
    </contour>
    <contour>
      <point x="16" y="528" type="move" name="topleft"/>
    </contour>
  </outline>
</glyph>
<glyph name="eogonek" format="1">
  <advance width="408"/>
  <unicode hex="0119"/>
  <outline>
    <contour>
      <point x="357" y="-98" type="line"/>
      <point x="336" y="-118"/>
      <point x="319" y="-125"/>
      <point x="303" y="-125" type="curve" smooth="yes"/>
      <point x="282" y="-125"/>
      <point x="265" y="-111"/>
      <point x="265" y="-81" type="curve" smooth="yes"/>
      <point x="265" y="-45"/>
      <point x="286" y="-17"/>
      <point x="337" y="39" type="curve" smooth="yes"/>
      <point x="357" y="62"/>
      <point x="374" y="86"/>
      <point x="382" y="107" type="curve"/>
      <point x="354" y="134" type="line"/>
      <point x="327" y="106"/>
      <point x="298" y="93"/>
      <point x="262" y="93" type="curve" smooth="yes"/>
      <point x="195" y="93"/>
      <point x="155" y="141"/>
      <point x="155" y="203" type="curve" smooth="yes"/>
      <point x="155" y="227" type="line" smooth="yes"/>
      <point x="155" y="282"/>
      <point x="177" y="310"/>
      <point x="211" y="310" type="curve" smooth="yes"/>
      <point x="245" y="310"/>
      <point x="263" y="282"/>
      <point x="263" y="242" type="curve" smooth="yes"/>
      <point x="263" y="204" type="line"/>
      <point x="279" y="232" type="line"/>
      <point x="153" y="232" type="line"/>
      <point x="153" y="184" type="line"/>
      <point x="376" y="184" type="line"/>
      <point x="376" y="208" type="line" smooth="yes"/>
      <point x="376" y="302"/>
      <point x="316" y="366"/>
      <point x="217" y="366" type="curve" smooth="yes"/>
      <point x="119" y="365"/>
      <point x="26" y="282"/>
      <point x="26" y="176" type="curve" smooth="yes"/>
      <point x="26" y="81"/>
      <point x="102" y="-6"/>
      <point x="213" y="-6" type="curve" smooth="yes"/>
      <point x="224" y="-6"/>
      <point x="235" y="-9"/>
      <point x="271" y="3" type="curve"/>
      <point x="268" y="9" type="line"/>
      <point x="193" y="-26"/>
      <point x="173" y="-60"/>
      <point x="173" y="-90" type="curve" smooth="yes"/>
      <point x="173" y="-143"/>
      <point x="227" y="-178"/>
      <point x="285" y="-178" type="curve" smooth="yes"/>
      <point x="325" y="-178"/>
      <point x="358" y="-165"/>
      <point x="382" y="-138" type="curve"/>
    </contour>
    <contour>
      <point x="212" y="359" type="move" name="top"/>
    </contour>
  </outline>
</glyph>
<glyph name="Iogonek" format="1">
  <advance width="299"/>
  <unicode hex="012E"/>
  <outline>
    <contour>
      <point x="218" y="207" type="curve" smooth="yes"/>
      <point x="218" y="321" type="line" smooth="yes"/>
      <point x="218" y="388"/>
      <point x="221" y="455"/>
      <point x="224" y="462" type="curve"/>
      <point x="235" y="472"/>
      <point x="259" y="475"/>
      <point x="283" y="477" type="curve"/>
      <point x="280" y="532" type="line"/>
      <point x="253" y="530"/>
      <point x="204" y="529"/>
      <point x="150" y="529" type="curve" smooth="yes"/>
      <point x="96" y="529"/>
      <point x="46" y="530"/>
      <point x="19" y="532" type="curve"/>
      <point x="16" y="477" type="line"/>
      <point x="40" y="475"/>
      <point x="64" y="472"/>
      <point x="75" y="462" type="curve"/>
      <point x="78" y="455"/>
      <point x="81" y="388"/>
      <point x="81" y="321" type="curve" smooth="yes"/>
      <point x="81" y="207" type="line" smooth="yes"/>
      <point x="81" y="140"/>
      <point x="78" y="73"/>
      <point x="75" y="66" type="curve"/>
      <point x="64" y="57"/>
      <point x="40" y="54"/>
      <point x="16" y="50" type="curve"/>
      <point x="19" y="-5" type="line"/>
      <point x="51" y="-1"/>
      <point x="112" y="2"/>
      <point x="193" y="2" type="curve"/>
      <point x="200" y="13" type="line"/>
      <point x="103" y="-9"/>
      <point x="50" y="-51"/>
      <point x="50" y="-93" type="curve" smooth="yes"/>
      <point x="50" y="-147"/>
      <point x="103" y="-178"/>
      <point x="161" y="-178" type="curve" smooth="yes"/>
      <point x="201" y="-178"/>
      <point x="234" y="-165"/>
      <point x="258" y="-138" type="curve"/>
      <point x="233" y="-98" type="line"/>
      <point x="212" y="-118"/>
      <point x="194" y="-125"/>
      <point x="179" y="-125" type="curve" smooth="yes"/>
      <point x="158" y="-125"/>
      <point x="142" y="-111"/>
      <point x="142" y="-82" type="curve" smooth="yes"/>
      <point x="142" y="-27"/>
      <point x="220" y="0"/>
      <point x="280" y="0" type="curve"/>
      <point x="283" y="50" type="line"/>
      <point x="259" y="54"/>
      <point x="235" y="57"/>
      <point x="224" y="66" type="curve"/>
      <point x="221" y="73"/>
      <point x="218" y="140"/>
    </contour>
    <contour>
      <point x="150" y="528" type="move" name="top"/>
    </contour>
    <contour>
      <point x="16" y="528" type="move" name="topleft"/>
    </contour>
  </outline>
</glyph>
<glyph name="kgreenlandic" format="1">
  <advance width="486"/>
  <unicode hex="0138"/>
  <outline>
    <contour>
      <point x="7" y="-2" type="line"/>
      <point x="37" y="0"/>
      <point x="91" y="2"/>
      <point x="128" y="2" type="curve" smooth="yes"/>
      <point x="166" y="2"/>
      <point x="219" y="0"/>
      <point x="247" y="-2" type="curve"/>
      <point x="251" y="44" type="line"/>
      <point x="229" y="48"/>
      <point x="211" y="51"/>
      <point x="200" y="61" type="curve"/>
      <point x="198" y="70"/>
      <point x="196" y="114"/>
      <point x="196" y="130" type="curve" smooth="yes"/>
      <point x="196" y="233" type="line" smooth="yes"/>
      <point x="196" y="279"/>
      <point x="198" y="314"/>
      <point x="201" y="349" type="curve"/>
      <point x="172" y="364" type="line"/>
      <point x="135" y="348"/>
      <point x="64" y="329"/>
      <point x="-1" y="318" type="curve"/>
      <point x="-1" y="273" type="line"/>
      <point x="17" y="271"/>
      <point x="38" y="270"/>
      <point x="55" y="264" type="curve"/>
      <point x="60" y="227"/>
      <point x="61" y="215"/>
      <point x="61" y="193" type="curve"/>
      <point x="60" y="136" type="line" smooth="yes"/>
      <point x="59" y="114"/>
      <point x="56" y="66"/>
      <point x="56" y="61" type="curve"/>
      <point x="44" y="51"/>
      <point x="29" y="47"/>
      <point x="4" y="43" type="curve"/>
    </contour>
    <contour>
      <point x="487" y="-2" type="curve"/>
      <point x="488" y="45" type="line"/>
      <point x="480" y="45"/>
      <point x="468" y="48"/>
      <point x="463" y="48" type="curve"/>
      <point x="455" y="53"/>
      <point x="444" y="69"/>
      <point x="423" y="97" type="curve" smooth="yes"/>
      <point x="303" y="256" type="line"/>
      <point x="291" y="213" type="line"/>
      <point x="414" y="305" type="line"/>
      <point x="426" y="309"/>
      <point x="447" y="311"/>
      <point x="470" y="314" type="curve"/>
      <point x="468" y="360" type="line"/>
      <point x="444" y="359"/>
      <point x="399" y="359"/>
      <point x="372" y="359" type="curve" smooth="yes"/>
      <point x="346" y="359"/>
      <point x="299" y="359"/>
      <point x="275" y="359" type="curve"/>
      <point x="274" y="312" type="line"/>
      <point x="282" y="312"/>
      <point x="311" y="310"/>
      <point x="324" y="306" type="curve"/>
      <point x="206" y="193" type="line"/>
      <point x="187" y="190" type="line"/>
      <point x="188" y="150" type="line"/>
      <point x="205" y="150" type="line"/>
      <point x="277" y="59" type="line" smooth="yes"/>
      <point x="292" y="40"/>
      <point x="306" y="19"/>
      <point x="319" y="0" type="curve"/>
      <point x="367" y="0"/>
      <point x="448" y="0"/>
    </contour>
  </outline>
</glyph>
<glyph name="oe" format="1">
  <advance width="668"/>
  <unicode hex="0153"/>
  <outline>
    <contour>
      <point x="227" y="-6" type="curve" smooth="yes"/>
      <point x="334" y="-6"/>
      <point x="400" y="79"/>
      <point x="400" y="186" type="curve" smooth="yes"/>
      <point x="400" y="291"/>
      <point x="329" y="366"/>
      <point x="223" y="366" type="curve" smooth="yes"/>
      <point x="110" y="366"/>
      <point x="28" y="281"/>
      <point x="28" y="173" type="curve" smooth="yes"/>
      <point x="28" y="66"/>
      <point x="113" y="-6"/>
    </contour>
    <contour>
      <point x="239" y="57" type="curve" smooth="yes"/>
      <point x="198" y="57"/>
      <point x="172" y="130"/>
      <point x="172" y="210" type="curve" smooth="yes"/>
      <point x="172" y="285"/>
      <point x="194" y="307"/>
      <point x="218" y="307" type="curve" smooth="yes"/>
      <point x="258" y="307"/>
      <point x="284" y="241"/>
      <point x="284" y="148" type="curve" smooth="yes"/>
      <point x="284" y="77"/>
      <point x="266" y="57"/>
    </contour>
    <contour>
      <point x="487" y="-6" type="curve" smooth="yes"/>
      <point x="548" y="-6"/>
      <point x="611" y="33"/>
      <point x="640" y="107" type="curve"/>
      <point x="613" y="134" type="line"/>
      <point x="586" y="106"/>
      <point x="558" y="93"/>
      <point x="521" y="93" type="curve" smooth="yes"/>
      <point x="453" y="93"/>
      <point x="413" y="141"/>
      <point x="413" y="207" type="curve" smooth="yes"/>
      <point x="413" y="222" type="line" smooth="yes"/>
      <point x="413" y="289"/>
      <point x="435" y="310"/>
      <point x="468" y="310" type="curve" smooth="yes"/>
      <point x="506" y="310"/>
      <point x="518" y="274"/>
      <point x="518" y="242" type="curve" smooth="yes"/>
      <point x="518" y="204" type="line"/>
      <point x="538" y="232" type="line"/>
      <point x="406" y="232" type="line"/>
      <point x="404" y="184" type="line"/>
      <point x="633" y="184" type="line"/>
      <point x="633" y="208" type="line" smooth="yes"/>
      <point x="633" y="292"/>
      <point x="580" y="366"/>
      <point x="479" y="366" type="curve" smooth="yes"/>
      <point x="380" y="365"/>
      <point x="297" y="283"/>
      <point x="297" y="182" type="curve" smooth="yes"/>
      <point x="297" y="81"/>
      <point x="373" y="-6"/>
    </contour>
    <contour>
      <point x="349" y="0" type="move" name="bottom"/>
    </contour>
    <contour>
      <point x="349" y="359" type="move" name="top"/>
    </contour>
  </outline>
</glyph>
<glyph name="Uogonek" format="1">
  <advance width="619"/>
  <unicode hex="0172"/>
  <outline>
    <contour>
      <point x="607" y="530" type="line"/>
      <point x="576" y="530"/>
      <point x="527" y="529"/>
      <point x="503" y="529" type="curve" smooth="yes"/>
      <point x="481" y="529"/>
      <point x="426" y="530"/>
      <point x="395" y="530" type="curve"/>
      <point x="393" y="475" type="line"/>
      <point x="420" y="475"/>
      <point x="444" y="472"/>
      <point x="455" y="462" type="curve"/>
      <point x="458" y="455"/>
      <point x="461" y="358"/>
      <point x="461" y="305" type="curve" smooth="yes"/>
      <point x="461" y="247" type="line" smooth="yes"/>
      <point x="461" y="130"/>
      <point x="415" y="87"/>
      <point x="346" y="87" type="curve" smooth="yes"/>
      <point x="262" y="87"/>
      <point x="214" y="134"/>
      <point x="215" y="249" type="curve" smooth="yes"/>
      <point x="217" y="321" type="line" smooth="yes"/>
      <point x="219" y="388"/>
      <point x="219" y="440"/>
      <point x="224" y="462" type="curve"/>
      <point x="235" y="472"/>
      <point x="259" y="475"/>
      <point x="286" y="475" type="curve"/>
      <point x="283" y="530" type="line"/>
      <point x="252" y="530"/>
      <point x="203" y="528"/>
      <point x="148" y="528" type="curve" smooth="yes"/>
      <point x="93" y="528"/>
      <point x="43" y="530"/>
      <point x="16" y="530" type="curve"/>
      <point x="13" y="475" type="line"/>
      <point x="37" y="475"/>
      <point x="61" y="472"/>
      <point x="72" y="462" type="curve"/>
      <point x="75" y="455"/>
      <point x="78" y="388"/>
      <point x="78" y="321" type="curve" smooth="yes"/>
      <point x="78" y="232" type="line" smooth="yes"/>
      <point x="78" y="75"/>
      <point x="167" y="-8"/>
      <point x="321" y="-8" type="curve" smooth="yes"/>
      <point x="347" y="-8" type="line"/>
      <point x="372" y="24" type="line"/>
      <point x="275" y="-6"/>
      <point x="230" y="-48"/>
      <point x="230" y="-90" type="curve" smooth="yes"/>
      <point x="230" y="-143"/>
      <point x="284" y="-178"/>
      <point x="342" y="-178" type="curve" smooth="yes"/>
      <point x="382" y="-178"/>
      <point x="415" y="-165"/>
      <point x="439" y="-138" type="curve"/>
      <point x="414" y="-98" type="line"/>
      <point x="393" y="-118"/>
      <point x="376" y="-125"/>
      <point x="360" y="-125" type="curve" smooth="yes"/>
      <point x="339" y="-125"/>
      <point x="322" y="-111"/>
      <point x="322" y="-84" type="curve" smooth="yes"/>
      <point x="322" y="-57"/>
      <point x="339" y="-25"/>
      <point x="415" y="9" type="curve" smooth="yes"/>
      <point x="492" y="42"/>
      <point x="541" y="117"/>
      <point x="541" y="228" type="curve" smooth="yes"/>
      <point x="541" y="305" type="line" smooth="yes"/>
      <point x="541" y="358"/>
      <point x="544" y="455"/>
      <point x="548" y="462" type="curve"/>
      <point x="559" y="472"/>
      <point x="576" y="475"/>
      <point x="610" y="475" type="curve"/>
    </contour>
    <contour>
      <point x="340" y="528" type="move" name="top"/>
    </contour>
    <contour>
      <point x="603" y="528" type="move" name="topright"/>
    </contour>
  </outline>
</glyph>
<glyph name="uogonek" format="1">
  <advance width="489"/>
  <unicode hex="0173"/>
  <outline>
    <contour>
      <point x="406" y="-178" type="curve" smooth="yes"/>
      <point x="446" y="-178"/>
      <point x="479" y="-165"/>
      <point x="504" y="-138" type="curve"/>
      <point x="478" y="-98" type="line"/>
      <point x="457" y="-118"/>
      <point x="440" y="-125"/>
      <point x="424" y="-125" type="curve" smooth="yes"/>
      <point x="403" y="-125"/>
      <point x="386" y="-111"/>
      <point x="386" y="-88" type="curve" smooth="yes"/>
      <point x="386" y="-56"/>
      <point x="417" y="-17"/>
      <point x="491" y="35" type="curve"/>
      <point x="491" y="79" type="line"/>
      <point x="470" y="82"/>
      <point x="456" y="81"/>
      <point x="434" y="89" type="curve"/>
      <point x="431" y="129"/>
      <point x="430" y="143"/>
      <point x="430" y="152" type="curve" smooth="yes"/>
      <point x="430" y="223" type="line" smooth="yes"/>
      <point x="430" y="262"/>
      <point x="431" y="314"/>
      <point x="434" y="349" type="curve"/>
      <point x="405" y="364" type="line"/>
      <point x="363" y="348"/>
      <point x="297" y="329"/>
      <point x="234" y="318" type="curve"/>
      <point x="234" y="273" type="line"/>
      <point x="253" y="270"/>
      <point x="276" y="268"/>
      <point x="295" y="262" type="curve"/>
      <point x="298" y="226"/>
      <point x="298" y="222"/>
      <point x="298" y="171" type="curve" smooth="yes"/>
      <point x="298" y="119" type="line"/>
      <point x="286" y="101"/>
      <point x="266" y="92"/>
      <point x="249" y="92" type="curve" smooth="yes"/>
      <point x="210" y="92"/>
      <point x="188" y="116"/>
      <point x="189" y="162" type="curve" smooth="yes"/>
      <point x="191" y="209" type="line" smooth="yes"/>
      <point x="192" y="255"/>
      <point x="192" y="314"/>
      <point x="195" y="349" type="curve"/>
      <point x="166" y="364" type="line"/>
      <point x="122" y="348"/>
      <point x="58" y="329"/>
      <point x="-6" y="318" type="curve"/>
      <point x="-6" y="273" type="line"/>
      <point x="11" y="271"/>
      <point x="34" y="270"/>
      <point x="53" y="264" type="curve"/>
      <point x="57" y="227"/>
      <point x="56" y="222"/>
      <point x="56" y="214" type="curve" smooth="yes"/>
      <point x="56" y="147" type="line" smooth="yes"/>
      <point x="56" y="44"/>
      <point x="108" y="-9"/>
      <point x="190" y="-9" type="curve" smooth="yes"/>
      <point x="229" y="-9"/>
      <point x="270" y="9"/>
      <point x="300" y="62" type="curve"/>
      <point x="302" y="61" type="line"/>
      <point x="301" y="5" type="line"/>
      <point x="319" y="-3" type="line"/>
      <point x="387" y="2" type="line"/>
      <point x="392" y="9" type="line"/>
      <point x="335" y="-21"/>
      <point x="294" y="-57"/>
      <point x="294" y="-90" type="curve" smooth="yes"/>
      <point x="294" y="-143"/>
      <point x="348" y="-178"/>
    </contour>
    <contour>
      <point x="244" y="359" type="move" name="top"/>
    </contour>
    <contour>
      <point x="405" y="359" type="move" name="topright"/>
    </contour>
  </outline>
</glyph>
<glyph name="Ohorn" format="1">
  <advance width="646"/>
  <unicode hex="01A0"/>
  <outline>
    <contour>
      <point x="638" y="585" type="curve" smooth="yes"/>
      <point x="638" y="643"/>
      <point x="589" y="645"/>
      <point x="533" y="639" type="curve"/>
      <point x="531" y="585" type="line" smooth="yes"/>
      <point x="531" y="558"/>
      <point x="507" y="524"/>
      <point x="465" y="524" type="curve" smooth="yes"/>
      <point x="439" y="524"/>
      <point x="390" y="536"/>
      <point x="339" y="536" type="curve" smooth="yes"/>
      <point x="159" y="536"/>
      <point x="39" y="418"/>
      <point x="39" y="255" type="curve" smooth="yes"/>
      <point x="39" y="101"/>
      <point x="162" y="-8"/>
      <point x="330" y="-8" type="curve" smooth="yes"/>
      <point x="443" y="-8"/>
      <point x="607" y="75"/>
      <point x="607" y="273" type="curve" smooth="yes"/>
      <point x="607" y="368"/>
      <point x="562" y="444"/>
      <point x="493" y="489" type="curve"/>
      <point x="433" y="482" type="line"/>
      <point x="549" y="447"/>
      <point x="638" y="507"/>
    </contour>
    <contour>
      <point x="335" y="67" type="curve" smooth="yes"/>
      <point x="255" y="67"/>
      <point x="198" y="156"/>
      <point x="198" y="286" type="curve" smooth="yes"/>
      <point x="198" y="397"/>
      <point x="241" y="470"/>
      <point x="318" y="470" type="curve" smooth="yes"/>
      <point x="399" y="470"/>
      <point x="449" y="382"/>
      <point x="449" y="249" type="curve" smooth="yes"/>
      <point x="449" y="128"/>
      <point x="412" y="67"/>
    </contour>
    <contour>
      <point x="323" y="0" type="move" name="bottom"/>
    </contour>
    <contour>
      <point x="323" y="264" type="move" name="center"/>
    </contour>
    <contour>
      <point x="323" y="528" type="move" name="top"/>
    </contour>
    <contour>
      <point x="16" y="528" type="move" name="topleft"/>
    </contour>
  </outline>
</glyph>
<glyph name="ohorn" format="1">
  <advance width="446"/>
  <unicode hex="01A1"/>
  <outline>
    <contour>
      <point x="442" y="388" type="curve" smooth="yes"/>
      <point x="442" y="427"/>
      <point x="403" y="452"/>
      <point x="336" y="442" type="curve"/>
      <point x="331" y="374" type="line" smooth="yes"/>
      <point x="329" y="360"/>
      <point x="325" y="354"/>
      <point x="303" y="354" type="curve" smooth="yes"/>
      <point x="283" y="354"/>
      <point x="271" y="366"/>
      <point x="221" y="366" type="curve" smooth="yes"/>
      <point x="127" y="366"/>
      <point x="26" y="301"/>
      <point x="26" y="173" type="curve" smooth="yes"/>
      <point x="26" y="68"/>
      <point x="110" y="-6"/>
      <point x="226" y="-6" type="curve" smooth="yes"/>
      <point x="333" y="-6"/>
      <point x="420" y="77"/>
      <point x="420" y="185" type="curve" smooth="yes"/>
      <point x="420" y="245"/>
      <point x="392" y="300"/>
      <point x="347" y="332" type="curve"/>
      <point x="331" y="308" type="line"/>
      <point x="352" y="309"/>
      <point x="442" y="332"/>
    </contour>
    <contour>
      <point x="235" y="59" type="curve" smooth="yes"/>
      <point x="198" y="59"/>
      <point x="169" y="125"/>
      <point x="169" y="208" type="curve" smooth="yes"/>
      <point x="169" y="269"/>
      <point x="186" y="305"/>
      <point x="214" y="305" type="curve" smooth="yes"/>
      <point x="252" y="305"/>
      <point x="278" y="242"/>
      <point x="278" y="149" type="curve" smooth="yes"/>
      <point x="278" y="87"/>
      <point x="265" y="59"/>
    </contour>
    <contour>
      <point x="223" y="0" type="move" name="bottom"/>
    </contour>
    <contour>
      <point x="223" y="180" type="move" name="center"/>
    </contour>
    <contour>
      <point x="276" y="0" type="move" name="ogonek"/>
    </contour>
    <contour>
      <point x="223" y="359" type="move" name="top"/>
    </contour>
  </outline>
</glyph>
<glyph name="acutecomb" format="1">
  <advance width="480"/>
  <unicode hex="0301"/>
  <outline>
    <contour>
      <point x="269" y="387" type="line"/>
      <point x="407" y="523" type="line"/>
      <point x="290" y="542" type="line"/>
      <point x="211" y="409" type="line"/>
    </contour>
    <contour>
      <point x="240" y="359" type="move" name="_top"/>
    </contour>
    <contour>
      <point x="240" y="550" type="move" name="top"/>
    </contour>
  </outline>
</glyph>
<glyph name="hookabovecomb" format="1">
  <advance width="480"/>
  <unicode hex="0309"/>
  <outline>
    <contour>
      <point x="240" y="539" type="curve" smooth="yes"/>
      <point x="184" y="539"/>
      <point x="148" y="514"/>
      <point x="148" y="486" type="curve" smooth="yes"/>
      <point x="148" y="471"/>
      <point x="160" y="461"/>
      <point x="177" y="461" type="curve" smooth="yes"/>
      <point x="192" y="461"/>
      <point x="202" y="467"/>
      <point x="209" y="474" type="curve" smooth="yes"/>
      <point x="245" y="517" type="line"/>
      <point x="208" y="499" type="line"/>
      <point x="240" y="507"/>
      <point x="253" y="503"/>
      <point x="253" y="489" type="curve" smooth="yes"/>
      <point x="253" y="468"/>
      <point x="218" y="444"/>
      <point x="218" y="409" type="curve" smooth="yes"/>
      <point x="218" y="396" type="line"/>
      <point x="261" y="396" type="line"/>
      <point x="261" y="422"/>
      <point x="337" y="437"/>
      <point x="337" y="482" type="curve" smooth="yes"/>
      <point x="337" y="518"/>
      <point x="300" y="539"/>
    </contour>
    <contour>
      <point x="240" y="359" type="move" name="_top"/>
    </contour>
    <contour>
      <point x="240" y="550" type="move" name="top"/>
    </contour>
  </outline>
</glyph>
<glyph name="Sigma" format="1">
  <advance width="482"/>
  <unicode hex="03A3"/>
  <outline>
    <contour>
      <point x="377" y="197" type="line"/>
      <point x="369" y="158"/>
      <point x="364" y="146"/>
      <point x="357" y="119" type="curve"/>
      <point x="338" y="117"/>
      <point x="319" y="115"/>
      <point x="280" y="115" type="curve" smooth="yes"/>
      <point x="73" y="115" type="line"/>
      <point x="80" y="30" type="line"/>
      <point x="301" y="271" type="line"/>
      <point x="142" y="513" type="line"/>
      <point x="140" y="470" type="line"/>
      <point x="275" y="470" type="line" smooth="yes"/>
      <point x="314" y="470"/>
      <point x="333" y="468"/>
      <point x="352" y="466" type="curve"/>
      <point x="359" y="439"/>
      <point x="364" y="419"/>
      <point x="371" y="372" type="curve"/>
      <point x="433" y="372" type="line"/>
      <point x="435" y="530" type="line"/>
      <point x="406" y="528"/>
      <point x="365" y="528"/>
      <point x="342" y="528" type="curve" smooth="yes"/>
      <point x="84" y="528" type="line" smooth="yes"/>
      <point x="60" y="528"/>
      <point x="36" y="529"/>
      <point x="12" y="530" type="curve"/>
      <point x="12" y="475" type="line"/>
      <point x="202" y="196" type="line"/>
      <point x="220" y="282" type="line"/>
      <point x="14" y="53" type="line"/>
      <point x="14" y="-2" type="line"/>
      <point x="37" y="-1"/>
      <point x="62" y="0"/>
      <point x="86" y="0" type="curve" smooth="yes"/>
      <point x="345" y="0" type="line" smooth="yes"/>
      <point x="368" y="0"/>
      <point x="409" y="0"/>
      <point x="438" y="-2" type="curve"/>
      <point x="436" y="197" type="line"/>
    </contour>
  </outline>
</glyph>
<glyph name="Omega" format="1">
  <advance width="762"/>
  <unicode hex="03A9"/>
  <outline>
    <contour>
      <point x="50" y="-7" type="line"/>
      <point x="77" y="-4"/>
      <point x="160" y="0"/>
      <point x="209" y="0" type="curve" smooth="yes"/>
      <point x="340" y="0" type="line"/>
      <point x="351" y="47" type="line"/>
      <point x="283" y="137"/>
      <point x="246" y="223"/>
      <point x="246" y="295" type="curve" smooth="yes"/>
      <point x="246" y="406"/>
      <point x="294" y="466"/>
      <point x="381" y="466" type="curve" smooth="yes"/>
      <point x="467" y="466"/>
      <point x="515" y="406"/>
      <point x="515" y="295" type="curve" smooth="yes"/>
      <point x="515" y="223"/>
      <point x="479" y="137"/>
      <point x="411" y="47" type="curve"/>
      <point x="421" y="0" type="line"/>
      <point x="552" y="0" type="line" smooth="yes"/>
      <point x="602" y="0"/>
      <point x="685" y="-4"/>
      <point x="711" y="-7" type="curve"/>
      <point x="758" y="166" type="line"/>
      <point x="697" y="181" type="line"/>
      <point x="681" y="151"/>
      <point x="665" y="114"/>
      <point x="646" y="81" type="curve"/>
      <point x="632" y="79"/>
      <point x="626" y="75"/>
      <point x="583" y="75" type="curve" smooth="yes"/>
      <point x="479" y="75" type="line"/>
      <point x="506" y="62" type="line"/>
      <point x="605" y="114"/>
      <point x="675" y="219"/>
      <point x="675" y="320" type="curve" smooth="yes"/>
      <point x="675" y="438"/>
      <point x="557" y="536"/>
      <point x="381" y="536" type="curve" smooth="yes"/>
      <point x="205" y="536"/>
      <point x="87" y="438"/>
      <point x="87" y="320" type="curve" smooth="yes"/>
      <point x="87" y="219"/>
      <point x="157" y="129"/>
      <point x="255" y="62" type="curve"/>
      <point x="282" y="75" type="line"/>
      <point x="179" y="75" type="line" smooth="yes"/>
      <point x="136" y="75"/>
      <point x="129" y="79"/>
      <point x="116" y="81" type="curve"/>
      <point x="97" y="114"/>
      <point x="81" y="151"/>
      <point x="65" y="181" type="curve"/>
      <point x="4" y="166" type="line"/>
    </contour>
  </outline>
</glyph>
<glyph name="mu" format="1">
  <advance width="489"/>
  <unicode hex="03BC"/>
  <outline>
    <contour>
      <point x="434" y="89" type="curve"/>
      <point x="431" y="129"/>
      <point x="430" y="143"/>
      <point x="430" y="152" type="curve" smooth="yes"/>
      <point x="430" y="223" type="line" smooth="yes"/>
      <point x="430" y="262"/>
      <point x="431" y="314"/>
      <point x="434" y="349" type="curve"/>
      <point x="405" y="364" type="line"/>
      <point x="363" y="348"/>
      <point x="297" y="329"/>
      <point x="234" y="318" type="curve"/>
      <point x="234" y="273" type="line"/>
      <point x="253" y="270"/>
      <point x="276" y="268"/>
      <point x="295" y="262" type="curve"/>
      <point x="298" y="226"/>
      <point x="298" y="222"/>
      <point x="298" y="171" type="curve" smooth="yes"/>
      <point x="298" y="119" type="line"/>
      <point x="286" y="101"/>
      <point x="266" y="92"/>
      <point x="249" y="92" type="curve" smooth="yes"/>
      <point x="210" y="92"/>
      <point x="188" y="147"/>
      <point x="189" y="193" type="curve" smooth="yes"/>
      <point x="191" y="209" type="line" smooth="yes"/>
      <point x="191" y="255"/>
      <point x="192" y="314"/>
      <point x="195" y="349" type="curve"/>
      <point x="166" y="364" type="line"/>
      <point x="122" y="348"/>
      <point x="58" y="329"/>
      <point x="-6" y="318" type="curve"/>
      <point x="-6" y="273" type="line"/>
      <point x="11" y="271"/>
      <point x="34" y="270"/>
      <point x="53" y="264" type="curve"/>
      <point x="57" y="227"/>
      <point x="56" y="222"/>
      <point x="56" y="229" type="curve" smooth="yes"/>
      <point x="53" y="55"/>
      <point x="42" y="-12"/>
      <point x="42" y="-89" type="curve" smooth="yes"/>
      <point x="42" y="-155"/>
      <point x="84" y="-185"/>
      <point x="128" y="-185" type="curve" smooth="yes"/>
      <point x="173" y="-185"/>
      <point x="207" y="-146"/>
      <point x="207" y="-81" type="curve" smooth="yes"/>
      <point x="207" y="-42"/>
      <point x="193" y="-25"/>
      <point x="165" y="11" type="curve"/>
      <point x="171" y="-2" type="line"/>
      <point x="182" y="19"/>
      <point x="201" y="-9"/>
      <point x="216" y="-9" type="curve" smooth="yes"/>
      <point x="242" y="-9"/>
      <point x="266" y="9"/>
      <point x="300" y="62" type="curve"/>
      <point x="302" y="61" type="line"/>
      <point x="301" y="2" type="line"/>
      <point x="330" y="-12" type="line"/>
      <point x="367" y="4"/>
      <point x="428" y="23"/>
      <point x="491" y="35" type="curve"/>
      <point x="491" y="79" type="line"/>
      <point x="470" y="82"/>
      <point x="456" y="81"/>
    </contour>
  </outline>
</glyph>
<glyph name="pi" format="1">
  <advance width="580"/>
  <unicode hex="03C0"/>
  <outline>
    <contour>
      <point x="422" y="-9" type="curve" smooth="yes"/>
      <point x="477" y="-9"/>
      <point x="534" y="20"/>
      <point x="566" y="95" type="curve"/>
      <point x="528" y="134" type="line"/>
      <point x="515" y="112"/>
      <point x="491" y="93"/>
      <point x="476" y="93" type="curve" smooth="yes"/>
      <point x="447" y="93"/>
      <point x="438" y="117"/>
      <point x="439" y="171" type="curve" smooth="yes"/>
      <point x="439" y="329" type="line"/>
      <point x="304" y="328" type="line"/>
      <point x="299" y="125" type="line" smooth="yes"/>
      <point x="297" y="51"/>
      <point x="341" y="-9"/>
    </contour>
    <contour>
      <point x="87" y="-8" type="curve" smooth="yes"/>
      <point x="171" y="-8"/>
      <point x="211" y="48"/>
      <point x="218" y="189" type="curve" smooth="yes"/>
      <point x="225" y="337" type="line"/>
      <point x="146" y="337" type="line"/>
      <point x="139" y="171" type="line" smooth="yes"/>
      <point x="134" y="55"/>
      <point x="125" y="39"/>
      <point x="91" y="39" type="curve"/>
      <point x="149" y="34" type="line"/>
      <point x="94" y="83" type="line" smooth="yes"/>
      <point x="75" y="100"/>
      <point x="56" y="106"/>
      <point x="37" y="106" type="curve" smooth="yes"/>
      <point x="8" y="106"/>
      <point x="-8" y="91"/>
      <point x="-8" y="62" type="curve" smooth="yes"/>
      <point x="-8" y="23"/>
      <point x="34" y="-8"/>
    </contour>
    <contour>
      <point x="44" y="272" type="line"/>
      <point x="85" y="289"/>
      <point x="120" y="296"/>
      <point x="147" y="296" type="curve" smooth="yes"/>
      <point x="435" y="296" type="line" smooth="yes"/>
      <point x="458" y="296"/>
      <point x="492" y="295"/>
      <point x="525" y="294" type="curve"/>
      <point x="534" y="355"/>
      <point x="539" y="400"/>
      <point x="543" y="420" type="curve"/>
      <point x="483" y="420" type="line"/>
      <point x="478" y="405"/>
      <point x="469" y="381"/>
      <point x="461" y="364" type="curve"/>
      <point x="432" y="360"/>
      <point x="415" y="359"/>
      <point x="401" y="359" type="curve" smooth="yes"/>
      <point x="162" y="359" type="line" smooth="yes"/>
      <point x="120" y="359"/>
      <point x="77" y="356"/>
      <point x="24" y="333" type="curve"/>
    </contour>
  </outline>
</glyph>
<glyph name="endash" format="1">
  <advance width="400"/>
  <unicode hex="2013"/>
  <outline>
    <contour>
      <point x="0" y="156" type="line"/>
      <point x="400" y="156" type="line"/>
      <point x="400" y="218" type="line"/>
      <point x="0" y="218" type="line"/>
    </contour>
  </outline>
</glyph>
<glyph name="dagger" format="1">
  <advance width="426"/>
  <unicode hex="2020"/>
  <outline>
    <contour>
      <point x="353" y="417" type="curve" smooth="yes"/>
      <point x="325" y="417"/>
      <point x="278" y="392"/>
      <point x="239" y="381" type="curve"/>
      <point x="249" y="420"/>
      <point x="273" y="469"/>
      <point x="273" y="496" type="curve" smooth="yes"/>
      <point x="273" y="541"/>
      <point x="247" y="558"/>
      <point x="213" y="558" type="curve" smooth="yes"/>
      <point x="179" y="558"/>
      <point x="153" y="541"/>
      <point x="153" y="496" type="curve" smooth="yes"/>
      <point x="153" y="469"/>
      <point x="177" y="420"/>
      <point x="186" y="381" type="curve"/>
      <point x="148" y="392"/>
      <point x="101" y="417"/>
      <point x="73" y="417" type="curve" smooth="yes"/>
      <point x="31" y="417"/>
      <point x="15" y="389"/>
      <point x="15" y="352" type="curve" smooth="yes"/>
      <point x="15" y="315"/>
      <point x="31" y="287"/>
      <point x="73" y="287" type="curve" smooth="yes"/>
      <point x="99" y="287"/>
      <point x="141" y="309"/>
      <point x="178" y="322" type="curve"/>
      <point x="168" y="305"/>
      <point x="156" y="284"/>
      <point x="141" y="246" type="curve"/>
      <point x="172" y="153"/>
      <point x="181" y="83"/>
      <point x="191" y="0" type="curve"/>
      <point x="237" y="0" type="line"/>
      <point x="248" y="83"/>
      <point x="253" y="153"/>
      <point x="285" y="246" type="curve"/>
      <point x="270" y="284"/>
      <point x="258" y="305"/>
      <point x="248" y="322" type="curve"/>
      <point x="285" y="309"/>
      <point x="326" y="287"/>
      <point x="353" y="287" type="curve" smooth="yes"/>
      <point x="394" y="287"/>
      <point x="411" y="315"/>
      <point x="411" y="352" type="curve" smooth="yes"/>
      <point x="411" y="389"/>
      <point x="394" y="417"/>
    </contour>
  </outline>
</glyph>
<glyph name="daggerdbl" format="1">
  <advance width="426"/>
  <unicode hex="2021"/>
  <outline>
    <contour>
      <point x="353" y="262" type="curve" smooth="yes"/>
      <point x="328" y="262"/>
      <point x="285" y="240"/>
      <point x="249" y="227" type="curve"/>
      <point x="259" y="235"/>
      <point x="270" y="247"/>
      <point x="285" y="274" type="curve"/>
      <point x="270" y="302"/>
      <point x="259" y="314"/>
      <point x="249" y="322" type="curve"/>
      <point x="285" y="309"/>
      <point x="328" y="287"/>
      <point x="353" y="287" type="curve" smooth="yes"/>
      <point x="394" y="287"/>
      <point x="411" y="315"/>
      <point x="411" y="352" type="curve" smooth="yes"/>
      <point x="411" y="389"/>
      <point x="394" y="417"/>
      <point x="353" y="417" type="curve" smooth="yes"/>
      <point x="325" y="417"/>
      <point x="278" y="392"/>
      <point x="239" y="381" type="curve"/>
      <point x="249" y="420"/>
      <point x="273" y="469"/>
      <point x="273" y="496" type="curve" smooth="yes"/>
      <point x="273" y="541"/>
      <point x="247" y="558"/>
      <point x="213" y="558" type="curve" smooth="yes"/>
      <point x="179" y="558"/>
      <point x="153" y="541"/>
      <point x="153" y="496" type="curve" smooth="yes"/>
      <point x="153" y="469"/>
      <point x="177" y="420"/>
      <point x="186" y="381" type="curve"/>
      <point x="148" y="392"/>
      <point x="101" y="417"/>
      <point x="73" y="417" type="curve" smooth="yes"/>
      <point x="31" y="417"/>
      <point x="15" y="389"/>
      <point x="15" y="352" type="curve" smooth="yes"/>
      <point x="15" y="315"/>
      <point x="31" y="287"/>
      <point x="73" y="287" type="curve" smooth="yes"/>
      <point x="98" y="287"/>
      <point x="141" y="309"/>
      <point x="177" y="322" type="curve"/>
      <point x="167" y="314"/>
      <point x="156" y="302"/>
      <point x="141" y="274" type="curve"/>
      <point x="156" y="247"/>
      <point x="167" y="235"/>
      <point x="177" y="227" type="curve"/>
      <point x="141" y="240"/>
      <point x="98" y="262"/>
      <point x="73" y="262" type="curve" smooth="yes"/>
      <point x="31" y="262"/>
      <point x="15" y="234"/>
      <point x="15" y="197" type="curve" smooth="yes"/>
      <point x="15" y="160"/>
      <point x="31" y="132"/>
      <point x="73" y="132" type="curve" smooth="yes"/>
      <point x="101" y="132"/>
      <point x="148" y="157"/>
      <point x="186" y="168" type="curve"/>
      <point x="177" y="128"/>
      <point x="153" y="80"/>
      <point x="153" y="53" type="curve" smooth="yes"/>
      <point x="153" y="8"/>
      <point x="179" y="-9"/>
      <point x="213" y="-9" type="curve" smooth="yes"/>
      <point x="247" y="-9"/>
      <point x="273" y="8"/>
      <point x="273" y="53" type="curve" smooth="yes"/>
      <point x="273" y="80"/>
      <point x="249" y="128"/>
      <point x="239" y="168" type="curve"/>
      <point x="278" y="157"/>
      <point x="325" y="132"/>
      <point x="353" y="132" type="curve" smooth="yes"/>
      <point x="394" y="132"/>
      <point x="411" y="160"/>
      <point x="411" y="197" type="curve" smooth="yes"/>
      <point x="411" y="234"/>
      <point x="394" y="262"/>
    </contour>
  </outline>
</glyph>
<glyph name="perthousand" format="1">
  <advance width="1043"/>
  <unicode hex="2030"/>
  <outline>
    <contour>
      <point x="861" y="-9" type="curve" smooth="yes"/>
      <point x="943" y="-9"/>
      <point x="1010" y="52"/>
      <point x="1010" y="132" type="curve" smooth="yes"/>
      <point x="1010" y="215"/>
      <point x="947" y="273"/>
      <point x="861" y="273" type="curve" smooth="yes"/>
      <point x="781" y="273"/>
      <point x="713" y="211"/>
      <point x="713" y="132" type="curve" smooth="yes"/>
      <point x="713" y="49"/>
      <point x="774" y="-9"/>
    </contour>
    <contour>
      <point x="861" y="78" type="curve" smooth="yes"/>
      <point x="831" y="78"/>
      <point x="808" y="98"/>
      <point x="808" y="133" type="curve" smooth="yes"/>
      <point x="808" y="167"/>
      <point x="831" y="187"/>
      <point x="861" y="187" type="curve" smooth="yes"/>
      <point x="893" y="187"/>
      <point x="917" y="168"/>
      <point x="917" y="133" type="curve" smooth="yes"/>
      <point x="917" y="98"/>
      <point x="893" y="78"/>
    </contour>
    <component base="percent"/>
  </outline>
</glyph>
<glyph name="second" format="1">
  <advance width="491"/>
  <unicode hex="2033"/>
  <outline>
    <contour>
      <point x="129" y="558" type="curve" smooth="yes"/>
      <point x="82" y="558"/>
      <point x="47" y="517"/>
      <point x="47" y="455" type="curve" smooth="yes"/>
      <point x="47" y="400"/>
      <point x="88" y="265"/>
      <point x="108" y="190" type="curve"/>
      <point x="150" y="190" type="line"/>
      <point x="170" y="265"/>
      <point x="211" y="400"/>
      <point x="211" y="455" type="curve" smooth="yes"/>
      <point x="211" y="517"/>
      <point x="175" y="558"/>
    </contour>
    <contour>
      <point x="362" y="558" type="curve" smooth="yes"/>
      <point x="315" y="558"/>
      <point x="280" y="517"/>
      <point x="280" y="455" type="curve" smooth="yes"/>
      <point x="280" y="400"/>
      <point x="321" y="265"/>
      <point x="341" y="190" type="curve"/>
      <point x="384" y="190" type="line"/>
      <point x="403" y="265"/>
      <point x="444" y="400"/>
      <point x="444" y="455" type="curve" smooth="yes"/>
      <point x="444" y="517"/>
      <point x="408" y="558"/>
    </contour>
  </outline>
</glyph>
<glyph name="guilsinglleft" format="1">
  <advance width="347"/>
  <unicode hex="2039"/>
  <outline>
    <contour>
      <point x="295" y="315" type="line"/>
      <point x="260" y="353" type="line"/>
      <point x="57" y="205" type="line"/>
      <point x="57" y="157" type="line"/>
      <point x="260" y="9" type="line"/>
      <point x="295" y="47" type="line"/>
      <point x="167" y="213" type="line"/>
      <point x="167" y="149" type="line"/>
    </contour>
  </outline>
</glyph>
<glyph name="guilsinglright" format="1">
  <advance width="347"/>
  <unicode hex="203A"/>
  <outline>
    <contour>
      <point x="52" y="315" type="line"/>
      <point x="180" y="149" type="line"/>
      <point x="180" y="213" type="line"/>
      <point x="52" y="47" type="line"/>
      <point x="87" y="9" type="line"/>
      <point x="290" y="157" type="line"/>
      <point x="290" y="205" type="line"/>
      <point x="87" y="353" type="line"/>
    </contour>
  </outline>
</glyph>
<glyph name="peseta" format="1">
  <advance width="566"/>
  <unicode hex="20A7"/>
  <outline>
    <contour>
      <point x="23" y="-5" type="line"/>
      <point x="48" y="-2"/>
      <point x="115" y="-1"/>
      <point x="156" y="-1" type="curve" smooth="yes"/>
      <point x="197" y="-1"/>
      <point x="267" y="-2"/>
      <point x="296" y="-5" type="curve"/>
      <point x="299" y="51" type="line"/>
      <point x="274" y="54"/>
      <point x="253" y="56"/>
      <point x="222" y="66" type="curve"/>
      <point x="219" y="73"/>
      <point x="216" y="140"/>
      <point x="216" y="146" type="curve" smooth="yes"/>
      <point x="216" y="284" type="line" smooth="yes"/>
      <point x="216" y="419"/>
      <point x="215" y="452"/>
      <point x="216" y="468" type="curve"/>
      <point x="225" y="471"/>
      <point x="236" y="471"/>
      <point x="250" y="471" type="curve" smooth="yes"/>
      <point x="308" y="471"/>
      <point x="343" y="426"/>
      <point x="343" y="351" type="curve" smooth="yes"/>
      <point x="343" y="294"/>
      <point x="315" y="256"/>
      <point x="262" y="256" type="curve" smooth="yes"/>
      <point x="235" y="256"/>
      <point x="213" y="261"/>
      <point x="203" y="268" type="curve"/>
      <point x="203" y="198" type="line"/>
      <point x="218" y="195"/>
      <point x="243" y="191"/>
      <point x="259" y="191" type="curve" smooth="yes"/>
      <point x="402" y="191"/>
      <point x="488" y="272"/>
      <point x="488" y="366" type="curve" smooth="yes"/>
      <point x="488" y="468"/>
      <point x="406" y="529"/>
      <point x="270" y="529" type="curve" smooth="yes"/>
      <point x="227" y="529"/>
      <point x="195" y="527"/>
      <point x="162" y="527" type="curve" smooth="yes"/>
      <point x="103" y="527"/>
      <point x="46" y="526"/>
      <point x="19" y="529" type="curve"/>
      <point x="16" y="474" type="line"/>
      <point x="40" y="473"/>
      <point x="64" y="472"/>
      <point x="75" y="462" type="curve"/>
      <point x="78" y="455"/>
      <point x="81" y="388"/>
      <point x="81" y="321" type="curve" smooth="yes"/>
      <point x="81" y="207" type="line" smooth="yes"/>
      <point x="81" y="140"/>
      <point x="78" y="73"/>
      <point x="75" y="66" type="curve"/>
      <point x="64" y="57"/>
      <point x="41" y="54"/>
      <point x="20" y="50" type="curve"/>
    </contour>
    <contour>
      <point x="2" y="330" type="line"/>
      <point x="555" y="330" type="line"/>
      <point x="555" y="391" type="line"/>
      <point x="2" y="391" type="line"/>
    </contour>
  </outline>
</glyph>
<glyph name="dong" format="1">
  <advance width="466"/>
  <unicode hex="20AB"/>
  <outline>
    <contour>
      <point x="42" y="-84" type="line"/>
      <point x="465" y="-84" type="line"/>
      <point x="465" y="-31" type="line"/>
      <point x="42" y="-31" type="line"/>
    </contour>
    <component base="dcroat"/>
  </outline>
</glyph>
<glyph name="estimated" format="1">
  <advance width="715"/>
  <unicode hex="212E"/>
  <outline>
    <contour>
      <point x="358" y="-4" type="curve" smooth="yes"/>
      <point x="490" y="-4"/>
      <point x="557" y="32"/>
      <point x="620" y="107" type="curve"/>
      <point x="563" y="107" type="line"/>
      <point x="509" y="54"/>
      <point x="446" y="22"/>
      <point x="356" y="22" type="curve" smooth="yes"/>
      <point x="273" y="22"/>
      <point x="205" y="48"/>
      <point x="162" y="99" type="curve" smooth="yes"/>
      <point x="158" y="104"/>
      <point x="157" y="115"/>
      <point x="157" y="122" type="curve" smooth="yes"/>
      <point x="157" y="260" type="line" smooth="yes"/>
      <point x="157" y="263"/>
      <point x="158" y="265"/>
      <point x="161" y="265" type="curve" smooth="yes"/>
      <point x="675" y="265" type="line"/>
      <point x="675" y="410"/>
      <point x="602" y="568"/>
      <point x="357" y="568" type="curve" smooth="yes"/>
      <point x="159" y="568"/>
      <point x="40" y="426"/>
      <point x="40" y="276" type="curve" smooth="yes"/>
      <point x="40" y="126"/>
      <point x="156" y="-4"/>
    </contour>
    <contour>
      <point x="161" y="290" type="line"/>
      <point x="158" y="290"/>
      <point x="157" y="291"/>
      <point x="157" y="294" type="curve" smooth="yes"/>
      <point x="157" y="446" type="line" smooth="yes"/>
      <point x="157" y="454"/>
      <point x="159" y="462"/>
      <point x="164" y="467" type="curve" smooth="yes"/>
      <point x="221" y="524"/>
      <point x="292" y="543"/>
      <point x="354" y="543" type="curve" smooth="yes"/>
      <point x="410" y="543"/>
      <point x="495" y="530"/>
      <point x="550" y="466" type="curve" smooth="yes"/>
      <point x="555" y="460"/>
      <point x="558" y="452"/>
      <point x="558" y="445" type="curve" smooth="yes"/>
      <point x="558" y="294" type="line" smooth="yes"/>
      <point x="558" y="291"/>
      <point x="557" y="290"/>
      <point x="554" y="290" type="curve" smooth="yes"/>
    </contour>
  </outline>
</glyph>
<glyph name="emptyset" format="1">
  <advance width="480"/>
  <unicode hex="2205"/>
  <outline>
    <contour>
      <point x="21" y="16" type="line"/>
      <point x="63" y="-13" type="line"/>
      <point x="127" y="69" type="line"/>
      <point x="161" y="50"/>
      <point x="199" y="40"/>
      <point x="241" y="40" type="curve" smooth="yes"/>
      <point x="370" y="40"/>
      <point x="477" y="142"/>
      <point x="477" y="266" type="curve" smooth="yes"/>
      <point x="477" y="332"/>
      <point x="448" y="387"/>
      <point x="406" y="429" type="curve"/>
      <point x="470" y="509" type="line"/>
      <point x="428" y="542" type="line"/>
      <point x="364" y="461" type="line"/>
      <point x="327" y="482"/>
      <point x="284" y="493"/>
      <point x="241" y="493" type="curve" smooth="yes"/>
      <point x="105" y="493"/>
      <point x="3" y="386"/>
      <point x="3" y="266" type="curve" smooth="yes"/>
      <point x="3" y="196"/>
      <point x="35" y="136"/>
      <point x="84" y="97" type="curve"/>
    </contour>
    <contour>
      <point x="123" y="150" type="line"/>
      <point x="90" y="178"/>
      <point x="71" y="219"/>
      <point x="71" y="266" type="curve" smooth="yes"/>
      <point x="71" y="359"/>
      <point x="145" y="427"/>
      <point x="241" y="427" type="curve" smooth="yes"/>
      <point x="272" y="427"/>
      <point x="300" y="419"/>
      <point x="324" y="406" type="curve"/>
    </contour>
    <contour>
      <point x="241" y="106" type="curve" smooth="yes"/>
      <point x="214" y="106"/>
      <point x="188" y="111"/>
      <point x="165" y="120" type="curve"/>
      <point x="367" y="376" type="line"/>
      <point x="393" y="346"/>
      <point x="410" y="309"/>
      <point x="410" y="266" type="curve" smooth="yes"/>
      <point x="410" y="172"/>
      <point x="332" y="106"/>
    </contour>
  </outline>
</glyph>
<glyph name="product" format="1">
  <advance width="606"/>
  <unicode hex="220F"/>
  <outline>
    <contour>
      <point x="524" y="207" type="curve" smooth="yes"/>
      <point x="524" y="321" type="line" smooth="yes"/>
      <point x="524" y="388"/>
      <point x="528" y="455"/>
      <point x="531" y="462" type="curve"/>
      <point x="542" y="472"/>
      <point x="566" y="475"/>
      <point x="589" y="477" type="curve"/>
      <point x="586" y="532" type="line"/>
      <point x="560" y="530"/>
      <point x="509" y="528"/>
      <point x="455" y="528" type="curve" smooth="yes"/>
      <point x="150" y="528" type="line" smooth="yes"/>
      <point x="96" y="528"/>
      <point x="46" y="530"/>
      <point x="19" y="532" type="curve"/>
      <point x="16" y="477" type="line"/>
      <point x="40" y="475"/>
      <point x="64" y="472"/>
      <point x="75" y="462" type="curve"/>
      <point x="78" y="455"/>
      <point x="81" y="388"/>
      <point x="81" y="321" type="curve" smooth="yes"/>
      <point x="81" y="207" type="line" smooth="yes"/>
      <point x="81" y="140"/>
      <point x="78" y="73"/>
      <point x="75" y="66" type="curve"/>
      <point x="64" y="57"/>
      <point x="40" y="54"/>
      <point x="16" y="50" type="curve"/>
      <point x="19" y="-5" type="line"/>
      <point x="46" y="-2"/>
      <point x="96" y="2"/>
      <point x="150" y="2" type="curve" smooth="yes"/>
      <point x="204" y="2"/>
      <point x="251" y="-2"/>
      <point x="277" y="-5" type="curve"/>
      <point x="280" y="50" type="line"/>
      <point x="257" y="54"/>
      <point x="235" y="57"/>
      <point x="224" y="66" type="curve"/>
      <point x="221" y="73"/>
      <point x="218" y="140"/>
      <point x="218" y="207" type="curve" smooth="yes"/>
      <point x="218" y="321" type="line" smooth="yes"/>
      <point x="218" y="376"/>
      <point x="220" y="438"/>
      <point x="223" y="457" type="curve"/>
      <point x="244" y="459"/>
      <point x="270" y="459"/>
      <point x="302" y="459" type="curve" smooth="yes"/>
      <point x="334" y="459"/>
      <point x="361" y="459"/>
      <point x="382" y="457" type="curve"/>
      <point x="386" y="438"/>
      <point x="387" y="376"/>
      <point x="387" y="321" type="curve" smooth="yes"/>
      <point x="387" y="207" type="line" smooth="yes"/>
      <point x="387" y="140"/>
      <point x="384" y="73"/>
      <point x="381" y="66" type="curve"/>
      <point x="370" y="57"/>
      <point x="349" y="54"/>
      <point x="325" y="50" type="curve"/>
      <point x="328" y="-5" type="line"/>
      <point x="355" y="-2"/>
      <point x="401" y="2"/>
      <point x="455" y="2" type="curve" smooth="yes"/>
      <point x="509" y="2"/>
      <point x="560" y="-2"/>
      <point x="586" y="-5" type="curve"/>
      <point x="589" y="50" type="line"/>
      <point x="566" y="54"/>
      <point x="542" y="57"/>
      <point x="531" y="66" type="curve"/>
      <point x="528" y="73"/>
      <point x="524" y="140"/>
    </contour>
  </outline>
</glyph>
<glyph name="radical" format="1">
  <advance width="470"/>
  <unicode hex="221A"/>
  <outline>
    <contour>
      <point x="218" y="-3" type="line"/>
      <point x="266" y="-3" type="line"/>
      <point x="473" y="528" type="line"/>
      <point x="396" y="528" type="line"/>
      <point x="265" y="153" type="line"/>
      <point x="300" y="152" type="line"/>
      <point x="234" y="296" type="line" smooth="yes"/>
      <point x="224" y="322"/>
      <point x="215" y="340"/>
      <point x="208" y="361" type="curve"/>
      <point x="183" y="359"/>
      <point x="56" y="359"/>
      <point x="20" y="359" type="curve"/>
      <point x="17" y="314" type="line"/>
      <point x="49" y="310"/>
      <point x="64" y="306"/>
      <point x="73" y="302" type="curve"/>
    </contour>
  </outline>
</glyph>
<glyph name="infinity" format="1">
  <advance width="480"/>
  <unicode hex="221E"/>
  <outline>
    <contour>
      <point x="24" y="211" type="curve" smooth="yes"/>
      <point x="24" y="136"/>
      <point x="74" y="85"/>
      <point x="139" y="85" type="curve" smooth="yes"/>
      <point x="180" y="85"/>
      <point x="227" y="120"/>
      <point x="243" y="182" type="curve"/>
      <point x="226" y="181" type="line"/>
      <point x="194" y="175"/>
      <point x="171" y="172"/>
      <point x="143" y="172" type="curve" smooth="yes"/>
      <point x="103" y="172"/>
      <point x="81" y="194"/>
      <point x="81" y="220" type="curve" smooth="yes"/>
      <point x="81" y="245"/>
      <point x="98" y="260"/>
      <point x="123" y="260" type="curve" smooth="yes"/>
      <point x="154" y="260"/>
      <point x="174" y="236"/>
      <point x="192" y="206" type="curve" smooth="yes"/>
      <point x="234" y="127"/>
      <point x="262" y="85"/>
      <point x="327" y="85" type="curve" smooth="yes"/>
      <point x="406" y="85"/>
      <point x="456" y="139"/>
      <point x="456" y="221" type="curve" smooth="yes"/>
      <point x="456" y="296"/>
      <point x="406" y="347"/>
      <point x="341" y="347" type="curve" smooth="yes"/>
      <point x="300" y="347"/>
      <point x="253" y="313"/>
      <point x="237" y="250" type="curve"/>
      <point x="254" y="251" type="line"/>
      <point x="286" y="258"/>
      <point x="309" y="260"/>
      <point x="337" y="260" type="curve" smooth="yes"/>
      <point x="372" y="260"/>
      <point x="399" y="248"/>
      <point x="399" y="212" type="curve" smooth="yes"/>
      <point x="399" y="187"/>
      <point x="382" y="172"/>
      <point x="357" y="172" type="curve" smooth="yes"/>
      <point x="322" y="172"/>
      <point x="306" y="197"/>
      <point x="281" y="242" type="curve" smooth="yes"/>
      <point x="248" y="306"/>
      <point x="202" y="347"/>
      <point x="153" y="347" type="curve" smooth="yes"/>
      <point x="75" y="347"/>
      <point x="24" y="294"/>
    </contour>
  </outline>
</glyph>
<glyph name="lessequal" format="1">
  <advance width="480"/>
  <unicode hex="2264"/>
  <outline>
    <contour>
      <point x="45" y="221" type="line"/>
      <point x="435" y="106" type="line"/>
      <point x="435" y="197" type="line"/>
      <point x="66" y="303" type="line"/>
      <point x="66" y="239" type="line"/>
      <point x="435" y="343" type="line"/>
      <point x="435" y="434" type="line"/>
      <point x="45" y="319" type="line"/>
    </contour>
    <contour>
      <point x="435" y="87" type="line"/>
      <point x="45" y="87" type="line"/>
      <point x="45" y="0" type="line"/>
      <point x="435" y="0" type="line"/>
    </contour>
  </outline>
</glyph>
<glyph name="greaterequal" format="1">
  <advance width="480"/>
  <unicode hex="2265"/>
  <outline>
    <contour>
      <point x="435" y="221" type="line"/>
      <point x="435" y="319" type="line"/>
      <point x="45" y="434" type="line"/>
      <point x="45" y="343" type="line"/>
      <point x="414" y="239" type="line"/>
      <point x="414" y="303" type="line"/>
      <point x="45" y="197" type="line"/>
      <point x="45" y="106" type="line"/>
    </contour>
    <contour>
      <point x="435" y="87" type="line"/>
      <point x="45" y="87" type="line"/>
      <point x="45" y="0" type="line"/>
      <point x="435" y="0" type="line"/>
    </contour>
  </outline>
</glyph>
<glyph name="Germandbls" format="1">
  <advance width="653"/>
  <outline>
    <contour>
      <point x="26" y="-5" type="line"/>
      <point x="53" y="-2"/>
      <point x="88" y="2"/>
      <point x="144" y="2" type="curve" smooth="yes"/>
      <point x="196" y="2"/>
      <point x="241" y="-2"/>
      <point x="259" y="-4" type="curve"/>
      <point x="260" y="51" type="line"/>
      <point x="245" y="54"/>
      <point x="231" y="57"/>
      <point x="223" y="66" type="curve"/>
      <point x="220" y="73"/>
      <point x="217" y="140"/>
      <point x="216" y="207" type="curve"/>
      <point x="214" y="323" type="line"/>
      <point x="213" y="426"/>
      <point x="261" y="474"/>
      <point x="333" y="474" type="curve" smooth="yes"/>
      <point x="377" y="474"/>
      <point x="419" y="464"/>
      <point x="439" y="418" type="curve"/>
      <point x="523" y="418" type="line"/>
      <point x="488" y="501"/>
      <point x="416" y="538"/>
      <point x="332" y="538" type="curve" smooth="yes"/>
      <point x="171" y="538"/>
      <point x="78" y="438"/>
      <point x="78" y="288" type="curve"/>
      <point x="79" y="207" type="line"/>
      <point x="79" y="140"/>
      <point x="76" y="73"/>
      <point x="73" y="66" type="curve"/>
      <point x="62" y="57"/>
      <point x="47" y="54"/>
      <point x="23" y="50" type="curve"/>
    </contour>
    <contour>
      <point x="442" y="-8" type="curve" smooth="yes"/>
      <point x="552" y="-8"/>
      <point x="641" y="52"/>
      <point x="641" y="134" type="curve" smooth="yes"/>
      <point x="641" y="282"/>
      <point x="425" y="264"/>
      <point x="425" y="338" type="curve" smooth="yes"/>
      <point x="425" y="374"/>
      <point x="457" y="387"/>
      <point x="490" y="387" type="curve" smooth="yes"/>
      <point x="499" y="387"/>
      <point x="506" y="389"/>
      <point x="523" y="384" type="curve"/>
      <point x="534" y="367"/>
      <point x="544" y="334"/>
      <point x="551" y="297" type="curve"/>
      <point x="610" y="303" type="line"/>
      <point x="600" y="427" type="line"/>
      <point x="571" y="439"/>
      <point x="513" y="446"/>
      <point x="484" y="446" type="curve" smooth="yes"/>
      <point x="384" y="446"/>
      <point x="297" y="380"/>
      <point x="297" y="295" type="curve" smooth="yes"/>
      <point x="297" y="141"/>
      <point x="511" y="185"/>
      <point x="511" y="92" type="curve" smooth="yes"/>
      <point x="511" y="61"/>
      <point x="477" y="53"/>
      <point x="443" y="53" type="curve" smooth="yes"/>
      <point x="424" y="53"/>
      <point x="404" y="54"/>
      <point x="385" y="66" type="curve"/>
      <point x="375" y="89"/>
      <point x="365" y="117"/>
      <point x="359" y="144" type="curve"/>
      <point x="299" y="137" type="line"/>
      <point x="298" y="111"/>
      <point x="300" y="63"/>
      <point x="302" y="19" type="curve"/>
      <point x="339" y="0"/>
      <point x="400" y="-8"/>
    </contour>
  </outline>
</glyph>
<glyph name="Schwa" format="1">
  <advance width="600"/>
  <outline>
    <contour>
      <point x="291" y="536" type="curve" smooth="yes"/>
      <point x="179" y="536"/>
      <point x="86" y="476"/>
      <point x="43" y="377" type="curve"/>
      <point x="70" y="349" type="line"/>
      <point x="114" y="394"/>
      <point x="168" y="415"/>
      <point x="240" y="415" type="curve" smooth="yes"/>
      <point x="342" y="415"/>
      <point x="405" y="351"/>
      <point x="405" y="250" type="curve" smooth="yes"/>
      <point x="405" y="215" type="line" smooth="yes"/>
      <point x="405" y="119"/>
      <point x="372" y="64"/>
      <point x="305" y="64" type="curve" smooth="yes"/>
      <point x="245" y="64"/>
      <point x="201" y="111"/>
      <point x="201" y="184" type="curve" smooth="yes"/>
      <point x="201" y="228" type="line"/>
      <point x="181" y="190" type="line"/>
      <point x="490" y="190" type="line"/>
      <point x="490" y="258" type="line"/>
      <point x="39" y="258" type="line"/>
      <point x="39" y="223" type="line" smooth="yes"/>
      <point x="39" y="83"/>
      <point x="147" y="-9"/>
      <point x="307" y="-8" type="curve" smooth="yes"/>
      <point x="448" y="-7"/>
      <point x="561" y="121"/>
      <point x="561" y="270" type="curve" smooth="yes"/>
      <point x="561" y="420"/>
      <point x="445" y="536"/>
    </contour>
    <contour>
      <point x="301" y="0" type="move" name="bottom"/>
    </contour>
    <contour>
      <point x="301" y="528" type="move" name="top"/>
    </contour>
  </outline>
</glyph>
<glyph name="T_h" format="1">
  <advance width="952"/>
  <outline>
    <contour>
      <point x="901" y="61" type="curve"/>
      <point x="899" y="70"/>
      <point x="898" y="116"/>
      <point x="898" y="138" type="curve" smooth="yes"/>
      <point x="898" y="217" type="line" smooth="yes"/>
      <point x="898" y="306"/>
      <point x="848" y="366"/>
      <point x="774" y="366" type="curve" smooth="yes"/>
      <point x="731" y="366"/>
      <point x="687" y="345"/>
      <point x="654" y="303" type="curve"/>
      <point x="652" y="304" type="line"/>
      <point x="654" y="431"/>
      <point x="658" y="474"/>
      <point x="662" y="536" type="curve"/>
      <point x="636" y="533"/>
      <point x="569" y="528"/>
      <point x="522" y="528" type="curve" smooth="yes"/>
      <point x="164" y="528" type="line" smooth="yes"/>
      <point x="130" y="528"/>
      <point x="50" y="532"/>
      <point x="25" y="533" type="curve"/>
      <point x="19" y="478"/>
      <point x="13" y="421"/>
      <point x="7" y="365" type="curve"/>
      <point x="67" y="360" type="line"/>
      <point x="76" y="397"/>
      <point x="87" y="434"/>
      <point x="100" y="466" type="curve"/>
      <point x="118" y="469"/>
      <point x="126" y="470"/>
      <point x="143" y="470" type="curve" smooth="yes"/>
      <point x="175" y="470" type="line" smooth="yes"/>
      <point x="183" y="470"/>
      <point x="198" y="469"/>
      <point x="204" y="466" type="curve"/>
      <point x="205" y="457"/>
      <point x="207" y="367"/>
      <point x="207" y="282" type="curve" smooth="yes"/>
      <point x="207" y="216" type="line" smooth="yes"/>
      <point x="207" y="153"/>
      <point x="203" y="97"/>
      <point x="199" y="66" type="curve"/>
      <point x="175" y="58"/>
      <point x="140" y="54"/>
      <point x="112" y="51" type="curve"/>
      <point x="115" y="-5" type="line"/>
      <point x="155" y="-2"/>
      <point x="233" y="-1"/>
      <point x="275" y="-1" type="curve" smooth="yes"/>
      <point x="316" y="-1"/>
      <point x="397" y="-2"/>
      <point x="439" y="-5" type="curve"/>
      <point x="442" y="51" type="line"/>
      <point x="413" y="54"/>
      <point x="375" y="58"/>
      <point x="350" y="66" type="curve"/>
      <point x="345" y="97"/>
      <point x="342" y="153"/>
      <point x="342" y="216" type="curve" smooth="yes"/>
      <point x="342" y="282" type="line" smooth="yes"/>
      <point x="342" y="367"/>
      <point x="344" y="457"/>
      <point x="345" y="466" type="curve"/>
      <point x="351" y="469"/>
      <point x="365" y="470"/>
      <point x="373" y="470" type="curve" smooth="yes"/>
      <point x="462" y="470" type="line" smooth="yes"/>
      <point x="475" y="470"/>
      <point x="498" y="467"/>
      <point x="516" y="464" type="curve"/>
      <point x="518" y="436"/>
      <point x="522" y="411"/>
      <point x="522" y="287" type="curve" smooth="yes"/>
      <point x="522" y="184" type="line" smooth="yes"/>
      <point x="522" y="107"/>
      <point x="517" y="66"/>
      <point x="517" y="61" type="curve"/>
      <point x="506" y="51"/>
      <point x="489" y="47"/>
      <point x="467" y="43" type="curve"/>
      <point x="471" y="-2" type="line"/>
      <point x="498" y="0"/>
      <point x="553" y="2"/>
      <point x="589" y="2" type="curve" smooth="yes"/>
      <point x="624" y="2"/>
      <point x="678" y="0"/>
      <point x="705" y="-2" type="curve"/>
      <point x="708" y="44" type="line"/>
      <point x="689" y="48"/>
      <point x="670" y="51"/>
      <point x="658" y="61" type="curve"/>
      <point x="657" y="70"/>
      <point x="655" y="114"/>
      <point x="655" y="130" type="curve" smooth="yes"/>
      <point x="655" y="245" type="line"/>
      <point x="668" y="257"/>
      <point x="687" y="266"/>
      <point x="709" y="266" type="curve" smooth="yes"/>
      <point x="743" y="266"/>
      <point x="766" y="244"/>
      <point x="766" y="191" type="curve" smooth="yes"/>
      <point x="766" y="143" type="line" smooth="yes"/>
      <point x="766" y="114"/>
      <point x="762" y="68"/>
      <point x="762" y="61" type="curve"/>
      <point x="748" y="51"/>
      <point x="734" y="47"/>
      <point x="719" y="43" type="curve"/>
      <point x="722" y="-2" type="line"/>
      <point x="749" y="0"/>
      <point x="798" y="2"/>
      <point x="833" y="2" type="curve" smooth="yes"/>
      <point x="869" y="2"/>
      <point x="920" y="0"/>
      <point x="947" y="-2" type="curve"/>
      <point x="951" y="44" type="line"/>
      <point x="931" y="48"/>
      <point x="912" y="51"/>
    </contour>
  </outline>
</glyph>
<glyph name="acutecomb.case" format="1">
  <advance width="480"/>
  <outline>
    <contour>
      <point x="271" y="556" type="line"/>
      <point x="414" y="667" type="line"/>
      <point x="298" y="686" type="line"/>
      <point x="209" y="578" type="line"/>
    </contour>
    <contour>
      <point x="240" y="528" type="move" name="_top"/>
    </contour>
    <contour>
      <point x="240" y="686" type="move" name="top"/>
    </contour>
  </outline>
</glyph>
<glyph name="acutecomb_dotaccentcomb" format="1">
  <advance width="480"/>
  <outline>
    <contour>
      <point x="269" y="387" type="line"/>
      <point x="407" y="523" type="line"/>
      <point x="290" y="542" type="line"/>
      <point x="211" y="409" type="line"/>
    </contour>
    <contour>
      <point x="220" y="510" type="curve" smooth="yes"/>
      <point x="261" y="510"/>
      <point x="283" y="542"/>
      <point x="283" y="573" type="curve" smooth="yes"/>
      <point x="283" y="604"/>
      <point x="261" y="636"/>
      <point x="220" y="636" type="curve" smooth="yes"/>
      <point x="176" y="636"/>
      <point x="154" y="604"/>
      <point x="154" y="573" type="curve" smooth="yes"/>
      <point x="154" y="542"/>
      <point x="176" y="510"/>
    </contour>
    <contour>
      <point x="240" y="359" type="move" name="_top"/>
    </contour>
  </outline>
</glyph>
<glyph name="apostrophemod" format="1">
  <advance width="480"/>
  <outline>
    <contour>
      <point x="181" y="393" type="line"/>
      <point x="281" y="412"/>
      <point x="322" y="478"/>
      <point x="322" y="526" type="curve" smooth="yes"/>
      <point x="322" y="584"/>
      <point x="281" y="601"/>
      <point x="245" y="601" type="curve" smooth="yes"/>
      <point x="205" y="601"/>
      <point x="177" y="576"/>
      <point x="177" y="546" type="curve" smooth="yes"/>
      <point x="177" y="483"/>
      <point x="242" y="497"/>
      <point x="242" y="470" type="curve" smooth="yes"/>
      <point x="242" y="457"/>
      <point x="230" y="440"/>
      <point x="167" y="428" type="curve"/>
    </contour>
    <contour>
      <point x="240" y="359" type="move" name="_top"/>
    </contour>
    <contour>
      <point x="240" y="525" type="move" name="top"/>
    </contour>
  </outline>
</glyph>
<glyph name="brevebelowcomb.case" format="1">
  <advance width="480"/>
  <outline>
    <contour>
      <point x="319" y="-55" type="line"/>
      <point x="310" y="-83"/>
      <point x="281" y="-100"/>
      <point x="243" y="-100" type="curve" smooth="yes"/>
      <point x="207" y="-100"/>
      <point x="178" y="-83"/>
      <point x="167" y="-55" type="curve"/>
      <point x="102" y="-77" type="line"/>
      <point x="111" y="-138"/>
      <point x="165" y="-182"/>
      <point x="241" y="-182" type="curve" smooth="yes"/>
      <point x="317" y="-182"/>
      <point x="368" y="-138"/>
      <point x="378" y="-77" type="curve"/>
    </contour>
    <contour>
      <point x="240" y="0" type="move" name="_bottom"/>
    </contour>
    <contour>
      <point x="240" y="-176" type="move" name="bottom"/>
    </contour>
  </outline>
</glyph>
<glyph name="brevecomb_acutecomb.case" format="1">
  <advance width="480"/>
  <outline>
    <contour>
      <point x="260" y="652" type="line"/>
      <point x="404" y="764" type="line"/>
      <point x="287" y="782" type="line"/>
      <point x="198" y="674" type="line"/>
    </contour>
    <contour>
      <point x="343" y="682" type="line"/>
      <point x="331" y="664"/>
      <point x="292" y="651"/>
      <point x="247" y="651" type="curve" smooth="yes"/>
      <point x="195" y="651"/>
      <point x="157" y="664"/>
      <point x="143" y="682" type="curve"/>
      <point x="78" y="660" type="line"/>
      <point x="92" y="608"/>
      <point x="159" y="571"/>
      <point x="241" y="571" type="curve" smooth="yes"/>
      <point x="322" y="571"/>
      <point x="388" y="608"/>
      <point x="402" y="660" type="curve"/>
    </contour>
    <contour>
      <point x="240" y="528" type="move" name="_top"/>
    </contour>
  </outline>
</glyph>
<glyph name="brevecomb_hookabovecomb" format="1">
  <advance width="480"/>
  <outline>
    <contour>
      <point x="319" y="526" type="line"/>
      <point x="310" y="497"/>
      <point x="281" y="473"/>
      <point x="243" y="473" type="curve" smooth="yes"/>
      <point x="207" y="473"/>
      <point x="178" y="497"/>
      <point x="167" y="526" type="curve"/>
      <point x="102" y="504" type="line"/>
      <point x="107" y="445"/>
      <point x="165" y="391"/>
      <point x="241" y="391" type="curve" smooth="yes"/>
      <point x="317" y="391"/>
      <point x="373" y="445"/>
      <point x="378" y="504" type="curve"/>
    </contour>
    <contour>
      <point x="240" y="632" type="curve" smooth="yes"/>
      <point x="184" y="632"/>
      <point x="148" y="607"/>
      <point x="148" y="579" type="curve" smooth="yes"/>
      <point x="148" y="564"/>
      <point x="160" y="554"/>
      <point x="177" y="554" type="curve" smooth="yes"/>
      <point x="192" y="554"/>
      <point x="202" y="560"/>
      <point x="209" y="567" type="curve" smooth="yes"/>
      <point x="245" y="610" type="line"/>
      <point x="208" y="592" type="line"/>
      <point x="240" y="600"/>
      <point x="253" y="596"/>
      <point x="253" y="582" type="curve" smooth="yes"/>
      <point x="253" y="561"/>
      <point x="218" y="537"/>
      <point x="218" y="518" type="curve" smooth="yes"/>
      <point x="218" y="504" type="line"/>
      <point x="261" y="504" type="line"/>
      <point x="261" y="515"/>
      <point x="337" y="534"/>
      <point x="337" y="580" type="curve" smooth="yes"/>
      <point x="337" y="616"/>
      <point x="300" y="632"/>
    </contour>
    <contour>
      <point x="240" y="359" type="move" name="_top"/>
    </contour>
  </outline>
</glyph>
<glyph name="brevecomb_tildecomb.case" format="1">
  <advance width="480"/>
  <outline>
    <contour>
      <point x="241" y="571" type="curve" smooth="yes"/>
      <point x="322" y="571"/>
      <point x="388" y="608"/>
      <point x="402" y="660" type="curve"/>
      <point x="343" y="682" type="line"/>
      <point x="332" y="664"/>
      <point x="293" y="651"/>
      <point x="247" y="651" type="curve" smooth="yes"/>
      <point x="196" y="651"/>
      <point x="158" y="664"/>
      <point x="143" y="682" type="curve"/>
      <point x="79" y="660" type="line"/>
      <point x="93" y="608"/>
      <point x="160" y="571"/>
    </contour>
    <contour>
      <point x="296" y="683" type="curve" smooth="yes"/>
      <point x="345" y="683"/>
      <point x="382" y="708"/>
      <point x="401" y="756" type="curve"/>
      <point x="365" y="779" type="line"/>
      <point x="349" y="768"/>
      <point x="334" y="762"/>
      <point x="315" y="762" type="curve" smooth="yes"/>
      <point x="284" y="762"/>
      <point x="225" y="781"/>
      <point x="185" y="781" type="curve" smooth="yes"/>
      <point x="136" y="781"/>
      <point x="99" y="756"/>
      <point x="80" y="708" type="curve"/>
      <point x="116" y="684" type="line"/>
      <point x="131" y="695"/>
      <point x="148" y="702"/>
      <point x="166" y="702" type="curve" smooth="yes"/>
      <point x="197" y="702"/>
      <point x="256" y="683"/>
    </contour>
    <contour>
      <point x="240" y="528" type="move" name="_top"/>
    </contour>
  </outline>
</glyph>
<glyph name="brevecomb_tildecomb" format="1">
  <advance width="480"/>
  <outline>
    <contour>
      <point x="241" y="391" type="curve" smooth="yes"/>
      <point x="317" y="391"/>
      <point x="360" y="422"/>
      <point x="378" y="483" type="curve"/>
      <point x="319" y="502" type="line"/>
      <point x="310" y="475"/>
      <point x="281" y="469"/>
      <point x="243" y="469" type="curve" smooth="yes"/>
      <point x="207" y="469"/>
      <point x="178" y="475"/>
      <point x="167" y="502" type="curve"/>
      <point x="102" y="483" type="line"/>
      <point x="120" y="422"/>
      <point x="178" y="391"/>
    </contour>
    <contour>
      <point x="288" y="524" type="curve" smooth="yes"/>
      <point x="329" y="524"/>
      <point x="359" y="555"/>
      <point x="374" y="613" type="curve"/>
      <point x="337" y="635" type="line"/>
      <point x="323" y="612"/>
      <point x="311" y="606"/>
      <point x="296" y="606" type="curve" smooth="yes"/>
      <point x="271" y="606"/>
      <point x="224" y="632"/>
      <point x="192" y="632" type="curve" smooth="yes"/>
      <point x="151" y="632"/>
      <point x="121" y="602"/>
      <point x="106" y="544" type="curve"/>
      <point x="143" y="522" type="line"/>
      <point x="155" y="544"/>
      <point x="169" y="550"/>
      <point x="183" y="550" type="curve" smooth="yes"/>
      <point x="209" y="550"/>
      <point x="256" y="524"/>
    </contour>
    <contour>
      <point x="240" y="359" type="move" name="_top"/>
    </contour>
  </outline>
</glyph>
<glyph name="caroncomb.alt" format="1">
  <advance width="480"/>
  <outline>
    <contour>
      <point x="200" y="338" type="line"/>
      <point x="271" y="362"/>
      <point x="318" y="427"/>
      <point x="318" y="486" type="curve" smooth="yes"/>
      <point x="318" y="537"/>
      <point x="277" y="554"/>
      <point x="241" y="554" type="curve" smooth="yes"/>
      <point x="205" y="554"/>
      <point x="177" y="530"/>
      <point x="177" y="499" type="curve" smooth="yes"/>
      <point x="177" y="437"/>
      <point x="236" y="451"/>
      <point x="236" y="423" type="curve" smooth="yes"/>
      <point x="236" y="406"/>
      <point x="220" y="390"/>
      <point x="180" y="374" type="curve"/>
    </contour>
    <contour>
      <point x="177" y="550" type="move" name="_topright"/>
    </contour>
  </outline>
</glyph>
<glyph name="caroncomb" format="1">
  <advance width="480"/>
  <outline>
    <contour>
      <point x="381" y="520" type="line"/>
      <point x="323" y="542" type="line"/>
      <point x="211" y="441" type="line"/>
      <point x="267" y="441" type="line"/>
      <point x="157" y="542" type="line"/>
      <point x="99" y="520" type="line"/>
      <point x="187" y="394" type="line"/>
      <point x="293" y="394" type="line"/>
    </contour>
    <contour>
      <point x="240" y="359" type="move" name="_top"/>
    </contour>
    <contour>
      <point x="240" y="550" type="move" name="top"/>
    </contour>
  </outline>
</glyph>
<glyph name="caroncomb_dotaccentcomb.case" format="1">
  <advance width="480"/>
  <outline>
    <contour>
      <point x="241" y="655" type="curve" smooth="yes"/>
      <point x="282" y="655"/>
      <point x="304" y="687"/>
      <point x="304" y="718" type="curve" smooth="yes"/>
      <point x="304" y="749"/>
      <point x="282" y="781"/>
      <point x="241" y="781" type="curve" smooth="yes"/>
      <point x="197" y="781"/>
      <point x="176" y="749"/>
      <point x="176" y="718" type="curve" smooth="yes"/>
      <point x="176" y="687"/>
      <point x="197" y="655"/>
    </contour>
    <contour>
      <point x="75" y="652" type="line"/>
      <point x="187" y="574" type="line"/>
      <point x="293" y="574" type="line"/>
      <point x="405" y="652" type="line"/>
      <point x="357" y="682" type="line"/>
      <point x="212" y="622" type="line"/>
      <point x="268" y="622" type="line"/>
      <point x="123" y="682" type="line"/>
    </contour>
    <contour>
      <point x="240" y="528" type="move" name="_top"/>
    </contour>
  </outline>
</glyph>
<glyph name="caroncomb_dotaccentcomb" format="1">
  <advance width="480"/>
  <outline>
    <contour>
      <point x="381" y="520" type="line"/>
      <point x="323" y="542" type="line"/>
      <point x="211" y="441" type="line"/>
      <point x="267" y="441" type="line"/>
      <point x="157" y="542" type="line"/>
      <point x="99" y="520" type="line"/>
      <point x="187" y="394" type="line"/>
      <point x="293" y="394" type="line"/>
    </contour>
    <contour>
      <point x="241" y="510" type="curve" smooth="yes"/>
      <point x="282" y="510"/>
      <point x="304" y="542"/>
      <point x="304" y="573" type="curve" smooth="yes"/>
      <point x="304" y="604"/>
      <point x="282" y="636"/>
      <point x="241" y="636" type="curve" smooth="yes"/>
      <point x="197" y="636"/>
      <point x="176" y="604"/>
      <point x="176" y="573" type="curve" smooth="yes"/>
      <point x="176" y="542"/>
      <point x="197" y="510"/>
    </contour>
    <contour>
      <point x="240" y="359" type="move" name="_top"/>
    </contour>
  </outline>
</glyph>
<glyph name="cedi" format="1">
  <advance width="558"/>
  <outline>
    <contour>
      <point x="339" y="-8" type="curve" smooth="yes"/>
      <point x="411" y="-8"/>
      <point x="486" y="16"/>
      <point x="520" y="40" type="curve"/>
      <point x="531" y="83"/>
      <point x="539" y="122"/>
      <point x="546" y="164" type="curve"/>
      <point x="478" y="171" type="line"/>
      <point x="470" y="154"/>
      <point x="462" y="123"/>
      <point x="449" y="93" type="curve"/>
      <point x="433" y="72"/>
      <point x="390" y="61"/>
      <point x="365" y="61" type="curve" smooth="yes"/>
      <point x="274" y="61"/>
      <point x="202" y="145"/>
      <point x="202" y="293" type="curve" smooth="yes"/>
      <point x="202" y="400"/>
      <point x="259" y="470"/>
      <point x="353" y="470" type="curve" smooth="yes"/>
      <point x="381" y="470"/>
      <point x="403" y="464"/>
      <point x="426" y="455" type="curve"/>
      <point x="438" y="422"/>
      <point x="449" y="388"/>
      <point x="460" y="356" type="curve"/>
      <point x="520" y="359" type="line"/>
      <point x="514" y="504" type="line"/>
      <point x="478" y="522"/>
      <point x="419" y="536"/>
      <point x="364" y="536" type="curve" smooth="yes"/>
      <point x="181" y="536"/>
      <point x="40" y="438"/>
      <point x="40" y="252" type="curve" smooth="yes"/>
      <point x="40" y="90"/>
      <point x="157" y="-8"/>
    </contour>
    <contour>
      <point x="310" y="-104" type="line"/>
      <point x="379" y="-104" type="line"/>
      <point x="379" y="632" type="line"/>
      <point x="310" y="632" type="line"/>
    </contour>
  </outline>
</glyph>
<glyph name="circumflexcomb" format="1">
  <advance width="480"/>
  <outline>
    <contour>
      <point x="381" y="409" type="line"/>
      <point x="293" y="535" type="line"/>
      <point x="187" y="535" type="line"/>
      <point x="99" y="409" type="line"/>
      <point x="157" y="387" type="line"/>
      <point x="268" y="488" type="line"/>
      <point x="212" y="488" type="line"/>
      <point x="323" y="387" type="line"/>
    </contour>
    <contour>
      <point x="240" y="359" type="move" name="_top"/>
    </contour>
    <contour>
      <point x="240" y="550" type="move" name="top"/>
    </contour>
  </outline>
</glyph>
<glyph name="circumflexcomb_acutecomb.case" format="1">
  <advance width="480"/>
  <outline>
    <contour>
      <point x="385" y="656" type="line"/>
      <point x="496" y="762" type="line"/>
      <point x="379" y="781" type="line"/>
      <point x="327" y="678" type="line"/>
    </contour>
    <contour>
      <point x="405" y="596" type="line"/>
      <point x="293" y="674" type="line"/>
      <point x="187" y="674" type="line"/>
      <point x="75" y="596" type="line"/>
      <point x="123" y="567" type="line"/>
      <point x="268" y="627" type="line"/>
      <point x="212" y="627" type="line"/>
      <point x="357" y="567" type="line"/>
    </contour>
    <contour>
      <point x="240" y="528" type="move" name="_top"/>
    </contour>
  </outline>
</glyph>
<glyph name="circumflexcomb_hookabovecomb.case" format="1">
  <advance width="480"/>
  <outline>
    <contour>
      <point x="405" y="596" type="line"/>
      <point x="293" y="674" type="line"/>
      <point x="187" y="674" type="line"/>
      <point x="75" y="596" type="line"/>
      <point x="123" y="567" type="line"/>
      <point x="268" y="627" type="line"/>
      <point x="212" y="627" type="line"/>
      <point x="357" y="567" type="line"/>
    </contour>
    <contour>
      <point x="371" y="782" type="curve" smooth="yes"/>
      <point x="316" y="782"/>
      <point x="280" y="758"/>
      <point x="280" y="729" type="curve" smooth="yes"/>
      <point x="280" y="714"/>
      <point x="292" y="705"/>
      <point x="309" y="705" type="curve" smooth="yes"/>
      <point x="323" y="705"/>
      <point x="333" y="710"/>
      <point x="341" y="718" type="curve" smooth="yes"/>
      <point x="377" y="760" type="line"/>
      <point x="340" y="742" type="line"/>
      <point x="371" y="750"/>
      <point x="384" y="746"/>
      <point x="384" y="732" type="curve" smooth="yes"/>
      <point x="384" y="711"/>
      <point x="350" y="689"/>
      <point x="350" y="675" type="curve" smooth="yes"/>
      <point x="350" y="664" type="line"/>
      <point x="393" y="664" type="line"/>
      <point x="393" y="671"/>
      <point x="469" y="687"/>
      <point x="469" y="730" type="curve" smooth="yes"/>
      <point x="469" y="765"/>
      <point x="432" y="782"/>
    </contour>
    <contour>
      <point x="240" y="528" type="move" name="_top"/>
    </contour>
  </outline>
</glyph>
<glyph name="circumflexcomb_hookabovecomb" format="1">
  <advance width="480"/>
  <outline>
    <contour>
      <point x="381" y="409" type="line"/>
      <point x="293" y="535" type="line"/>
      <point x="187" y="535" type="line"/>
      <point x="99" y="409" type="line"/>
      <point x="157" y="387" type="line"/>
      <point x="268" y="488" type="line"/>
      <point x="212" y="488" type="line"/>
      <point x="323" y="387" type="line"/>
    </contour>
    <contour>
      <point x="371" y="632" type="curve" smooth="yes"/>
      <point x="316" y="632"/>
      <point x="280" y="607"/>
      <point x="280" y="579" type="curve" smooth="yes"/>
      <point x="280" y="564"/>
      <point x="292" y="554"/>
      <point x="309" y="554" type="curve" smooth="yes"/>
      <point x="323" y="554"/>
      <point x="333" y="560"/>
      <point x="341" y="567" type="curve" smooth="yes"/>
      <point x="377" y="610" type="line"/>
      <point x="340" y="592" type="line"/>
      <point x="371" y="600"/>
      <point x="384" y="596"/>
      <point x="384" y="582" type="curve" smooth="yes"/>
      <point x="384" y="561"/>
      <point x="350" y="537"/>
      <point x="350" y="502" type="curve" smooth="yes"/>
      <point x="350" y="489" type="line"/>
      <point x="393" y="489" type="line"/>
      <point x="393" y="515"/>
      <point x="469" y="530"/>
      <point x="469" y="575" type="curve" smooth="yes"/>
      <point x="469" y="611"/>
      <point x="432" y="632"/>
    </contour>
    <contour>
      <point x="240" y="359" type="move" name="_top"/>
    </contour>
  </outline>
</glyph>
<glyph name="circumflexcomb_tildecomb.case" format="1">
  <advance width="480"/>
  <outline>
    <contour>
      <point x="123" y="567" type="line"/>
      <point x="268" y="627" type="line"/>
      <point x="212" y="627" type="line"/>
      <point x="357" y="567" type="line"/>
      <point x="405" y="596" type="line"/>
      <point x="293" y="674" type="line"/>
      <point x="187" y="674" type="line"/>
      <point x="75" y="596" type="line"/>
    </contour>
    <contour>
      <point x="296" y="683" type="curve" smooth="yes"/>
      <point x="345" y="683"/>
      <point x="382" y="708"/>
      <point x="401" y="756" type="curve"/>
      <point x="365" y="779" type="line"/>
      <point x="349" y="768"/>
      <point x="334" y="762"/>
      <point x="315" y="762" type="curve" smooth="yes"/>
      <point x="284" y="762"/>
      <point x="225" y="781"/>
      <point x="185" y="781" type="curve" smooth="yes"/>
      <point x="136" y="781"/>
      <point x="99" y="756"/>
      <point x="80" y="708" type="curve"/>
      <point x="116" y="684" type="line"/>
      <point x="131" y="695"/>
      <point x="148" y="702"/>
      <point x="166" y="702" type="curve" smooth="yes"/>
      <point x="197" y="702"/>
      <point x="256" y="683"/>
    </contour>
    <contour>
      <point x="240" y="528" type="move" name="_top"/>
    </contour>
  </outline>
</glyph>
<glyph name="commaaccentcomb" format="1">
  <advance width="480"/>
  <outline>
    <contour>
      <point x="171" y="-238" type="line"/>
      <point x="272" y="-219"/>
      <point x="313" y="-154"/>
      <point x="313" y="-106" type="curve" smooth="yes"/>
      <point x="313" y="-48"/>
      <point x="271" y="-31"/>
      <point x="236" y="-31" type="curve" smooth="yes"/>
      <point x="195" y="-31"/>
      <point x="167" y="-55"/>
      <point x="167" y="-86" type="curve" smooth="yes"/>
      <point x="167" y="-148"/>
      <point x="232" y="-134"/>
      <point x="232" y="-162" type="curve" smooth="yes"/>
      <point x="232" y="-175"/>
      <point x="220" y="-191"/>
      <point x="158" y="-203" type="curve"/>
    </contour>
    <contour>
      <point x="240" y="0" type="move" name="_bottom"/>
    </contour>
    <contour>
      <point x="240" y="-176" type="move" name="bottom"/>
    </contour>
  </outline>
</glyph>
<glyph name="commercialMinusSign" format="1">
  <advance width="480"/>
  <outline>
    <contour>
      <point x="105" y="0" type="line"/>
      <point x="199" y="0" type="line"/>
      <point x="374" y="528" type="line"/>
      <point x="280" y="528" type="line"/>
    </contour>
    <contour>
      <point x="339" y="-9" type="curve" smooth="yes"/>
      <point x="390" y="-9"/>
      <point x="431" y="33"/>
      <point x="431" y="87" type="curve" smooth="yes"/>
      <point x="431" y="143"/>
      <point x="390" y="188"/>
      <point x="339" y="188" type="curve" smooth="yes"/>
      <point x="289" y="188"/>
      <point x="247" y="143"/>
      <point x="247" y="87" type="curve" smooth="yes"/>
      <point x="247" y="33"/>
      <point x="289" y="-9"/>
    </contour>
    <contour>
      <point x="140" y="340" type="curve" smooth="yes"/>
      <point x="191" y="340"/>
      <point x="233" y="382"/>
      <point x="233" y="436" type="curve" smooth="yes"/>
      <point x="233" y="492"/>
      <point x="191" y="537"/>
      <point x="140" y="537" type="curve" smooth="yes"/>
      <point x="90" y="537"/>
      <point x="48" y="492"/>
      <point x="48" y="436" type="curve" smooth="yes"/>
      <point x="48" y="382"/>
      <point x="90" y="340"/>
    </contour>
  </outline>
</glyph>
<glyph name="dblgravecomb" format="1">
  <advance width="480"/>
  <outline>
    <contour>
      <point x="96" y="387" type="line"/>
      <point x="151" y="407" type="line"/>
      <point x="107" y="542" type="line"/>
      <point x="21" y="523" type="line"/>
    </contour>
    <contour>
      <point x="329" y="387" type="line"/>
      <point x="384" y="407" type="line"/>
      <point x="339" y="542" type="line"/>
      <point x="254" y="523" type="line"/>
    </contour>
    <contour>
      <point x="240" y="359" type="move" name="_top"/>
    </contour>
    <contour>
      <point x="240" y="550" type="move" name="top"/>
    </contour>
  </outline>
</glyph>
<glyph name="dieresisbelowcomb" format="1">
  <advance width="480"/>
  <outline>
    <contour>
      <point x="157" y="-169" type="curve" smooth="yes"/>
      <point x="200" y="-169"/>
      <point x="223" y="-135"/>
      <point x="223" y="-103" type="curve" smooth="yes"/>
      <point x="223" y="-70"/>
      <point x="200" y="-37"/>
      <point x="157" y="-37" type="curve" smooth="yes"/>
      <point x="112" y="-37"/>
      <point x="89" y="-70"/>
      <point x="89" y="-103" type="curve" smooth="yes"/>
      <point x="89" y="-135"/>
      <point x="112" y="-169"/>
    </contour>
    <contour>
      <point x="324" y="-169" type="curve" smooth="yes"/>
      <point x="367" y="-169"/>
      <point x="391" y="-135"/>
      <point x="391" y="-103" type="curve" smooth="yes"/>
      <point x="391" y="-70"/>
      <point x="367" y="-37"/>
      <point x="324" y="-37" type="curve" smooth="yes"/>
      <point x="279" y="-37"/>
      <point x="257" y="-70"/>
      <point x="257" y="-103" type="curve" smooth="yes"/>
      <point x="257" y="-135"/>
      <point x="279" y="-169"/>
    </contour>
    <contour>
      <point x="240" y="0" type="move" name="_bottom"/>
    </contour>
    <contour>
      <point x="240" y="-176" type="move" name="bottom"/>
    </contour>
  </outline>
</glyph>
<glyph name="dieresiscomb" format="1">
  <advance width="480"/>
  <outline>
    <contour>
      <point x="157" y="396" type="curve" smooth="yes"/>
      <point x="200" y="396"/>
      <point x="223" y="430"/>
      <point x="223" y="462" type="curve" smooth="yes"/>
      <point x="223" y="496"/>
      <point x="200" y="529"/>
      <point x="157" y="529" type="curve" smooth="yes"/>
      <point x="112" y="529"/>
      <point x="89" y="496"/>
      <point x="89" y="462" type="curve" smooth="yes"/>
      <point x="89" y="430"/>
      <point x="112" y="396"/>
    </contour>
    <contour>
      <point x="324" y="396" type="curve" smooth="yes"/>
      <point x="367" y="396"/>
      <point x="391" y="430"/>
      <point x="391" y="462" type="curve" smooth="yes"/>
      <point x="391" y="496"/>
      <point x="367" y="529"/>
      <point x="324" y="529" type="curve" smooth="yes"/>
      <point x="279" y="529"/>
      <point x="257" y="496"/>
      <point x="257" y="462" type="curve" smooth="yes"/>
      <point x="257" y="430"/>
      <point x="279" y="396"/>
    </contour>
    <contour>
      <point x="240" y="359" type="move" name="_top"/>
    </contour>
    <contour>
      <point x="240" y="525" type="move" name="top"/>
    </contour>
  </outline>
</glyph>
<glyph name="dieresiscomb_acutecomb.case" format="1">
  <advance width="480"/>
  <outline>
    <contour>
      <point x="269" y="681" type="line"/>
      <point x="377" y="762" type="line"/>
      <point x="260" y="781" type="line"/>
      <point x="211" y="703" type="line"/>
    </contour>
    <contour>
      <point x="141" y="560" type="curve" smooth="yes"/>
      <point x="184" y="560"/>
      <point x="207" y="594"/>
      <point x="207" y="626" type="curve" smooth="yes"/>
      <point x="207" y="660"/>
      <point x="184" y="693"/>
      <point x="141" y="693" type="curve" smooth="yes"/>
      <point x="96" y="693"/>
      <point x="73" y="660"/>
      <point x="73" y="626" type="curve" smooth="yes"/>
      <point x="73" y="594"/>
      <point x="96" y="560"/>
    </contour>
    <contour>
      <point x="340" y="560" type="curve" smooth="yes"/>
      <point x="383" y="560"/>
      <point x="407" y="594"/>
      <point x="407" y="626" type="curve" smooth="yes"/>
      <point x="407" y="660"/>
      <point x="383" y="693"/>
      <point x="340" y="693" type="curve" smooth="yes"/>
      <point x="295" y="693"/>
      <point x="273" y="660"/>
      <point x="273" y="626" type="curve" smooth="yes"/>
      <point x="273" y="594"/>
      <point x="295" y="560"/>
    </contour>
    <contour>
      <point x="240" y="528" type="move" name="_top"/>
    </contour>
  </outline>
</glyph>
<glyph name="dieresiscomb_macroncomb.case" format="1">
  <advance width="480"/>
  <outline>
    <contour>
      <point x="80" y="776" type="line"/>
      <point x="80" y="705" type="line"/>
      <point x="400" y="705" type="line"/>
      <point x="400" y="776" type="line"/>
    </contour>
    <contour>
      <point x="141" y="560" type="curve" smooth="yes"/>
      <point x="184" y="560"/>
      <point x="207" y="594"/>
      <point x="207" y="626" type="curve" smooth="yes"/>
      <point x="207" y="660"/>
      <point x="184" y="693"/>
      <point x="141" y="693" type="curve" smooth="yes"/>
      <point x="96" y="693"/>
      <point x="73" y="660"/>
      <point x="73" y="626" type="curve" smooth="yes"/>
      <point x="73" y="594"/>
      <point x="96" y="560"/>
    </contour>
    <contour>
      <point x="340" y="560" type="curve" smooth="yes"/>
      <point x="383" y="560"/>
      <point x="407" y="594"/>
      <point x="407" y="626" type="curve" smooth="yes"/>
      <point x="407" y="660"/>
      <point x="383" y="693"/>
      <point x="340" y="693" type="curve" smooth="yes"/>
      <point x="295" y="693"/>
      <point x="273" y="660"/>
      <point x="273" y="626" type="curve" smooth="yes"/>
      <point x="273" y="594"/>
      <point x="295" y="560"/>
    </contour>
    <contour>
      <point x="240" y="528" type="move" name="_top"/>
    </contour>
  </outline>
</glyph>
<glyph name="divisionslash" format="1">
  <advance width="480"/>
  <outline>
    <contour>
      <point x="105" y="0" type="line"/>
      <point x="199" y="0" type="line"/>
      <point x="374" y="528" type="line"/>
      <point x="280" y="528" type="line"/>
    </contour>
  </outline>
</glyph>
<glyph name="dotaccentcomb.i" format="1">
  <advance width="480"/>
  <outline>
    <contour>
      <point x="241" y="400" type="curve" smooth="yes"/>
      <point x="298" y="400"/>
      <point x="326" y="442"/>
      <point x="326" y="486" type="curve" smooth="yes"/>
      <point x="326" y="531"/>
      <point x="298" y="573"/>
      <point x="241" y="573" type="curve" smooth="yes"/>
      <point x="184" y="573"/>
      <point x="154" y="531"/>
      <point x="154" y="486" type="curve" smooth="yes"/>
      <point x="154" y="442"/>
      <point x="184" y="400"/>
    </contour>
    <contour>
      <point x="240" y="359" type="move" name="_top"/>
    </contour>
    <contour>
      <point x="240" y="525" type="move" name="top"/>
    </contour>
  </outline>
</glyph>
